<?xml version="1.0" encoding="UTF-8"?>
<svg id="Layer_1" data-name="Layer 1" xmlns="http://www.w3.org/2000/svg" viewBox="0 0 87.75 87.75">
  <defs>
    <style>
      .cls-1 {
        isolation: isolate;
      }

      .cls-2 {
        fill: #0b20b6;
        stroke-width: 0px;
      }
    </style>
  </defs>
  <rect class="cls-2" x=".25" y=".25" width="29.08" height="3.49"/>
  <path class="cls-2" d="m87.75,87.75H0V0h87.75v87.75Zm-87.25-.5h86.75V.5H.5v86.75Z"/>
  <path class="cls-2" d="m70.96,80.91c-5.48,0-9.94-4.46-9.94-9.94s4.46-9.94,9.94-9.94,9.95,4.46,9.95,9.94-4.46,9.94-9.95,9.94Zm0-19.39c-5.21,0-9.44,4.24-9.44,9.44s4.24,9.44,9.44,9.44,9.45-4.24,9.45-9.44-4.24-9.44-9.45-9.44Z"/>
  <polygon class="cls-2" points="67.16 80.17 66.8 79.82 74.96 71.31 65.75 72.07 74.39 61.86 74.77 62.19 66.91 71.48 76.24 70.7 67.16 80.17"/>
  <rect class="cls-2" x="6.36" y="47.78" width="75.03" height=".5"/>
  <g class="cls-1">
    <g class="cls-1">
      <path class="cls-2" d="m7.1,39.52h-.74v-4.53h.74v4.53Z"/>
      <path class="cls-2" d="m12.86,34.99v4.53h-.65v-3.1s0-.1,0-.17c0-.06,0-.12.01-.18l-1.46,2.69c-.06.11-.14.17-.26.17h-.1c-.12,0-.21-.06-.26-.17l-1.48-2.7c0,.06.01.12.01.18,0,.06,0,.12,0,.17v3.1h-.65v-4.53h.55c.06,0,.12,0,.15.02s.07.05.1.11l1.45,2.63c.03.06.06.12.09.19.03.06.05.13.08.2.02-.07.05-.13.08-.2s.06-.13.09-.19l1.43-2.63c.03-.06.06-.09.1-.11s.09-.02.15-.02h.55Z"/>
    </g>
    <g class="cls-1">
      <path class="cls-2" d="m18.72,34.99l-1.84,4.53h-.66l-1.84-4.53h.59c.06,0,.12.02.16.05.04.03.07.07.09.12l1.17,2.95c.06.17.12.36.17.57.02-.11.05-.21.07-.31s.06-.19.09-.27l1.16-2.95s.05-.08.09-.12c.04-.04.09-.05.16-.05h.59Z"/>
      <path class="cls-2" d="m19.75,35.34c0,.06-.01.12-.04.17-.02.05-.06.1-.1.14-.04.04-.09.07-.15.1-.06.02-.11.04-.18.04s-.12-.01-.17-.04c-.05-.02-.1-.06-.14-.1-.04-.04-.07-.09-.1-.14-.02-.05-.04-.11-.04-.17s.01-.12.04-.18.06-.1.1-.14c.04-.04.09-.07.14-.1.05-.02.11-.04.17-.04s.12.01.18.04c.06.02.1.06.15.1.04.04.08.09.1.14.02.05.04.11.04.18Zm-.11.97v3.21h-.68v-3.21h.68Z"/>
      <path class="cls-2" d="m21.33,39.57c-.27,0-.47-.08-.61-.23-.14-.15-.22-.36-.22-.63v-1.87h-.35s-.07-.01-.1-.04c-.03-.02-.04-.06-.04-.11v-.27l.52-.08.15-.93s.03-.06.05-.09c.02-.02.06-.03.1-.03h.35v1.05h.89v.49h-.89v1.82c0,.12.03.2.08.26.06.06.13.09.23.09.05,0,.1,0,.14-.02s.07-.03.1-.04c.03-.02.05-.03.07-.04.02-.01.04-.02.06-.02.04,0,.07.02.09.06l.2.33c-.1.09-.23.16-.37.21-.14.05-.29.07-.44.07Z"/>
      <path class="cls-2" d="m22.33,36.76c.36-.34.79-.51,1.3-.51.18,0,.35.03.49.09s.26.14.36.25.17.24.22.39c.05.15.08.32.08.5v2.04h-.3c-.06,0-.11,0-.15-.03-.03-.02-.06-.06-.08-.12l-.07-.26c-.08.07-.16.14-.24.2s-.16.11-.25.15c-.08.04-.18.07-.27.09s-.21.03-.32.03c-.13,0-.25-.02-.36-.05-.11-.04-.21-.09-.29-.16-.08-.07-.15-.16-.19-.27-.05-.11-.07-.23-.07-.38,0-.12.03-.24.1-.36s.18-.22.33-.32c.15-.09.35-.17.6-.23.25-.06.56-.09.92-.1v-.21c0-.23-.05-.4-.15-.52s-.24-.17-.43-.17c-.13,0-.24.02-.33.05-.09.03-.16.07-.23.11-.06.04-.12.07-.17.11-.05.03-.1.05-.16.05-.05,0-.09-.01-.12-.04-.03-.02-.06-.05-.08-.09l-.12-.22Zm1.79,1.36c-.24,0-.44.03-.61.06-.17.03-.3.07-.4.12-.1.05-.18.1-.22.17-.04.06-.07.14-.07.21s.01.14.04.19c.02.05.06.1.1.13s.09.06.15.08.12.02.19.02c.18,0,.33-.03.45-.1s.25-.16.37-.29v-.59Z"/>
      <path class="cls-2" d="m25.38,39.52v-3.21h.41c.09,0,.15.04.18.13l.04.28c.06-.07.12-.13.18-.18.06-.05.13-.1.2-.14s.15-.07.23-.1c.08-.02.17-.03.27-.03.1,0,.2.01.28.04s.16.07.23.12c.07.05.12.12.17.2.05.08.09.17.12.26.05-.11.11-.21.18-.29.07-.08.16-.15.25-.2.09-.05.19-.09.29-.11.1-.02.21-.04.31-.04.17,0,.33.03.46.08.14.05.25.13.34.24.09.1.16.23.21.38.05.15.07.32.07.52v2.04h-.68v-2.04c0-.23-.05-.4-.15-.51-.1-.11-.24-.17-.43-.17-.09,0-.17.01-.24.04-.08.03-.14.07-.2.13s-.1.13-.13.21c-.03.08-.05.18-.05.3v2.04h-.68v-2.04c0-.24-.05-.41-.14-.52s-.23-.17-.42-.17c-.13,0-.24.03-.35.1-.11.06-.21.15-.3.26v2.37h-.68Z"/>
      <path class="cls-2" d="m31.23,35.34c0,.06-.01.12-.04.17-.02.05-.06.1-.1.14-.04.04-.09.07-.15.1-.06.02-.11.04-.18.04s-.12-.01-.17-.04c-.05-.02-.1-.06-.14-.1-.04-.04-.07-.09-.1-.14-.02-.05-.04-.11-.04-.17s.01-.12.04-.18.06-.1.1-.14c.04-.04.09-.07.14-.1.05-.02.11-.04.17-.04s.12.01.18.04c.06.02.1.06.15.1.04.04.08.09.1.14.02.05.04.11.04.18Zm-.11.97v3.21h-.68v-3.21h.68Z"/>
      <path class="cls-2" d="m32.42,36.74c.07-.07.14-.14.22-.19.07-.06.15-.11.24-.15s.17-.07.27-.1c.09-.02.2-.03.31-.03.18,0,.33.03.46.09.13.06.25.14.34.25.09.11.16.24.21.39.05.15.07.31.07.5v2.04h-.67v-2.04c0-.22-.05-.38-.15-.5-.1-.12-.25-.18-.45-.18-.15,0-.29.03-.42.1-.13.07-.25.16-.36.28v2.34h-.68v-3.21h.41c.09,0,.15.04.18.13l.05.3Z"/>
    </g>
    <g class="cls-1">
      <path class="cls-2" d="m39.27,35.77s-.05.07-.07.08c-.02.02-.06.03-.09.03-.04,0-.08-.02-.13-.05s-.11-.07-.18-.11c-.07-.04-.16-.08-.26-.11-.1-.04-.22-.05-.35-.05-.13,0-.24.02-.33.05-.1.03-.18.08-.24.13s-.11.12-.15.2c-.03.08-.05.16-.05.25,0,.12.03.21.09.29.06.08.14.14.24.2.1.05.21.1.34.14s.26.08.39.13.26.1.39.16.24.13.34.22c.1.09.18.2.24.33.06.13.09.29.09.47,0,.2-.03.39-.1.57-.07.18-.17.33-.3.46-.13.13-.29.23-.48.31-.19.08-.41.11-.66.11-.14,0-.29-.01-.42-.04-.14-.03-.27-.07-.39-.12-.12-.05-.24-.11-.35-.19s-.21-.16-.29-.25l.21-.35s.04-.05.07-.07c.03-.02.06-.02.1-.02.05,0,.1.02.16.07.06.04.13.09.21.15.08.05.18.1.3.15.12.04.26.07.42.07.27,0,.47-.07.62-.2.15-.13.22-.31.22-.54,0-.13-.03-.23-.09-.31s-.14-.15-.24-.2-.21-.1-.34-.14c-.13-.04-.26-.08-.39-.12-.13-.04-.26-.09-.39-.15s-.24-.13-.34-.23c-.1-.09-.18-.21-.24-.35-.06-.14-.09-.31-.09-.51,0-.16.03-.32.1-.47s.16-.29.28-.41c.12-.12.27-.21.45-.29.18-.07.39-.11.62-.11.26,0,.5.04.72.12.22.08.4.2.56.35l-.18.35Z"/>
    </g>
    <g class="cls-1">
      <path class="cls-2" d="m40.67,36.69c.13-.13.28-.23.43-.31.16-.08.34-.12.55-.12.18,0,.33.03.46.09.13.06.25.14.34.25.09.11.16.24.21.39.05.15.07.31.07.5v2.04h-.67v-2.04c0-.22-.05-.38-.15-.5-.1-.12-.25-.18-.45-.18-.15,0-.29.03-.42.1-.13.07-.25.16-.36.28v2.34h-.68v-4.65h.68v1.83Z"/>
    </g>
    <g class="cls-1">
      <path class="cls-2" d="m44.76,36.26c.24,0,.45.04.64.12.19.08.36.19.49.33.14.14.24.32.31.52.07.2.11.43.11.69s-.04.48-.11.69c-.07.2-.18.38-.31.52-.13.14-.3.25-.49.33-.19.08-.41.12-.64.12s-.45-.04-.65-.12c-.19-.08-.36-.19-.49-.33-.14-.14-.24-.32-.31-.52-.07-.2-.11-.43-.11-.69s.04-.48.11-.69c.07-.2.18-.38.31-.52.14-.14.3-.25.49-.33.19-.08.41-.12.65-.12Zm0,2.78c.29,0,.5-.1.65-.29.14-.19.21-.47.21-.83s-.07-.64-.21-.83c-.14-.2-.36-.29-.65-.29s-.51.1-.65.29c-.14.2-.21.47-.21.83s.07.64.21.83c.14.19.36.29.65.29Z"/>
    </g>
    <g class="cls-1">
      <path class="cls-2" d="m47.77,39.57c-.27,0-.47-.08-.62-.23-.14-.15-.21-.36-.21-.63v-1.87h-.35s-.07-.01-.1-.04c-.03-.02-.04-.06-.04-.11v-.27l.52-.08.15-.93s.03-.06.05-.09c.02-.02.06-.03.1-.03h.35v1.05h.89v.49h-.89v1.82c0,.12.03.2.08.26.06.06.13.09.23.09.05,0,.1,0,.13-.02.04-.01.07-.03.1-.04s.05-.03.07-.04c.02-.01.04-.02.06-.02.04,0,.07.02.09.06l.2.33c-.11.09-.23.16-.37.21-.14.05-.29.07-.44.07Z"/>
      <path class="cls-2" d="m50.83,36.89s-.04.05-.06.06c-.02.01-.05.02-.08.02-.04,0-.07-.01-.12-.03-.04-.02-.09-.05-.15-.07s-.12-.05-.2-.07c-.08-.02-.17-.03-.27-.03-.08,0-.16,0-.23.03-.07.02-.13.05-.17.08-.05.04-.08.08-.11.13-.03.05-.04.1-.04.16,0,.08.02.14.07.19.05.05.11.09.18.13.08.04.16.07.26.1s.2.06.3.09c.1.03.2.07.29.12.1.04.18.1.26.16.08.06.14.14.18.23.05.09.07.2.07.33,0,.15-.03.29-.08.42s-.13.24-.24.33c-.11.09-.24.17-.39.22s-.33.08-.54.08c-.11,0-.22-.01-.32-.03-.1-.02-.2-.05-.29-.08-.09-.03-.18-.08-.26-.12-.08-.05-.15-.1-.21-.16l.16-.26s.04-.06.07-.07.06-.03.11-.03.09.01.13.04.09.06.15.09c.06.03.13.06.21.09.08.03.18.04.3.04.1,0,.19-.01.26-.04.07-.02.13-.06.18-.1s.08-.09.11-.14c.02-.05.03-.11.03-.17,0-.08-.02-.15-.07-.2-.05-.05-.11-.1-.18-.13-.08-.04-.16-.07-.26-.1-.1-.03-.2-.06-.3-.09s-.2-.07-.3-.12-.18-.1-.26-.17c-.08-.07-.14-.15-.18-.25s-.07-.22-.07-.36c0-.13.03-.25.08-.37s.13-.22.23-.3c.1-.09.22-.16.37-.21.15-.05.31-.08.5-.08.22,0,.41.03.59.1s.32.16.44.28l-.15.25Z"/>
    </g>
  </g>
  <g class="cls-1">
    <g class="cls-1">
      <path class="cls-2" d="m8.87,20.93c.48,0,.9.05,1.25.14.35.09.64.23.86.41.23.18.39.39.5.65s.16.54.16.86c0,.19-.03.38-.09.56-.06.18-.15.34-.27.5-.12.15-.27.29-.46.42-.19.12-.4.22-.65.3.58.11,1.01.32,1.31.62s.44.7.44,1.19c0,.33-.06.64-.18.91-.12.28-.3.51-.54.71-.24.2-.53.35-.87.46s-.74.16-1.18.16h-2.78v-7.88h2.51Zm-1.45.84v2.69h1.41c.3,0,.56-.03.78-.1.22-.07.41-.16.55-.28.15-.12.25-.26.32-.43.07-.17.1-.35.1-.55,0-.47-.14-.81-.42-1.02-.28-.21-.71-.32-1.3-.32h-1.45Zm1.71,6.19c.3,0,.57-.04.79-.1.22-.07.4-.17.54-.29.14-.13.25-.28.31-.45.07-.17.1-.37.1-.58,0-.41-.15-.73-.43-.96-.29-.24-.72-.36-1.3-.36h-1.71v2.75h1.71Z"/>
    </g>
    <g class="cls-1">
      <path class="cls-2" d="m16.8,21.8v2.76h3.24v.87h-3.24v3.39h-1.07v-7.88h4.86v.87h-3.79Z"/>
    </g>
    <g class="cls-1">
      <path class="cls-2" d="m20.52,24.02c.31-.3.64-.52,1-.67s.75-.22,1.18-.22c.31,0,.59.05.83.15.24.1.45.25.61.43.17.18.29.41.37.67s.13.55.13.86v3.56h-.43c-.1,0-.17-.02-.22-.05-.05-.03-.09-.09-.12-.18l-.11-.53c-.15.14-.29.26-.43.36s-.29.19-.44.26c-.15.07-.32.13-.49.17-.17.04-.37.06-.58.06s-.42-.03-.61-.09-.36-.15-.5-.27-.25-.27-.34-.46c-.08-.18-.12-.4-.12-.66,0-.22.06-.43.18-.63.12-.2.32-.38.59-.54.27-.16.62-.29,1.06-.39s.97-.16,1.61-.17v-.43c0-.43-.09-.76-.28-.98s-.46-.33-.82-.33c-.24,0-.44.03-.61.09-.16.06-.3.13-.42.2s-.22.14-.31.2c-.09.06-.17.09-.26.09-.07,0-.12-.02-.17-.05-.05-.04-.09-.08-.12-.13l-.18-.31Zm3.16,2.28c-.45.01-.83.05-1.15.11-.32.06-.58.13-.78.22s-.34.2-.43.32-.13.26-.13.42.02.27.07.38c.05.11.11.19.2.26.08.07.18.12.29.15.11.03.23.05.36.05.17,0,.33-.02.47-.05.14-.04.28-.09.4-.15.13-.07.25-.15.36-.24.12-.09.23-.2.34-.31v-1.16Z"/>
      <path class="cls-2" d="m25.91,28.81v-5.57h.59c.14,0,.23.07.26.2l.07.57c.21-.25.44-.46.69-.62.26-.16.55-.24.89-.24.37,0,.68.1.91.31.23.21.4.49.5.85.08-.2.18-.38.31-.52s.27-.27.43-.36c.16-.09.33-.17.5-.21s.36-.07.54-.07c.29,0,.55.05.78.14.23.09.42.23.58.41.16.18.28.4.37.66.08.26.13.56.13.9v3.55h-.98v-3.55c0-.44-.1-.77-.29-.99-.19-.23-.47-.34-.83-.34-.16,0-.31.03-.46.09-.15.06-.27.14-.38.25s-.2.25-.26.42c-.06.17-.1.36-.1.58v3.55h-.98v-3.55c0-.45-.09-.78-.27-1-.18-.22-.44-.33-.79-.33-.24,0-.47.07-.67.2-.21.13-.39.31-.57.53v4.15h-.98Z"/>
      <path class="cls-2" d="m35.98,21.49c0,.09-.02.18-.06.27-.04.08-.09.16-.15.22-.06.06-.14.12-.23.15-.09.04-.18.05-.27.05s-.18-.02-.27-.05c-.08-.04-.16-.09-.22-.15-.06-.06-.11-.14-.15-.22-.04-.08-.05-.17-.05-.27s.02-.19.05-.27.09-.16.15-.23c.06-.06.13-.11.22-.15.08-.04.17-.05.27-.05s.19.02.27.05c.09.04.16.09.23.15.06.06.12.14.15.23.04.09.06.18.06.27Zm-.21,1.75v5.57h-.98v-5.57h.98Z"/>
      <path class="cls-2" d="m38.17,20.71v8.1h-.98v-8.1h.98Z"/>
    </g>
    <g class="cls-1">
      <path class="cls-2" d="m44.12,23.24l-3.11,7.22c-.03.07-.07.13-.12.18-.05.04-.13.07-.23.07h-.73l1.02-2.21-2.3-5.25h.85c.08,0,.15.02.2.06.05.04.08.09.1.14l1.49,3.51c.06.15.11.32.15.48.05-.17.11-.34.17-.49l1.45-3.5c.02-.06.06-.11.11-.15.05-.04.11-.06.18-.06h.78Z"/>
    </g>
  </g>
</svg>