<?xml version="1.0" encoding="UTF-8"?>
<svg id="Layer_1" data-name="Layer 1" xmlns="http://www.w3.org/2000/svg" viewBox="0 0 87.75 87.75">
  <defs>
    <style>
      .cls-1 {
        fill: #0b20b6;
        stroke-width: 0px;
      }
    </style>
  </defs>
  <path class="cls-1" d="m87.75,87.75H0V0h87.75v87.75Zm-87.25-.5h86.75V.5H.5v86.75Z"/>
  <rect class="cls-1" x=".25" y=".25" width="29.08" height="3.49"/>
  <path class="cls-1" d="m87.75,87.75H0V0h87.75v87.75Zm-87.25-.5h86.75V.5H.5v86.75Z"/>
  <path class="cls-1" d="m70.96,80.91c-5.48,0-9.94-4.46-9.94-9.94s4.46-9.94,9.94-9.94,9.95,4.46,9.95,9.94-4.46,9.94-9.95,9.94Zm0-19.39c-5.21,0-9.44,4.24-9.44,9.44s4.24,9.44,9.44,9.44,9.45-4.24,9.45-9.44-4.24-9.44-9.45-9.44Z"/>
  <polygon class="cls-1" points="67.16 80.17 66.8 79.82 74.96 71.31 65.75 72.07 74.39 61.86 74.77 62.19 66.91 71.48 76.24 70.7 67.16 80.17"/>
  <rect class="cls-1" x="6.36" y="47.78" width="75.03" height=".5"/>
  <g>
    <path class="cls-1" d="m8.88,20.93c.48,0,.9.05,1.25.14.35.1.64.23.86.41s.39.39.5.65.16.54.16.86c0,.19-.03.38-.09.56s-.15.34-.27.5c-.12.15-.27.29-.46.42-.19.12-.4.22-.65.3.58.11,1.01.32,1.31.62s.44.7.44,1.19c0,.33-.06.64-.18.91-.12.28-.3.51-.54.71-.24.2-.53.35-.87.46s-.74.16-1.18.16h-2.78v-7.88h2.51Zm-1.45.84v2.69h1.41c.3,0,.56-.03.78-.1s.41-.16.55-.28c.15-.12.25-.26.32-.43.07-.17.1-.35.1-.55,0-.46-.14-.81-.42-1.02-.28-.21-.71-.32-1.3-.32h-1.45Zm1.71,6.19c.3,0,.57-.04.79-.1.22-.07.4-.17.54-.29.14-.13.25-.28.31-.45.07-.17.1-.37.1-.58,0-.41-.15-.73-.43-.96-.29-.24-.72-.35-1.3-.35h-1.71v2.74h1.71Z"/>
    <path class="cls-1" d="m14.1,21.49c0,.1-.02.18-.06.27-.04.08-.09.16-.15.22-.06.06-.14.12-.23.15-.09.04-.18.06-.27.06s-.18-.02-.27-.06c-.08-.04-.16-.09-.22-.15-.06-.06-.11-.14-.15-.22-.04-.08-.05-.17-.05-.27s.02-.19.05-.27c.04-.09.09-.16.15-.23.06-.06.13-.11.22-.15.08-.04.17-.05.27-.05s.19.02.27.05c.09.04.16.09.23.15.06.06.12.14.15.23.04.09.06.18.06.27Zm-.21,1.75v5.57h-.98v-5.57h.98Z"/>
    <path class="cls-1" d="m17.57,23.15c.41,0,.77.07,1.1.2.33.14.6.33.84.58.23.25.41.55.53.9.12.35.18.75.18,1.19s-.06.84-.18,1.19c-.12.35-.3.65-.53.9s-.51.44-.84.58c-.33.13-.69.2-1.1.2s-.78-.07-1.11-.2-.61-.33-.84-.58c-.23-.25-.41-.55-.53-.9-.12-.35-.18-.75-.18-1.19s.06-.83.18-1.19c.12-.35.3-.66.53-.9.23-.25.51-.44.84-.58s.7-.2,1.11-.2Zm0,4.97c.55,0,.96-.18,1.23-.55.27-.37.41-.88.41-1.54s-.14-1.18-.41-1.55c-.27-.37-.68-.56-1.23-.56-.28,0-.52.05-.73.14-.21.1-.38.23-.52.41-.14.18-.24.4-.31.66-.07.26-.1.56-.1.89,0,.66.14,1.17.41,1.54.27.37.69.55,1.25.55Z"/>
    <path class="cls-1" d="m26.25,28.81h-.98v-4.75h-2.87v3.34c0,.24.06.41.17.52.11.11.26.17.44.17.1,0,.19-.01.27-.04s.14-.06.2-.09.1-.06.14-.09.07-.04.1-.04c.05,0,.1.03.14.09l.29.47c-.17.16-.37.28-.61.37-.24.09-.48.13-.74.13-.44,0-.78-.12-1.01-.37-.24-.25-.35-.6-.35-1.06v-3.41h-.67c-.06,0-.11-.02-.15-.05-.04-.04-.06-.09-.06-.16v-.39l.91-.12.23-1.72c.01-.06.04-.1.07-.13.04-.04.09-.05.15-.05h.5v1.92h3.85v5.46Zm.24-7.36c0,.09-.02.18-.06.27-.04.08-.09.15-.15.22-.06.06-.14.11-.22.15-.08.04-.17.06-.27.06s-.18-.02-.27-.06c-.08-.04-.15-.09-.22-.15s-.11-.13-.15-.22c-.04-.08-.06-.17-.06-.27s.02-.19.06-.27.09-.16.15-.23.13-.11.22-.15c.08-.04.17-.05.27-.05s.19.02.27.05c.08.04.16.09.22.15.06.06.12.14.15.23s.06.18.06.27Z"/>
    <path class="cls-1" d="m28.51,24.05c.12-.14.25-.26.38-.37.14-.11.28-.21.43-.28.15-.08.31-.14.48-.18.17-.04.35-.06.55-.06.3,0,.57.05.81.15s.43.24.58.43c.16.19.27.41.35.67.08.26.12.55.12.86v3.55h-.98v-3.55c0-.42-.1-.75-.29-.98-.19-.23-.48-.35-.88-.35-.29,0-.56.07-.81.21-.25.14-.48.33-.7.57v4.1h-.98v-5.57h.59c.14,0,.23.07.26.2l.08.61Z"/>
  </g>
  <g>
    <path class="cls-1" d="m7.1,39.52h-.74v-4.53h.74v4.53Z"/>
    <path class="cls-1" d="m12.84,34.99v4.53h-.65v-3.11c0-.05,0-.11,0-.17,0-.06,0-.12.01-.18l-1.46,2.69c-.06.11-.14.17-.26.17h-.1c-.12,0-.21-.06-.26-.17l-1.48-2.7c0,.06.01.12.01.18,0,.06,0,.12,0,.17v3.11h-.65v-4.53h.55c.06,0,.12,0,.15.02s.07.05.1.11l1.45,2.63c.03.06.06.12.09.19.03.06.05.13.08.2.02-.07.05-.13.08-.2.03-.07.06-.13.09-.19l1.43-2.63c.03-.06.06-.09.1-.11.04-.01.09-.02.15-.02h.55Z"/>
    <path class="cls-1" d="m18.73,34.99l-1.84,4.53h-.66l-1.84-4.53h.59c.06,0,.12.02.16.05s.07.07.09.12l1.17,2.96c.06.17.12.36.17.57.02-.11.05-.21.07-.3.03-.1.05-.19.09-.27l1.16-2.96s.05-.08.09-.12c.04-.04.09-.05.16-.05h.59Z"/>
    <path class="cls-1" d="m19.79,35.34c0,.06-.01.12-.04.17-.02.05-.06.1-.1.14s-.09.07-.15.1c-.06.02-.11.04-.18.04s-.12-.01-.17-.04c-.05-.02-.1-.06-.14-.1-.04-.04-.07-.09-.1-.14-.02-.05-.04-.11-.04-.17s.01-.12.04-.18c.02-.05.06-.1.1-.14.04-.04.09-.07.14-.1.05-.02.11-.04.17-.04s.12.01.18.04.1.06.15.1.07.09.1.14c.02.05.04.11.04.18Zm-.11.97v3.21h-.68v-3.21h.68Z"/>
    <path class="cls-1" d="m21.4,39.57c-.27,0-.47-.08-.61-.23-.14-.15-.22-.36-.22-.63v-1.87h-.35s-.07-.01-.1-.04c-.03-.02-.04-.06-.04-.11v-.27l.52-.08.15-.93s.03-.07.05-.09c.02-.02.06-.03.1-.03h.35v1.05h.89v.49h-.89v1.82c0,.12.03.2.08.26.06.06.13.09.23.09.05,0,.1,0,.14-.02.04-.01.07-.03.1-.04.03-.02.05-.03.07-.04.02-.01.04-.02.06-.02.04,0,.07.02.09.06l.2.33c-.1.09-.23.16-.37.21-.14.05-.29.07-.44.07Z"/>
    <path class="cls-1" d="m22.44,36.76c.36-.34.79-.51,1.3-.51.18,0,.35.03.49.09.14.06.26.14.36.25.1.11.17.24.22.39.05.15.08.32.08.5v2.04h-.3c-.07,0-.11,0-.15-.03-.03-.02-.06-.06-.08-.12l-.07-.26c-.08.07-.16.14-.24.2s-.16.11-.25.15-.18.07-.27.09c-.1.02-.21.03-.32.03-.13,0-.25-.02-.36-.05-.11-.04-.21-.09-.29-.16-.08-.07-.15-.16-.19-.27-.05-.11-.07-.23-.07-.38,0-.12.03-.25.1-.36.07-.12.18-.22.33-.32.15-.09.35-.17.6-.23.25-.06.56-.09.92-.1v-.21c0-.23-.05-.4-.15-.52s-.24-.17-.43-.17c-.13,0-.24.02-.33.05-.09.03-.16.07-.23.1-.07.04-.12.07-.17.11-.05.03-.1.05-.16.05-.05,0-.09-.01-.12-.04-.03-.02-.06-.05-.08-.09l-.12-.22Zm1.79,1.36c-.24,0-.44.03-.61.06-.17.03-.3.07-.4.12-.1.05-.18.1-.22.17-.04.07-.07.14-.07.21s.01.14.04.19c.02.05.06.1.1.13.04.03.09.06.15.08s.12.02.19.02c.18,0,.33-.03.45-.1.13-.07.25-.16.37-.29v-.59Z"/>
    <path class="cls-1" d="m25.52,39.52v-3.21h.41c.09,0,.15.04.18.13l.04.28c.06-.07.12-.13.18-.18s.13-.1.2-.14c.07-.04.15-.07.23-.1.08-.02.17-.03.27-.03.1,0,.2.01.28.04s.16.07.23.13c.07.05.12.12.17.2.05.08.09.16.12.26.05-.11.11-.21.18-.29.07-.08.16-.14.25-.2.09-.05.19-.09.29-.11.1-.02.21-.04.31-.04.17,0,.33.03.46.08s.25.13.34.24.16.23.21.38c.05.15.07.32.07.52v2.04h-.68v-2.04c0-.23-.05-.4-.15-.51s-.24-.17-.43-.17c-.09,0-.17.01-.24.04-.08.03-.14.07-.2.13s-.1.13-.13.21c-.03.08-.05.18-.05.3v2.04h-.68v-2.04c0-.24-.05-.41-.14-.52-.09-.11-.23-.17-.42-.17-.13,0-.24.03-.35.1-.11.06-.21.15-.3.26v2.37h-.68Z"/>
    <path class="cls-1" d="m31.41,35.34c0,.06-.01.12-.04.17-.02.05-.06.1-.1.14s-.09.07-.15.1c-.06.02-.11.04-.18.04s-.12-.01-.17-.04c-.05-.02-.1-.06-.14-.1-.04-.04-.07-.09-.1-.14-.02-.05-.04-.11-.04-.17s.01-.12.04-.18c.02-.05.06-.1.1-.14.04-.04.09-.07.14-.1.05-.02.11-.04.17-.04s.12.01.18.04.1.06.15.1.07.09.1.14c.02.05.04.11.04.18Zm-.11.97v3.21h-.68v-3.21h.68Z"/>
    <path class="cls-1" d="m32.63,36.74c.07-.07.14-.14.22-.19.07-.06.15-.11.24-.15.08-.04.17-.07.27-.1.09-.02.2-.03.31-.03.18,0,.33.03.46.09s.25.14.34.25c.09.11.16.24.21.38.05.15.07.32.07.5v2.04h-.67v-2.04c0-.22-.05-.38-.15-.5-.1-.12-.25-.18-.46-.18-.15,0-.29.03-.42.1s-.25.16-.36.28v2.34h-.68v-3.21h.41c.09,0,.15.04.18.13l.05.29Z"/>
    <path class="cls-1" d="m39.27,35.76s-.05.07-.07.08c-.02.02-.06.03-.09.03-.04,0-.08-.02-.13-.05s-.11-.07-.18-.11c-.07-.04-.16-.08-.26-.11-.1-.04-.22-.05-.35-.05-.13,0-.24.02-.33.05-.1.03-.18.08-.24.13-.07.06-.11.12-.15.2-.03.08-.05.16-.05.25,0,.12.03.21.09.29.06.08.14.14.24.2s.21.1.34.14.26.08.39.13c.13.05.26.1.39.16.13.06.24.13.34.22.1.09.18.2.24.33.06.13.09.29.09.47,0,.2-.03.39-.1.57-.07.18-.17.33-.3.46-.13.13-.29.23-.48.31-.19.08-.41.11-.66.11-.15,0-.29-.01-.42-.04-.14-.03-.27-.07-.39-.12-.12-.05-.24-.11-.35-.19-.11-.07-.21-.16-.29-.25l.21-.35s.04-.05.07-.07.06-.03.1-.03c.05,0,.1.02.16.07.06.05.13.09.21.15.08.05.18.1.3.15.12.04.26.07.42.07.27,0,.47-.06.62-.19.15-.13.22-.31.22-.54,0-.13-.03-.23-.09-.31-.06-.08-.14-.15-.24-.2-.1-.05-.21-.1-.34-.14-.13-.04-.26-.08-.39-.12-.13-.04-.26-.09-.39-.15s-.24-.13-.34-.23c-.1-.09-.18-.21-.24-.35-.06-.14-.09-.31-.09-.51,0-.16.03-.32.1-.48s.16-.29.28-.41c.12-.12.27-.21.45-.29.18-.07.39-.11.62-.11.26,0,.5.04.72.12.22.08.4.2.56.35l-.18.35Z"/>
    <path class="cls-1" d="m40.68,36.69c.13-.13.28-.23.43-.31.16-.08.34-.12.55-.12.18,0,.33.03.46.09s.25.14.34.25c.09.11.16.24.21.38.05.15.07.32.07.5v2.04h-.67v-2.04c0-.22-.05-.38-.15-.5-.1-.12-.25-.18-.46-.18-.15,0-.29.03-.42.1s-.25.16-.36.28v2.34h-.68v-4.66h.68v1.83Z"/>
    <path class="cls-1" d="m44.76,36.26c.24,0,.45.04.64.12.19.08.36.19.49.33s.24.32.31.52c.07.2.11.43.11.69s-.04.48-.11.69c-.07.2-.18.38-.31.52s-.3.25-.49.33c-.19.08-.41.12-.64.12s-.45-.04-.65-.12c-.19-.08-.36-.19-.49-.33-.14-.14-.24-.32-.31-.52-.07-.2-.11-.43-.11-.69s.04-.48.11-.69c.07-.2.18-.38.31-.52.14-.14.3-.25.49-.33.19-.08.41-.12.65-.12Zm0,2.78c.29,0,.5-.1.65-.29s.21-.47.21-.83-.07-.64-.21-.84-.36-.29-.65-.29-.51.1-.65.29-.21.47-.21.84.07.64.21.83.36.29.65.29Z"/>
    <path class="cls-1" d="m47.78,39.57c-.27,0-.47-.08-.61-.23-.14-.15-.22-.36-.22-.63v-1.87h-.35s-.07-.01-.1-.04c-.03-.02-.04-.06-.04-.11v-.27l.52-.08.15-.93s.03-.07.05-.09c.02-.02.06-.03.1-.03h.35v1.05h.89v.49h-.89v1.82c0,.12.03.2.08.26.06.06.13.09.23.09.05,0,.1,0,.14-.02.04-.01.07-.03.1-.04.03-.02.05-.03.07-.04.02-.01.04-.02.06-.02.04,0,.07.02.09.06l.2.33c-.1.09-.23.16-.37.21-.14.05-.29.07-.44.07Z"/>
  </g>
  <g>
    <path class="cls-1" d="m72.16,11.62v.81h-3.92v-.81h1.5v-4.5c0-.16,0-.32.02-.49l-1.15.97s-.1.07-.15.08-.1.01-.14,0c-.04-.01-.08-.03-.12-.05-.04-.02-.06-.05-.08-.07l-.33-.47,2.17-1.86h.87v6.38h1.35Z"/>
    <path class="cls-1" d="m77.74,9.78v.62c0,.06-.02.11-.06.15-.04.04-.1.07-.17.07h-.76v1.82h-.93v-1.82h-3.11c-.08,0-.14-.02-.2-.07-.06-.04-.09-.1-.11-.17l-.11-.55,3.45-4.59h1.01v4.53h.99Zm-1.93,0v-2.62c0-.21.02-.44.04-.69l-2.41,3.31h2.37Z"/>
    <path class="cls-1" d="m82.68,11.62v.81h-3.92v-.81h1.5v-4.5c0-.16,0-.32.01-.49l-1.15.97s-.1.07-.15.08c-.05.01-.1.01-.14,0-.04-.01-.08-.03-.12-.05s-.06-.05-.08-.07l-.33-.47,2.16-1.86h.87v6.38h1.35Z"/>
  </g>
</svg>