<?xml version="1.0" encoding="UTF-8"?>
<svg id="Layer_1" data-name="Layer 1" xmlns="http://www.w3.org/2000/svg" viewBox="0 0 87.75 87.75">
  <defs>
    <style>
      .cls-1 {
        fill: #0b20b6;
        stroke-width: 0px;
      }
    </style>
  </defs>
  <rect class="cls-1" x=".25" y=".25" width="29.08" height="3.49"/>
  <path class="cls-1" d="m87.75,87.75H0V0h87.75v87.75Zm-87.25-.5h86.75V.5H.5v86.75Z"/>
  <path class="cls-1" d="m70.96,80.91c-5.48,0-9.94-4.46-9.94-9.94s4.46-9.94,9.94-9.94,9.95,4.46,9.95,9.94-4.46,9.94-9.95,9.94Zm0-19.39c-5.21,0-9.44,4.24-9.44,9.44s4.24,9.44,9.44,9.44,9.45-4.24,9.45-9.44-4.24-9.44-9.45-9.44Z"/>
  <polygon class="cls-1" points="67.16 80.17 66.8 79.82 74.96 71.31 65.75 72.07 74.39 61.86 74.77 62.19 66.91 71.48 76.24 70.7 67.16 80.17"/>
  <rect class="cls-1" x="6.36" y="47.78" width="75.03" height=".5"/>
  <g>
    <path class="cls-1" d="m7.1,39.52h-.74v-4.53h.74v4.53Z"/>
    <path class="cls-1" d="m12.84,34.99v4.53h-.65v-3.11c0-.05,0-.11,0-.17,0-.06,0-.12.01-.18l-1.46,2.69c-.06.11-.14.17-.26.17h-.1c-.12,0-.21-.06-.26-.17l-1.48-2.7c0,.06.01.12.01.18,0,.06,0,.12,0,.17v3.11h-.65v-4.53h.55c.06,0,.12,0,.15.02s.07.05.1.11l1.45,2.63c.03.06.06.12.09.19.03.06.05.13.08.2.02-.07.05-.13.08-.2.03-.07.06-.13.09-.19l1.43-2.63c.03-.06.06-.09.1-.11.04-.01.09-.02.15-.02h.55Z"/>
    <path class="cls-1" d="m18.73,34.99l-1.84,4.53h-.66l-1.84-4.53h.59c.06,0,.12.02.16.05s.07.07.09.12l1.17,2.96c.06.17.12.36.17.57.02-.11.05-.21.07-.3.03-.1.05-.19.09-.27l1.16-2.96s.05-.08.09-.12c.04-.04.09-.05.16-.05h.59Z"/>
    <path class="cls-1" d="m19.79,35.34c0,.06-.01.12-.04.17-.02.05-.06.1-.1.14s-.09.07-.15.1c-.06.02-.11.04-.18.04s-.12-.01-.17-.04c-.05-.02-.1-.06-.14-.1-.04-.04-.07-.09-.1-.14-.02-.05-.04-.11-.04-.17s.01-.12.04-.18c.02-.05.06-.1.1-.14.04-.04.09-.07.14-.1.05-.02.11-.04.17-.04s.12.01.18.04.1.06.15.1.07.09.1.14c.02.05.04.11.04.18Zm-.11.97v3.21h-.68v-3.21h.68Z"/>
    <path class="cls-1" d="m21.4,39.57c-.27,0-.47-.08-.61-.23-.14-.15-.22-.36-.22-.63v-1.87h-.35s-.07-.01-.1-.04c-.03-.02-.04-.06-.04-.11v-.27l.52-.08.15-.93s.03-.07.05-.09c.02-.02.06-.03.1-.03h.35v1.05h.89v.49h-.89v1.82c0,.12.03.2.08.26.06.06.13.09.23.09.05,0,.1,0,.14-.02.04-.01.07-.03.1-.04.03-.02.05-.03.07-.04.02-.01.04-.02.06-.02.04,0,.07.02.09.06l.2.33c-.1.09-.23.16-.37.21-.14.05-.29.07-.44.07Z"/>
    <path class="cls-1" d="m22.44,36.76c.36-.34.79-.51,1.3-.51.18,0,.35.03.49.09.14.06.26.14.36.25.1.11.17.24.22.39.05.15.08.32.08.5v2.04h-.3c-.07,0-.11,0-.15-.03-.03-.02-.06-.06-.08-.12l-.07-.26c-.08.07-.16.14-.24.2s-.16.11-.25.15-.18.07-.27.09c-.1.02-.21.03-.32.03-.13,0-.25-.02-.36-.05-.11-.04-.21-.09-.29-.16-.08-.07-.15-.16-.19-.27-.05-.11-.07-.23-.07-.38,0-.12.03-.25.1-.36.07-.12.18-.22.33-.32.15-.09.35-.17.6-.23.25-.06.56-.09.92-.1v-.21c0-.23-.05-.4-.15-.52s-.24-.17-.43-.17c-.13,0-.24.02-.33.05-.09.03-.16.07-.23.1-.07.04-.12.07-.17.11-.05.03-.1.05-.16.05-.05,0-.09-.01-.12-.04-.03-.02-.06-.05-.08-.09l-.12-.22Zm1.79,1.36c-.24,0-.44.03-.61.06-.17.03-.3.07-.4.12-.1.05-.18.1-.22.17-.04.07-.07.14-.07.21s.01.14.04.19c.02.05.06.1.1.13.04.03.09.06.15.08s.12.02.19.02c.18,0,.33-.03.45-.1.13-.07.25-.16.37-.29v-.59Z"/>
    <path class="cls-1" d="m25.52,39.52v-3.21h.41c.09,0,.15.04.18.13l.04.28c.06-.07.12-.13.18-.18s.13-.1.2-.14c.07-.04.15-.07.23-.1.08-.02.17-.03.27-.03.1,0,.2.01.28.04s.16.07.23.13c.07.05.12.12.17.2.05.08.09.16.12.26.05-.11.11-.21.18-.29.07-.08.16-.14.25-.2.09-.05.19-.09.29-.11.1-.02.21-.04.31-.04.17,0,.33.03.46.08s.25.13.34.24.16.23.21.38c.05.15.07.32.07.52v2.04h-.68v-2.04c0-.23-.05-.4-.15-.51s-.24-.17-.43-.17c-.09,0-.17.01-.24.04-.08.03-.14.07-.2.13s-.1.13-.13.21c-.03.08-.05.18-.05.3v2.04h-.68v-2.04c0-.24-.05-.41-.14-.52-.09-.11-.23-.17-.42-.17-.13,0-.24.03-.35.1-.11.06-.21.15-.3.26v2.37h-.68Z"/>
    <path class="cls-1" d="m31.41,35.34c0,.06-.01.12-.04.17-.02.05-.06.1-.1.14s-.09.07-.15.1c-.06.02-.11.04-.18.04s-.12-.01-.17-.04c-.05-.02-.1-.06-.14-.1-.04-.04-.07-.09-.1-.14-.02-.05-.04-.11-.04-.17s.01-.12.04-.18c.02-.05.06-.1.1-.14.04-.04.09-.07.14-.1.05-.02.11-.04.17-.04s.12.01.18.04.1.06.15.1.07.09.1.14c.02.05.04.11.04.18Zm-.11.97v3.21h-.68v-3.21h.68Z"/>
    <path class="cls-1" d="m32.62,36.74c.07-.07.14-.14.22-.19.07-.06.15-.11.24-.15.08-.04.17-.07.27-.1.09-.02.2-.03.31-.03.18,0,.33.03.46.09s.25.14.34.25c.09.11.16.24.21.38.05.15.07.32.07.5v2.04h-.67v-2.04c0-.22-.05-.38-.15-.5-.1-.12-.25-.18-.46-.18-.15,0-.29.03-.42.1s-.25.16-.36.28v2.34h-.68v-3.21h.41c.09,0,.15.04.18.13l.05.29Z"/>
    <path class="cls-1" d="m39.27,35.76s-.05.07-.07.08c-.02.02-.06.03-.09.03-.04,0-.08-.02-.13-.05s-.11-.07-.18-.11c-.07-.04-.16-.08-.26-.11-.1-.04-.22-.05-.35-.05-.13,0-.24.02-.33.05-.1.03-.18.08-.24.13-.07.06-.11.12-.15.2-.03.08-.05.16-.05.25,0,.12.03.21.09.29.06.08.14.14.24.2s.21.1.34.14.26.08.39.13c.13.05.26.1.39.16.13.06.24.13.34.22.1.09.18.2.24.33.06.13.09.29.09.47,0,.2-.03.39-.1.57-.07.18-.17.33-.3.46-.13.13-.29.23-.48.31-.19.08-.41.11-.66.11-.15,0-.29-.01-.42-.04-.14-.03-.27-.07-.39-.12-.12-.05-.24-.11-.35-.19-.11-.07-.21-.16-.29-.25l.21-.35s.04-.05.07-.07.06-.03.1-.03c.05,0,.1.02.16.07.06.05.13.09.21.15.08.05.18.1.3.15.12.04.26.07.42.07.27,0,.47-.06.62-.19.15-.13.22-.31.22-.54,0-.13-.03-.23-.09-.31-.06-.08-.14-.15-.24-.2-.1-.05-.21-.1-.34-.14-.13-.04-.26-.08-.39-.12-.13-.04-.26-.09-.39-.15s-.24-.13-.34-.23c-.1-.09-.18-.21-.24-.35-.06-.14-.09-.31-.09-.51,0-.16.03-.32.1-.48s.16-.29.28-.41c.12-.12.27-.21.45-.29.18-.07.39-.11.62-.11.26,0,.5.04.72.12.22.08.4.2.56.35l-.18.35Z"/>
    <path class="cls-1" d="m40.67,36.69c.13-.13.28-.23.43-.31.16-.08.34-.12.55-.12.18,0,.33.03.46.09s.25.14.34.25c.09.11.16.24.21.38.05.15.07.32.07.5v2.04h-.67v-2.04c0-.22-.05-.38-.15-.5-.1-.12-.25-.18-.46-.18-.15,0-.29.03-.42.1s-.25.16-.36.28v2.34h-.68v-4.66h.68v1.83Z"/>
    <path class="cls-1" d="m44.76,36.26c.24,0,.45.04.64.12.19.08.36.19.49.33s.24.32.31.52c.07.2.11.43.11.69s-.04.48-.11.69c-.07.2-.18.38-.31.52s-.3.25-.49.33c-.19.08-.41.12-.64.12s-.45-.04-.65-.12c-.19-.08-.36-.19-.49-.33-.14-.14-.24-.32-.31-.52-.07-.2-.11-.43-.11-.69s.04-.48.11-.69c.07-.2.18-.38.31-.52.14-.14.3-.25.49-.33.19-.08.41-.12.65-.12Zm0,2.78c.29,0,.5-.1.65-.29s.21-.47.21-.83-.07-.64-.21-.84-.36-.29-.65-.29-.51.1-.65.29-.21.47-.21.84.07.64.21.83.36.29.65.29Z"/>
    <path class="cls-1" d="m47.77,39.57c-.27,0-.47-.08-.61-.23-.14-.15-.22-.36-.22-.63v-1.87h-.35s-.07-.01-.1-.04c-.03-.02-.04-.06-.04-.11v-.27l.52-.08.15-.93s.03-.07.05-.09c.02-.02.06-.03.1-.03h.35v1.05h.89v.49h-.89v1.82c0,.12.03.2.08.26.06.06.13.09.23.09.05,0,.1,0,.14-.02.04-.01.07-.03.1-.04.03-.02.05-.03.07-.04.02-.01.04-.02.06-.02.04,0,.07.02.09.06l.2.33c-.1.09-.23.16-.37.21-.14.05-.29.07-.44.07Z"/>
    <path class="cls-1" d="m50.8,36.89s-.04.05-.06.06-.05.02-.08.02c-.04,0-.07-.01-.12-.03-.04-.02-.09-.05-.15-.07s-.12-.05-.2-.07-.17-.03-.27-.03c-.08,0-.16,0-.23.03-.07.02-.13.05-.17.08-.05.04-.08.08-.11.13-.02.05-.04.1-.04.16,0,.08.02.14.07.19.05.05.11.09.18.13.08.04.16.07.26.1.1.03.19.06.3.09.1.03.2.07.3.12.1.04.18.1.26.16.08.06.14.14.18.23.05.09.07.2.07.33,0,.15-.03.29-.08.42-.05.13-.13.24-.24.33-.1.09-.24.17-.39.22s-.34.08-.54.08c-.11,0-.22-.01-.32-.03-.1-.02-.2-.05-.3-.08-.09-.03-.18-.08-.26-.12-.08-.05-.15-.1-.22-.16l.16-.26s.04-.06.07-.07.06-.03.1-.03c.04,0,.09.01.13.04s.09.06.15.09.13.06.21.09c.08.03.18.04.31.04.1,0,.19-.01.26-.04.07-.02.13-.06.18-.1.05-.04.08-.09.11-.14.02-.05.03-.11.03-.17,0-.08-.02-.15-.07-.2-.05-.05-.11-.1-.18-.14-.08-.04-.16-.07-.26-.1s-.2-.06-.3-.09c-.1-.03-.2-.07-.3-.12s-.18-.1-.26-.17c-.08-.07-.14-.15-.18-.25-.05-.1-.07-.22-.07-.36,0-.13.03-.25.08-.36.05-.12.13-.22.23-.31s.22-.16.37-.21c.15-.05.31-.08.5-.08.22,0,.41.03.59.1.18.07.32.16.44.28l-.15.25Z"/>
  </g>
  <g>
    <path class="cls-1" d="m12.17,27.18c.06,0,.11.02.15.07l.42.46c-.32.37-.71.67-1.17.88-.46.21-1.02.31-1.67.31-.56,0-1.08-.1-1.54-.29-.46-.2-.86-.47-1.18-.83-.33-.35-.58-.78-.76-1.27-.18-.49-.27-1.04-.27-1.63s.09-1.14.28-1.63c.19-.5.45-.92.79-1.28.34-.36.75-.63,1.22-.83s1-.29,1.57-.29,1.06.09,1.48.27c.43.18.81.42,1.13.73l-.35.49s-.05.07-.09.09c-.03.02-.08.04-.14.04-.07,0-.15-.04-.24-.11-.1-.07-.22-.15-.37-.24-.15-.09-.35-.17-.58-.24-.23-.07-.52-.11-.85-.11-.41,0-.78.07-1.12.21-.34.14-.63.35-.87.61-.24.27-.43.59-.57.98-.14.39-.2.82-.2,1.3s.07.93.21,1.31.33.71.58.98c.24.27.53.47.86.61.33.14.69.21,1.08.21.23,0,.45-.01.64-.04s.36-.07.52-.13c.16-.06.31-.13.45-.22.14-.09.27-.2.41-.32.06-.05.12-.08.19-.08Z"/>
    <path class="cls-1" d="m15.72,23.15c.41,0,.77.07,1.1.2.33.13.6.33.84.58s.41.55.53.91c.12.35.18.75.18,1.18s-.06.84-.18,1.19c-.12.35-.3.65-.53.9s-.51.44-.84.58c-.33.13-.69.2-1.1.2s-.78-.07-1.11-.2-.61-.33-.84-.58c-.23-.25-.41-.55-.53-.9-.12-.35-.18-.75-.18-1.19s.06-.83.18-1.18c.12-.35.3-.66.53-.91.23-.25.51-.44.84-.58.33-.14.7-.2,1.11-.2Zm0,4.97c.55,0,.96-.18,1.23-.55.27-.37.41-.88.41-1.54s-.14-1.18-.41-1.55c-.27-.37-.68-.55-1.23-.55-.28,0-.52.05-.73.14-.21.1-.38.23-.52.41-.14.18-.24.4-.31.66s-.1.56-.1.89c0,.66.14,1.17.41,1.54.27.37.69.55,1.25.55Z"/>
    <path class="cls-1" d="m27.14,30.44h-.88c-.13,0-.25-.02-.35-.05-.1-.04-.2-.1-.28-.19l-1.38-1.51c-.42.14-.87.21-1.36.21-.58,0-1.11-.1-1.58-.29-.48-.2-.89-.47-1.23-.83-.34-.36-.6-.78-.79-1.27-.19-.49-.28-1.04-.28-1.62s.09-1.13.28-1.62.45-.92.79-1.28c.34-.36.75-.64,1.23-.83.48-.2,1-.3,1.58-.3s1.11.1,1.59.3c.48.2.89.48,1.23.83.34.36.6.78.79,1.28s.28,1.04.28,1.62c0,.37-.04.72-.11,1.06-.08.33-.18.64-.33.93s-.32.55-.52.78c-.21.24-.44.44-.69.61l2.02,2.18Zm-7.05-5.57c0,.48.07.92.2,1.3s.32.71.56.97c.24.27.54.47.88.61s.73.21,1.15.21.81-.07,1.16-.21.64-.34.88-.61c.24-.27.43-.59.56-.97s.2-.82.2-1.3-.07-.92-.2-1.3c-.13-.38-.32-.71-.56-.98-.24-.27-.54-.47-.88-.61-.34-.14-.73-.21-1.16-.21s-.8.07-1.15.21c-.34.14-.64.35-.88.61-.24.27-.43.59-.56.98-.13.39-.2.82-.2,1.3Z"/>
    <path class="cls-1" d="m32.61,28.06v.75h-4.22v-.75h1.69v-5.37c0-.16,0-.32.02-.49l-1.4,1.2s-.1.07-.14.07c-.05,0-.09,0-.13,0-.04,0-.08-.02-.11-.04-.03-.02-.06-.05-.08-.07l-.31-.42,2.35-2.03h.8v7.15h1.55Z"/>
    <path class="cls-1" d="m39.16,24.87c0,.69-.07,1.29-.22,1.79-.15.5-.35.92-.61,1.25-.26.33-.56.58-.91.74s-.73.24-1.12.24-.78-.08-1.12-.24c-.35-.16-.65-.41-.9-.74-.26-.33-.46-.75-.6-1.25-.15-.5-.22-1.1-.22-1.79s.07-1.29.22-1.79c.15-.51.35-.92.6-1.26.26-.33.56-.58.9-.74.35-.16.72-.24,1.12-.24s.77.08,1.12.24c.35.16.65.41.91.74.26.33.46.75.61,1.26s.22,1.1.22,1.79Zm-1.02,0c0-.6-.05-1.11-.15-1.52-.1-.41-.24-.74-.41-.99-.17-.25-.37-.43-.59-.54-.22-.11-.46-.16-.7-.16s-.48.05-.7.16c-.22.11-.42.29-.59.54-.17.25-.3.58-.4.99-.1.41-.15.91-.15,1.52s.05,1.11.15,1.51c.1.41.24.74.4.98s.36.43.59.54c.22.11.46.16.7.16s.47-.05.7-.16c.22-.11.42-.29.59-.54s.31-.58.41-.98c.1-.41.15-.91.15-1.51Z"/>
    <path class="cls-1" d="m43.83,21.8v2.76h3.24v.87h-3.24v3.39h-1.07v-7.88h4.86v.87h-3.79Z"/>
    <path class="cls-1" d="m47.56,24.02c.31-.3.64-.52,1-.67.36-.15.75-.22,1.18-.22.31,0,.59.05.83.15.24.1.45.25.61.43.17.18.29.41.37.67.08.26.13.55.13.86v3.56h-.43c-.1,0-.17-.02-.22-.05-.05-.03-.09-.09-.12-.18l-.11-.53c-.15.13-.29.25-.43.36s-.29.19-.44.26c-.15.07-.32.13-.49.17-.17.04-.37.06-.58.06s-.42-.03-.61-.09-.36-.15-.5-.27-.25-.27-.34-.46c-.08-.18-.12-.4-.12-.66,0-.22.06-.43.18-.64s.32-.38.59-.54c.27-.16.62-.29,1.06-.39.44-.1.97-.16,1.61-.17v-.43c0-.43-.09-.76-.28-.98-.19-.22-.46-.33-.82-.33-.24,0-.44.03-.61.09-.16.06-.3.13-.42.2-.12.08-.22.14-.31.2-.09.06-.17.09-.26.09-.07,0-.12-.02-.17-.05-.05-.04-.09-.08-.12-.13l-.18-.31Zm3.16,2.28c-.45.02-.83.05-1.15.11-.32.06-.58.13-.78.22s-.34.2-.43.32c-.09.12-.13.26-.13.42s.02.27.07.38c.05.11.11.19.2.26.08.07.18.12.29.15.11.03.23.05.36.05.17,0,.33-.02.47-.05.14-.03.28-.08.4-.15s.25-.14.36-.24c.12-.09.23-.2.34-.31v-1.16Z"/>
    <path class="cls-1" d="m52.89,28.81v-5.57h.59c.14,0,.23.07.26.2l.07.57c.21-.25.44-.46.69-.62.26-.16.55-.24.89-.24.37,0,.68.1.91.31.23.21.4.49.5.85.08-.2.18-.38.31-.52s.27-.27.43-.36c.16-.1.33-.17.5-.21s.36-.07.54-.07c.29,0,.55.05.78.14.23.09.42.23.58.41.16.18.28.4.37.66s.13.56.13.9v3.55h-.98v-3.55c0-.44-.1-.77-.29-.99-.19-.23-.47-.34-.83-.34-.16,0-.31.03-.46.08-.15.06-.27.14-.38.25-.11.11-.2.25-.26.42-.06.17-.1.36-.1.58v3.55h-.98v-3.55c0-.45-.09-.78-.27-1-.18-.22-.44-.33-.79-.33-.24,0-.47.07-.67.2-.21.13-.39.31-.57.53v4.15h-.98Z"/>
    <path class="cls-1" d="m62.91,21.49c0,.1-.02.18-.06.27-.04.08-.09.16-.15.22-.06.06-.14.12-.23.15-.09.04-.18.05-.27.05s-.18-.02-.27-.05c-.08-.04-.16-.09-.22-.15-.06-.06-.11-.14-.15-.22-.04-.08-.05-.17-.05-.27s.02-.19.05-.27.09-.16.15-.23c.06-.06.13-.11.22-.15.08-.04.17-.05.27-.05s.19.02.27.05c.09.04.16.09.23.15.06.06.12.14.15.23.04.09.06.18.06.27Zm-.21,1.75v5.57h-.98v-5.57h.98Z"/>
    <path class="cls-1" d="m65.04,20.71v8.1h-.98v-8.1h.98Z"/>
    <path class="cls-1" d="m71.16,23.24l-3.11,7.21c-.03.07-.07.13-.12.18-.05.04-.13.07-.23.07h-.73l1.02-2.21-2.3-5.25h.85c.08,0,.15.02.2.06.05.04.08.09.1.14l1.49,3.51c.06.15.11.32.15.48.05-.17.11-.33.17-.49l1.45-3.5c.02-.06.06-.11.11-.15.05-.04.11-.06.18-.06h.78Z"/>
  </g>
</svg>