<?xml version="1.0" encoding="UTF-8"?>
<svg id="Layer_1" data-name="Layer 1" xmlns="http://www.w3.org/2000/svg" viewBox="0 0 87.75 87.75">
  <defs>
    <style>
      .cls-1 {
        fill: #0b20b6;
        stroke-width: 0px;
      }
    </style>
  </defs>
  <rect class="cls-1" x=".25" y=".25" width="29.08" height="3.49"/>
  <path class="cls-1" d="M87.75,87.75H0V0h87.75v87.75ZM.5,87.25h86.75V.5H.5v86.75Z"/>
  <rect class="cls-1" x="6.36" y="47.78" width="75.03" height=".5"/>
  <g>
    <path class="cls-1" d="M12.66,20.96v7.88h-.53c-.08,0-.15-.01-.21-.04s-.11-.08-.17-.15l-4.56-5.94c0,.09.01.18.02.27v5.87h-.94v-7.88h.67s.06.01.09.03c.03.01.05.03.08.05.03.02.05.05.08.09l4.56,5.93c0-.1-.01-.19-.02-.28s0-.18,0-.26v-5.58h.94,0Z"/>
    <path class="cls-1" d="M20.81,28.84h-.83c-.1,0-.17-.02-.23-.07s-.1-.11-.13-.18l-.74-1.9h-3.54l-.74,1.9c-.02.07-.06.12-.13.18s-.14.08-.23.08h-.82l3.15-7.88h1.08l3.15,7.88h0ZM18.59,25.91l-1.24-3.21c-.04-.1-.08-.21-.12-.33-.04-.13-.08-.26-.12-.4-.08.3-.16.54-.24.74l-1.24,3.2h2.96Z"/>
    <path class="cls-1" d="M28.4,24.91c0,.59-.09,1.13-.28,1.61s-.45.9-.79,1.24c-.34.35-.75.61-1.23.8s-1.01.28-1.59.28h-2.94v-7.88h2.94c.58,0,1.11.09,1.59.28s.89.46,1.23.8c.34.35.6.76.79,1.25.19.48.28,1.02.28,1.61h0ZM27.31,24.91c0-.48-.07-.92-.2-1.3-.13-.38-.32-.7-.56-.97-.24-.26-.54-.47-.88-.6-.34-.14-.73-.21-1.15-.21h-1.88v6.15h1.88c.43,0,.81-.07,1.15-.21s.64-.34.88-.6.43-.58.56-.97c.13-.38.2-.81.2-1.3h0Z"/>
    <path class="cls-1" d="M34.49,25.52h-2.24v2.37h-.8v-2.37h-2.23v-.74h2.23v-2.35h.8v2.35h2.24v.74Z"/>
  </g>
  <g>
    <path class="cls-1" d="M7.1,39.52h-.74v-4.53h.74s0,4.53,0,4.53Z"/>
    <path class="cls-1" d="M12.84,34.99v4.53h-.65v-3.28c0-.06,0-.12.01-.18l-1.46,2.69c-.06.11-.14.17-.26.17h-.1c-.12,0-.21-.06-.26-.17l-1.48-2.7c0,.06.01.12.01.18v3.28h-.65v-4.53h.55c.06,0,.12,0,.15.02s.07.05.1.11l1.45,2.63c.03.06.06.12.09.19.03.06.05.13.08.2.02-.07.05-.13.08-.2s.06-.13.09-.19l1.43-2.63c.03-.06.06-.09.1-.11.04,0,.09-.02.15-.02h.57Z"/>
    <path class="cls-1" d="M18.72,34.99l-1.84,4.53h-.66l-1.84-4.53h.59c.06,0,.12.02.16.05s.07.07.09.12l1.17,2.96c.06.17.12.36.17.57.02-.11.05-.21.07-.3.03-.1.05-.19.09-.27l1.16-2.96s.05-.08.09-.12c.04-.04.09-.05.16-.05h.59Z"/>
    <path class="cls-1" d="M19.79,35.34c0,.06-.01.12-.04.17-.02.05-.06.1-.1.14s-.09.07-.15.1c-.06.02-.11.04-.18.04s-.12,0-.17-.04c-.05-.02-.1-.06-.14-.1-.04-.04-.07-.09-.1-.14-.02-.05-.04-.11-.04-.17s.01-.12.04-.18c.02-.05.06-.1.1-.14s.09-.07.14-.1c.05-.02.11-.04.17-.04s.12,0,.18.04.1.06.15.1.07.09.1.14c.02.05.04.11.04.18ZM19.68,36.31v3.21h-.68v-3.21h.68Z"/>
    <path class="cls-1" d="M21.4,39.57c-.27,0-.47-.08-.61-.23-.14-.15-.22-.36-.22-.63v-1.87h-.35s-.07,0-.1-.04c-.03-.02-.04-.06-.04-.11v-.27l.52-.08.15-.93s.03-.07.05-.09c.02-.02.06-.03.1-.03h.35v1.05h.89v.49h-.89v1.82c0,.12.03.2.08.26.06.06.13.09.23.09.05,0,.1,0,.14-.02.04,0,.07-.03.1-.04.03-.02.05-.03.07-.04.02,0,.04-.02.06-.02.04,0,.07.02.09.06l.2.33c-.1.09-.23.16-.37.21-.14.05-.29.07-.44.07v.02Z"/>
    <path class="cls-1" d="M22.43,36.76c.36-.34.79-.51,1.3-.51.18,0,.35.03.49.09s.26.14.36.25.17.24.22.39c.05.15.08.32.08.5v2.04h-.3c-.07,0-.11,0-.15-.03-.03-.02-.06-.06-.08-.12l-.07-.26c-.08.07-.16.14-.24.2s-.16.11-.25.15-.18.07-.27.09c-.1.02-.21.03-.32.03-.13,0-.25-.02-.36-.05-.11-.04-.21-.09-.29-.16-.08-.07-.15-.16-.19-.27-.05-.11-.07-.23-.07-.38,0-.12.03-.25.1-.36.07-.12.18-.22.33-.32.15-.09.35-.17.6-.23s.56-.09.92-.1v-.21c0-.23-.05-.4-.15-.52s-.24-.17-.43-.17c-.13,0-.24.02-.33.05s-.16.07-.23.1c-.07.04-.12.07-.17.11-.05.03-.1.05-.16.05-.05,0-.09,0-.12-.04-.03-.02-.06-.05-.08-.09l-.12-.22h-.02ZM24.22,38.12c-.24,0-.44.03-.61.06-.17.03-.3.07-.4.12s-.18.1-.22.17c-.04.07-.07.14-.07.21s.01.14.04.19c.02.05.06.1.1.13.04.03.09.06.15.08s.12.02.19.02c.18,0,.33-.03.45-.1.13-.07.25-.16.37-.29,0,0,0-.59,0-.59Z"/>
    <path class="cls-1" d="M25.52,39.52v-3.21h.41c.09,0,.15.04.18.13l.04.28c.06-.07.12-.13.18-.18s.13-.1.2-.14c.07-.04.15-.07.23-.1.08-.02.17-.03.27-.03s.2,0,.28.04.16.07.23.13c.07.05.12.12.17.2s.09.16.12.26c.05-.11.11-.21.18-.29s.16-.14.25-.2c.09-.05.19-.09.29-.11s.21-.04.31-.04c.17,0,.33.03.46.08s.25.13.34.24.16.23.21.38.07.32.07.52v2.04h-.68v-2.04c0-.23-.05-.4-.15-.51s-.24-.17-.43-.17c-.09,0-.17,0-.24.04-.08.03-.14.07-.2.13s-.1.13-.13.21c-.03.08-.05.18-.05.3v2.04h-.68v-2.04c0-.24-.05-.41-.14-.52s-.23-.17-.42-.17c-.13,0-.24.03-.35.1-.11.06-.21.15-.3.26v2.37h-.68.03Z"/>
    <path class="cls-1" d="M31.41,35.34c0,.06-.01.12-.04.17-.02.05-.06.1-.1.14s-.09.07-.15.1c-.06.02-.11.04-.18.04s-.12,0-.17-.04c-.05-.02-.1-.06-.14-.1-.04-.04-.07-.09-.1-.14-.02-.05-.04-.11-.04-.17s.01-.12.04-.18c.02-.05.06-.1.1-.14s.09-.07.14-.1c.05-.02.11-.04.17-.04s.12,0,.18.04.1.06.15.1.07.09.1.14c.02.05.04.11.04.18ZM31.3,36.31v3.21h-.68v-3.21h.68Z"/>
    <path class="cls-1" d="M32.62,36.74c.07-.07.14-.14.22-.19.07-.06.15-.11.24-.15.08-.04.17-.07.27-.1.09-.02.2-.03.31-.03.18,0,.33.03.46.09s.25.14.34.25.16.24.21.38c.05.15.07.32.07.5v2.04h-.67v-2.04c0-.22-.05-.38-.15-.5-.1-.12-.25-.18-.46-.18-.15,0-.29.03-.42.1s-.25.16-.36.28v2.34h-.68v-3.21h.41c.09,0,.15.04.18.13l.05.29h-.02Z"/>
    <path class="cls-1" d="M39.27,35.76s-.05.07-.07.08c-.02.02-.06.03-.09.03-.04,0-.08-.02-.13-.05s-.11-.07-.18-.11-.16-.08-.26-.11c-.1-.04-.22-.05-.35-.05s-.24.02-.33.05c-.1.03-.18.08-.24.13-.07.06-.11.12-.15.2-.03.08-.05.16-.05.25,0,.12.03.21.09.29s.14.14.24.2.21.1.34.14.26.08.39.13.26.1.39.16.24.13.34.22.18.2.24.33.09.29.09.47c0,.2-.03.39-.1.57s-.17.33-.3.46c-.13.13-.29.23-.48.31s-.41.11-.66.11c-.15,0-.29,0-.42-.04-.14-.03-.27-.07-.39-.12s-.24-.11-.35-.19c-.11-.07-.21-.16-.29-.25l.21-.35s.04-.05.07-.07.06-.03.1-.03c.05,0,.1.02.16.07s.13.09.21.15c.08.05.18.1.3.15.12.04.26.07.42.07.27,0,.47-.06.62-.19.15-.13.22-.31.22-.54,0-.13-.03-.23-.09-.31s-.14-.15-.24-.2c-.1-.05-.21-.1-.34-.14s-.26-.08-.39-.12c-.13-.04-.26-.09-.39-.15s-.24-.13-.34-.23c-.1-.09-.18-.21-.24-.35s-.09-.31-.09-.51c0-.16.03-.32.1-.48s.16-.29.28-.41.27-.21.45-.29c.18-.07.39-.11.62-.11.26,0,.5.04.72.12.22.08.4.2.56.35l-.18.35h-.02Z"/>
    <path class="cls-1" d="M40.67,36.69c.13-.13.28-.23.43-.31.16-.08.34-.12.55-.12.18,0,.33.03.46.09s.25.14.34.25.16.24.21.38c.05.15.07.32.07.5v2.04h-.67v-2.04c0-.22-.05-.38-.15-.5-.1-.12-.25-.18-.46-.18-.15,0-.29.03-.42.1s-.25.16-.36.28v2.34h-.68v-4.66h.68v1.83Z"/>
    <path class="cls-1" d="M44.76,36.26c.24,0,.45.04.64.12.19.08.36.19.49.33s.24.32.31.52.11.43.11.69-.04.48-.11.69c-.07.2-.18.38-.31.52s-.3.25-.49.33c-.19.08-.41.12-.64.12s-.45-.04-.65-.12c-.19-.08-.36-.19-.49-.33-.14-.14-.24-.32-.31-.52s-.11-.43-.11-.69.04-.48.11-.69c.07-.2.18-.38.31-.52.14-.14.3-.25.49-.33.19-.08.41-.12.65-.12ZM44.76,39.04c.29,0,.5-.1.65-.29s.21-.47.21-.83-.07-.64-.21-.84-.36-.29-.65-.29-.51.1-.65.29-.21.47-.21.84.07.64.21.83.36.29.65.29Z"/>
    <path class="cls-1" d="M47.77,39.57c-.27,0-.47-.08-.61-.23-.14-.15-.22-.36-.22-.63v-1.87h-.35s-.07,0-.1-.04c-.03-.02-.04-.06-.04-.11v-.27l.52-.08.15-.93s.03-.07.05-.09.06-.03.1-.03h.35v1.05h.89v.49h-.89v1.82c0,.12.03.2.08.26.06.06.13.09.23.09.05,0,.1,0,.14-.02.04,0,.07-.03.1-.04.03-.02.05-.03.07-.04.02,0,.04-.02.06-.02.04,0,.07.02.09.06l.2.33c-.1.09-.23.16-.37.21s-.29.07-.44.07v.02Z"/>
    <path class="cls-1" d="M50.8,36.89s-.04.05-.06.06-.05.02-.08.02c-.04,0-.07,0-.12-.03-.04-.02-.09-.05-.15-.07s-.12-.05-.2-.07-.17-.03-.27-.03c-.08,0-.16,0-.23.03-.07.02-.13.05-.17.08-.05.04-.08.08-.11.13-.02.05-.04.1-.04.16,0,.08.02.14.07.19s.11.09.18.13c.08.04.16.07.26.1s.19.06.3.09c.1.03.2.07.3.12.1.04.18.1.26.16.08.06.14.14.18.23.05.09.07.2.07.33,0,.15-.03.29-.08.42-.05.13-.13.24-.24.33-.1.09-.24.17-.39.22s-.34.08-.54.08c-.11,0-.22,0-.32-.03s-.2-.05-.3-.08c-.09-.03-.18-.08-.26-.12-.08-.05-.15-.1-.22-.16l.16-.26s.04-.06.07-.07.06-.03.1-.03.09,0,.13.04.09.06.15.09.13.06.21.09c.08.03.18.04.31.04.1,0,.19,0,.26-.04.07-.02.13-.06.18-.1.05-.04.08-.09.11-.14.02-.05.03-.11.03-.17,0-.08-.02-.15-.07-.2s-.11-.1-.18-.14c-.08-.04-.16-.07-.26-.1s-.2-.06-.3-.09-.2-.07-.3-.12-.18-.1-.26-.17c-.08-.07-.14-.15-.18-.25-.05-.1-.07-.22-.07-.36,0-.13.03-.25.08-.36.05-.12.13-.22.23-.31s.22-.16.37-.21c.15-.05.31-.08.5-.08.22,0,.41.03.59.1s.32.16.44.28l-.15.25v.02Z"/>
  </g>
  <path class="cls-1" d="M70.96,80.91c-5.48,0-9.94-4.46-9.94-9.94s4.46-9.94,9.94-9.94,9.95,4.46,9.95,9.94-4.46,9.94-9.95,9.94ZM70.96,61.52c-5.21,0-9.44,4.24-9.44,9.44s4.24,9.44,9.44,9.44,9.45-4.24,9.45-9.44-4.24-9.44-9.45-9.44Z"/>
  <polygon class="cls-1" points="67.16 80.17 66.8 79.82 74.96 71.31 65.75 72.07 74.39 61.86 74.77 62.19 66.91 71.48 76.24 70.7 67.16 80.17"/>
  <g>
    <path class="cls-1" d="M72.18,11.65v.81h-3.92v-.81h1.5v-4.5c0-.16,0-.32.01-.49l-1.15.97s-.1.07-.15.08c-.05.01-.1.01-.14,0-.04-.01-.09-.03-.12-.05-.04-.02-.06-.05-.08-.07l-.33-.47,2.17-1.86h.87v6.38h1.35Z"/>
    <path class="cls-1" d="M77.77,9.81v.62c0,.06-.02.11-.06.15-.04.04-.1.07-.17.07h-.76v1.82h-.93v-1.82h-3.11c-.08,0-.14-.02-.2-.07s-.09-.1-.11-.17l-.11-.55,3.45-4.59h1.01v4.53h.99ZM75.84,9.81v-2.62c0-.21.01-.44.04-.69l-2.41,3.31h2.37Z"/>
    <path class="cls-1" d="M82.63,11.45c.12,0,.21.03.27.1s.1.16.1.26v.65h-4.86v-.36c0-.07.02-.15.04-.23s.08-.15.14-.22l2.23-2.24c.19-.19.36-.37.51-.54.15-.17.27-.35.38-.52s.18-.35.24-.53c.05-.18.08-.37.08-.56s-.03-.36-.09-.5-.14-.26-.24-.36-.22-.17-.36-.21c-.14-.05-.3-.07-.47-.07s-.31.02-.45.07c-.14.05-.26.11-.37.19-.11.08-.2.18-.27.3-.07.11-.12.24-.16.38-.05.14-.11.23-.19.27-.08.05-.19.06-.34.03l-.56-.1c.05-.34.14-.64.28-.89.14-.26.31-.47.52-.64.21-.17.45-.3.72-.39.27-.09.56-.13.88-.13s.61.05.88.14.5.23.69.4c.2.17.35.39.46.64.11.25.16.53.16.84,0,.27-.04.51-.12.74-.08.23-.18.44-.32.65s-.29.41-.47.6c-.18.2-.37.39-.56.59l-1.74,1.78c.14-.04.29-.07.43-.09s.28-.04.41-.04h2.11Z"/>
  </g>
</svg>