<?xml version="1.0" encoding="UTF-8"?>
<svg id="Layer_1" data-name="Layer 1" xmlns="http://www.w3.org/2000/svg" viewBox="0 0 87.75 87.75">
  <defs>
    <style>
      .cls-1 {
        fill: #0b20b6;
        stroke-width: 0px;
      }
    </style>
  </defs>
  <rect class="cls-1" x=".25" y=".25" width="29.08" height="3.49"/>
  <path class="cls-1" d="m87.75,87.75H0V0h87.75v87.75Zm-87.25-.5h86.75V.5H.5v86.75Z"/>
  <path class="cls-1" d="m70.96,80.91c-5.48,0-9.94-4.46-9.94-9.94s4.46-9.94,9.94-9.94,9.95,4.46,9.95,9.94-4.46,9.94-9.95,9.94Zm0-19.39c-5.21,0-9.44,4.24-9.44,9.44s4.24,9.44,9.44,9.44,9.45-4.24,9.45-9.44-4.24-9.44-9.45-9.44Z"/>
  <polygon class="cls-1" points="67.16 80.17 66.8 79.82 74.96 71.31 65.75 72.07 74.39 61.86 74.77 62.19 66.91 71.48 76.24 70.7 67.16 80.17"/>
  <rect class="cls-1" x="6.36" y="47.78" width="75.03" height=".5"/>
  <g>
    <path class="cls-1" d="m7.1,39.52h-.74v-4.53h.74v4.53Z"/>
    <path class="cls-1" d="m12.84,34.99v4.53h-.65v-3.11c0-.05,0-.11,0-.17,0-.06,0-.12.01-.18l-1.46,2.69c-.06.11-.14.17-.26.17h-.1c-.12,0-.21-.06-.26-.17l-1.48-2.7c0,.06.01.12.01.18,0,.06,0,.12,0,.17v3.11h-.65v-4.53h.55c.06,0,.12,0,.15.02.04.01.07.05.1.11l1.45,2.63c.03.06.06.12.09.19.03.06.05.13.08.2.02-.07.05-.13.08-.2.03-.07.06-.13.09-.19l1.43-2.63c.03-.06.06-.09.1-.11.04-.01.09-.02.15-.02h.55Z"/>
    <path class="cls-1" d="m18.73,34.99l-1.84,4.53h-.66l-1.84-4.53h.59c.07,0,.12.02.16.05s.07.07.09.12l1.17,2.96c.06.17.12.36.17.57.02-.11.05-.21.07-.3.03-.1.05-.19.09-.27l1.16-2.96s.05-.08.09-.12c.04-.04.09-.05.16-.05h.59Z"/>
    <path class="cls-1" d="m19.79,35.34c0,.06-.01.12-.04.17-.02.05-.06.1-.1.14s-.09.07-.15.1c-.06.02-.11.04-.18.04s-.12-.01-.17-.04c-.05-.02-.1-.06-.14-.1s-.07-.09-.1-.14-.04-.11-.04-.17.01-.12.04-.18c.02-.05.06-.1.1-.14s.09-.07.14-.1c.05-.02.11-.04.17-.04s.12.01.18.04.1.06.15.1.08.09.1.14c.02.05.04.11.04.18Zm-.11.97v3.21h-.68v-3.21h.68Z"/>
    <path class="cls-1" d="m21.4,39.57c-.27,0-.47-.08-.61-.23-.14-.15-.22-.36-.22-.63v-1.87h-.35s-.07-.01-.1-.04-.04-.06-.04-.11v-.27l.52-.08.15-.93s.03-.07.05-.09c.03-.02.06-.03.1-.03h.35v1.05h.89v.49h-.89v1.82c0,.12.03.2.08.26.06.06.13.09.23.09.05,0,.1,0,.13-.02s.07-.03.1-.04.05-.03.07-.04c.02-.01.04-.02.06-.02.04,0,.07.02.09.06l.2.33c-.11.09-.23.16-.37.21-.14.05-.29.07-.44.07Z"/>
    <path class="cls-1" d="m22.44,36.76c.36-.34.79-.51,1.3-.51.18,0,.35.03.49.09.14.06.26.14.36.25.1.11.17.24.22.39.05.15.08.32.08.5v2.04h-.3c-.07,0-.12,0-.15-.03-.03-.02-.06-.06-.08-.12l-.07-.26c-.08.07-.16.14-.24.2-.08.06-.16.11-.25.15s-.18.07-.27.09-.21.03-.32.03c-.13,0-.25-.02-.36-.05-.11-.04-.21-.09-.29-.16-.08-.07-.15-.16-.19-.27-.05-.11-.07-.23-.07-.38,0-.12.03-.25.1-.36.07-.12.18-.22.33-.32.15-.09.35-.17.6-.23.25-.06.56-.09.92-.1v-.21c0-.23-.05-.4-.15-.52s-.24-.17-.43-.17c-.13,0-.24.02-.33.05-.09.03-.16.07-.23.1-.07.04-.12.07-.17.11-.05.03-.1.05-.16.05-.05,0-.08-.01-.12-.04-.03-.02-.06-.05-.08-.09l-.12-.22Zm1.79,1.36c-.24,0-.44.03-.61.06-.17.03-.3.07-.4.12-.1.05-.18.1-.22.17-.04.07-.07.14-.07.21s.01.14.04.19c.02.05.06.1.1.13.04.03.09.06.15.08s.12.02.19.02c.18,0,.33-.03.46-.1.13-.07.25-.16.37-.29v-.59Z"/>
    <path class="cls-1" d="m25.52,39.52v-3.21h.41c.09,0,.15.04.18.13l.04.28c.06-.07.12-.13.18-.18.06-.06.13-.1.2-.14.07-.04.15-.07.23-.1.08-.02.17-.03.27-.03.1,0,.2.01.28.04s.16.07.23.13.12.12.17.2c.05.08.09.16.12.26.05-.11.11-.21.18-.29s.16-.14.25-.2c.09-.05.19-.09.29-.11s.21-.04.31-.04c.17,0,.33.03.46.08.13.05.25.13.34.24.09.1.16.23.21.38.05.15.07.32.07.52v2.04h-.68v-2.04c0-.23-.05-.4-.15-.51s-.24-.17-.43-.17c-.09,0-.17.01-.24.04-.08.03-.14.07-.2.13s-.1.13-.13.21c-.03.08-.05.18-.05.3v2.04h-.68v-2.04c0-.24-.05-.41-.14-.52s-.23-.17-.42-.17c-.13,0-.24.03-.35.1-.11.06-.21.15-.3.26v2.37h-.68Z"/>
    <path class="cls-1" d="m31.41,35.34c0,.06-.01.12-.04.17-.02.05-.06.1-.1.14s-.09.07-.15.1c-.06.02-.11.04-.18.04s-.12-.01-.17-.04c-.05-.02-.1-.06-.14-.1s-.07-.09-.1-.14-.04-.11-.04-.17.01-.12.04-.18c.02-.05.06-.1.1-.14s.09-.07.14-.1c.05-.02.11-.04.17-.04s.12.01.18.04.1.06.15.1.08.09.1.14c.02.05.04.11.04.18Zm-.11.97v3.21h-.68v-3.21h.68Z"/>
    <path class="cls-1" d="m32.62,36.74c.07-.07.14-.14.21-.19s.15-.11.24-.15c.08-.04.17-.07.27-.1.09-.02.2-.03.31-.03.18,0,.33.03.46.09.13.06.25.14.34.25.09.11.16.24.21.38.05.15.07.32.07.5v2.04h-.67v-2.04c0-.22-.05-.38-.15-.5-.1-.12-.25-.18-.46-.18-.15,0-.29.03-.42.1s-.25.16-.36.28v2.34h-.68v-3.21h.41c.09,0,.15.04.18.13l.05.29Z"/>
    <path class="cls-1" d="m39.27,35.76s-.05.07-.07.08c-.02.02-.06.03-.09.03-.04,0-.08-.02-.13-.05-.05-.03-.11-.07-.18-.11-.07-.04-.16-.08-.26-.11-.1-.04-.22-.05-.35-.05-.12,0-.24.02-.33.05-.09.03-.17.08-.24.13s-.11.12-.15.2c-.03.08-.05.16-.05.25,0,.12.03.21.09.29.06.08.14.14.24.2s.21.1.34.14.26.08.39.13c.13.05.26.1.39.16.13.06.24.13.34.22.1.09.18.2.24.33.06.13.09.29.09.47,0,.2-.04.39-.1.57-.07.18-.17.33-.3.46-.13.13-.29.23-.49.31-.19.08-.41.11-.66.11-.15,0-.29-.01-.42-.04s-.27-.07-.39-.12c-.12-.05-.24-.11-.35-.19s-.21-.16-.29-.25l.21-.35s.04-.05.07-.07.06-.03.1-.03c.05,0,.1.02.16.07.06.05.13.09.21.15.08.05.18.1.3.15s.26.07.42.07c.27,0,.47-.06.62-.19s.22-.31.22-.54c0-.13-.03-.23-.09-.31-.06-.08-.14-.15-.24-.2s-.21-.1-.34-.14c-.13-.04-.26-.08-.39-.12s-.26-.09-.39-.15-.24-.13-.34-.23c-.1-.09-.18-.21-.24-.35-.06-.14-.09-.31-.09-.51,0-.16.03-.32.1-.48.06-.15.16-.29.28-.41.12-.12.27-.21.45-.29.18-.07.39-.11.62-.11.26,0,.5.04.72.12s.4.2.56.35l-.18.35Z"/>
    <path class="cls-1" d="m40.68,36.69c.13-.13.28-.23.43-.31.16-.08.34-.12.55-.12.18,0,.33.03.46.09.13.06.25.14.34.25.09.11.16.24.21.38.05.15.07.32.07.5v2.04h-.67v-2.04c0-.22-.05-.38-.15-.5-.1-.12-.25-.18-.46-.18-.15,0-.29.03-.42.1s-.25.16-.36.28v2.34h-.68v-4.66h.68v1.83Z"/>
    <path class="cls-1" d="m44.76,36.26c.24,0,.45.04.64.12.19.08.36.19.49.33.13.14.24.32.31.52.07.2.11.43.11.69s-.04.48-.11.69c-.07.2-.18.38-.31.52-.14.14-.3.25-.49.33-.19.08-.41.12-.64.12s-.45-.04-.65-.12c-.19-.08-.36-.19-.49-.33s-.24-.32-.31-.52c-.07-.2-.11-.43-.11-.69s.04-.48.11-.69c.07-.2.18-.38.31-.52s.3-.25.49-.33c.19-.08.41-.12.65-.12Zm0,2.78c.29,0,.5-.1.65-.29s.21-.47.21-.83-.07-.64-.21-.84-.36-.29-.65-.29-.51.1-.65.29-.21.47-.21.84.07.64.21.83.36.29.65.29Z"/>
    <path class="cls-1" d="m47.78,39.57c-.27,0-.47-.08-.62-.23-.14-.15-.22-.36-.22-.63v-1.87h-.35s-.07-.01-.1-.04c-.03-.02-.04-.06-.04-.11v-.27l.52-.08.15-.93s.03-.07.05-.09c.02-.02.06-.03.1-.03h.35v1.05h.89v.49h-.89v1.82c0,.12.03.2.08.26.06.06.13.09.23.09.05,0,.1,0,.14-.02.04-.01.07-.03.1-.04.03-.02.05-.03.07-.04s.04-.02.06-.02c.04,0,.07.02.09.06l.2.33c-.1.09-.23.16-.37.21-.14.05-.29.07-.44.07Z"/>
  </g>
  <g>
    <path class="cls-1" d="m71.71,11.62v.81h-3.92v-.81h1.5v-4.5c0-.16,0-.32.02-.49l-1.15.97s-.1.07-.15.08c-.05.01-.1.01-.14,0-.04-.01-.08-.03-.12-.05-.04-.02-.06-.05-.08-.07l-.33-.47,2.16-1.86h.87v6.38h1.35Z"/>
    <path class="cls-1" d="m72.36,7.23c.05-.34.14-.64.28-.89.14-.26.31-.47.52-.64.21-.17.45-.3.72-.39s.56-.13.88-.13.61.04.87.14c.26.09.49.22.67.38.19.16.33.36.43.58.1.23.15.47.15.74,0,.23-.03.43-.08.61-.05.17-.13.33-.23.46-.1.13-.23.25-.37.33-.15.09-.31.17-.49.22.45.13.78.34,1,.62s.33.64.33,1.07c0,.35-.06.65-.19.92-.13.27-.31.5-.53.68-.22.19-.48.33-.77.43s-.61.15-.94.15c-.37,0-.69-.04-.96-.13-.27-.09-.5-.21-.7-.38-.19-.16-.36-.36-.49-.6-.13-.23-.24-.49-.33-.78l.46-.19c.12-.05.24-.07.35-.04.11.02.19.08.24.18.05.11.11.22.18.34.07.12.15.23.26.33.1.1.23.19.39.25.15.07.35.1.57.1s.43-.04.6-.11c.17-.07.31-.17.43-.29.11-.12.2-.25.26-.4.06-.15.08-.29.08-.43,0-.18-.02-.35-.06-.5-.04-.15-.13-.28-.25-.39-.12-.11-.3-.19-.53-.25-.23-.06-.53-.09-.9-.09v-.77c.3,0,.56-.03.77-.09s.37-.14.5-.24c.12-.1.21-.22.27-.37.06-.14.08-.3.08-.47,0-.18-.03-.34-.08-.48s-.14-.26-.24-.35-.22-.17-.36-.21c-.14-.05-.29-.07-.46-.07s-.31.02-.45.07c-.14.05-.26.11-.37.19s-.2.18-.27.3c-.07.11-.13.24-.16.38-.05.14-.11.23-.19.27-.08.05-.19.06-.34.03l-.56-.1Z"/>
    <path class="cls-1" d="m80.05,7.9c-.05.07-.1.13-.15.19-.05.06-.1.12-.14.18.15-.09.32-.15.5-.2.18-.05.38-.08.59-.08.28,0,.55.05.8.14.26.09.48.23.68.41.19.18.35.41.47.67.12.27.17.58.17.92s-.06.64-.18.93c-.12.29-.29.54-.51.76-.22.21-.48.38-.79.51-.31.12-.65.19-1.02.19s-.71-.06-1.01-.18c-.3-.12-.55-.29-.77-.51-.21-.22-.37-.48-.49-.79-.11-.31-.17-.65-.17-1.02,0-.33.07-.67.21-1.02s.36-.73.65-1.12l1.77-2.37c.05-.07.13-.13.23-.18.1-.05.22-.08.34-.08h.95l-2.13,2.64Zm.39,3.73c.22,0,.41-.04.59-.11s.33-.17.46-.3c.13-.13.23-.28.3-.45s.1-.36.1-.56c0-.22-.03-.42-.1-.59-.07-.17-.17-.32-.29-.44-.12-.12-.27-.21-.45-.28-.17-.06-.37-.1-.58-.1s-.41.04-.59.11c-.17.07-.32.17-.45.3-.12.13-.22.27-.28.44s-.1.35-.1.54c0,.21.03.41.09.58.06.18.15.33.26.45.12.12.26.22.43.29.17.07.37.11.59.11Z"/>
  </g>
  <g>
    <path class="cls-1" d="m13.65,20.93l-3.21,7.88h-.96l-3.21-7.88h.85c.1,0,.17.02.23.07.06.05.1.11.13.18l2.22,5.56c.05.12.09.26.14.41.05.15.09.3.12.46.04-.16.08-.31.12-.46.04-.15.08-.28.13-.41l2.22-5.56c.02-.06.06-.12.13-.17.06-.05.14-.08.23-.08h.85Z"/>
    <path class="cls-1" d="m15.43,21.49c0,.1-.02.18-.06.27-.04.08-.09.16-.15.22-.06.06-.14.12-.23.15-.09.04-.18.06-.27.06s-.18-.02-.27-.06c-.08-.04-.16-.09-.22-.15-.06-.06-.11-.14-.15-.22-.04-.08-.05-.17-.05-.27s.02-.19.05-.27c.04-.09.09-.16.15-.23.06-.06.13-.11.22-.15.08-.04.17-.05.27-.05s.19.02.27.05c.09.04.16.09.23.15.06.06.12.14.15.23.04.09.06.18.06.27Zm-.21,1.75v5.57h-.98v-5.57h.98Z"/>
    <path class="cls-1" d="m18.26,28.9c-.44,0-.78-.12-1.01-.37-.24-.25-.35-.6-.35-1.06v-3.41h-.67c-.06,0-.11-.02-.15-.05-.04-.04-.06-.09-.06-.16v-.39l.91-.12.23-1.72c.01-.06.04-.1.07-.13.04-.04.09-.05.15-.05h.5v1.92h1.61v.71h-1.61v3.34c0,.24.06.41.17.52.11.11.26.17.44.17.1,0,.19-.01.27-.04s.14-.06.2-.09.1-.06.14-.09.07-.04.1-.04c.05,0,.1.03.14.09l.29.47c-.17.16-.37.28-.61.37-.24.09-.48.13-.74.13Z"/>
    <path class="cls-1" d="m20.08,24.02c.31-.3.64-.52,1-.67s.75-.22,1.18-.22c.31,0,.59.05.83.15.24.1.45.25.61.43.17.18.29.41.37.67.08.26.13.55.13.86v3.56h-.43c-.1,0-.17-.02-.22-.05-.05-.03-.09-.09-.12-.18l-.11-.53c-.15.14-.29.26-.43.36s-.29.19-.44.26c-.15.07-.32.13-.49.17-.17.04-.37.06-.58.06s-.42-.03-.61-.09-.36-.15-.5-.27-.25-.27-.34-.46c-.08-.18-.12-.4-.12-.66,0-.22.06-.43.18-.63.12-.2.32-.38.59-.54.27-.16.62-.29,1.06-.39s.97-.16,1.61-.17v-.43c0-.43-.09-.76-.28-.98-.19-.22-.46-.33-.82-.33-.24,0-.44.03-.61.09-.16.06-.3.13-.42.2s-.22.14-.31.2c-.09.06-.17.09-.26.09-.07,0-.12-.02-.17-.05-.05-.04-.09-.08-.12-.13l-.18-.31Zm3.16,2.28c-.45.01-.83.05-1.15.11-.32.06-.58.13-.78.22s-.34.2-.43.32c-.09.12-.13.26-.13.42s.02.27.07.38c.05.11.11.19.2.26.08.07.18.12.29.15.11.03.23.05.36.05.17,0,.33-.02.47-.05s.28-.08.4-.15.25-.14.36-.24c.12-.09.23-.2.34-.31v-1.16Z"/>
    <path class="cls-1" d="m26.4,24.04c.23-.27.5-.49.79-.65.3-.16.64-.24,1.02-.24.33,0,.62.06.88.19.26.12.48.31.67.54.18.24.32.52.42.86.1.34.15.72.15,1.14,0,.45-.05.86-.17,1.23-.11.37-.27.69-.48.95-.21.26-.46.47-.76.61-.3.14-.63.22-1,.22s-.68-.07-.93-.21-.47-.33-.66-.59l-.05.51c-.03.14-.11.21-.25.21h-.63v-8.1h.98v3.33Zm0,3.43c.18.24.38.41.59.51.21.1.45.15.71.15.52,0,.93-.19,1.2-.56.28-.37.42-.92.42-1.66,0-.68-.12-1.18-.37-1.5-.25-.32-.6-.48-1.06-.48-.32,0-.6.07-.83.22-.24.15-.46.35-.66.62v2.7Z"/>
    <path class="cls-1" d="m33.65,23.15c.41,0,.77.07,1.1.2.33.14.6.33.84.58.23.25.41.55.53.9.12.35.18.75.18,1.19s-.06.84-.18,1.19c-.12.35-.3.65-.53.9s-.51.44-.84.58c-.33.13-.69.2-1.1.2s-.78-.07-1.11-.2-.61-.33-.84-.58c-.23-.25-.41-.55-.53-.9-.12-.35-.18-.75-.18-1.19s.06-.83.18-1.19c.12-.35.3-.66.53-.9.23-.25.51-.44.84-.58s.7-.2,1.11-.2Zm0,4.97c.55,0,.96-.18,1.23-.55.27-.37.41-.88.41-1.54s-.14-1.18-.41-1.55c-.27-.37-.68-.56-1.23-.56-.28,0-.52.05-.73.14-.21.1-.38.23-.52.41-.14.18-.24.4-.31.66-.07.26-.1.56-.1.89,0,.66.14,1.17.41,1.54.27.37.69.55,1.25.55Z"/>
    <path class="cls-1" d="m39.61,23.15c.41,0,.77.07,1.1.2.33.14.6.33.84.58.23.25.41.55.53.9.12.35.18.75.18,1.19s-.06.84-.18,1.19c-.12.35-.3.65-.53.9s-.51.44-.84.58c-.33.13-.69.2-1.1.2s-.78-.07-1.11-.2-.61-.33-.84-.58c-.23-.25-.41-.55-.53-.9-.12-.35-.18-.75-.18-1.19s.06-.83.18-1.19c.12-.35.3-.66.53-.9.23-.25.51-.44.84-.58s.7-.2,1.11-.2Zm0,4.97c.55,0,.96-.18,1.23-.55.27-.37.41-.88.41-1.54s-.14-1.18-.41-1.55c-.27-.37-.68-.56-1.23-.56-.28,0-.52.05-.73.14-.21.1-.38.23-.52.41-.14.18-.24.4-.31.66-.07.26-.1.56-.1.89,0,.66.14,1.17.41,1.54.27.37.69.55,1.25.55Z"/>
    <path class="cls-1" d="m46.47,24.16c-.04.08-.11.12-.2.12-.05,0-.12-.02-.19-.06-.07-.04-.15-.09-.26-.13-.1-.05-.22-.1-.36-.14-.14-.04-.3-.06-.5-.06-.17,0-.31.02-.45.06-.13.04-.25.1-.34.17-.09.07-.17.16-.21.26-.05.1-.07.2-.07.32,0,.14.04.26.12.36s.19.18.33.25c.14.07.29.13.46.18.17.05.35.11.53.17.18.06.36.13.53.2s.33.17.46.28c.14.11.25.24.33.4.08.16.12.35.12.57,0,.26-.05.49-.14.71-.09.22-.23.41-.41.57-.18.16-.4.29-.66.38-.26.09-.56.14-.9.14-.39,0-.74-.06-1.06-.19-.32-.13-.58-.29-.8-.49l.23-.37s.06-.08.1-.11c.04-.03.09-.04.15-.04.07,0,.14.03.21.08.07.05.16.11.27.17s.23.12.38.17c.15.05.34.08.56.08.19,0,.36-.02.5-.07.14-.05.26-.12.36-.2.1-.08.17-.18.21-.29.05-.11.07-.23.07-.35,0-.15-.04-.28-.12-.38-.08-.1-.19-.19-.33-.26s-.29-.13-.46-.19c-.17-.05-.35-.11-.53-.17s-.36-.13-.53-.2c-.17-.08-.33-.17-.46-.28-.14-.11-.24-.25-.33-.42s-.12-.37-.12-.61c0-.21.04-.42.13-.61s.22-.37.39-.52c.17-.15.38-.27.62-.35s.53-.13.84-.13c.37,0,.7.06.99.17.29.12.54.27.76.48l-.22.36Z"/>
    <path class="cls-1" d="m49.42,28.9c-.44,0-.78-.12-1.01-.37-.24-.25-.35-.6-.35-1.06v-3.41h-.67c-.06,0-.11-.02-.15-.05-.04-.04-.06-.09-.06-.16v-.39l.91-.12.23-1.72c.01-.06.04-.1.07-.13.04-.04.09-.05.15-.05h.5v1.92h1.61v.71h-1.61v3.34c0,.24.06.41.17.52.11.11.26.17.44.17.1,0,.19-.01.27-.04s.14-.06.2-.09.1-.06.14-.09.07-.04.1-.04c.05,0,.1.03.14.09l.29.47c-.17.16-.37.28-.61.37-.24.09-.48.13-.74.13Z"/>
  </g>
</svg>