<?xml version="1.0" encoding="UTF-8"?>
<svg version="1.1" xmlns="http://www.w3.org/2000/svg" width="100" height="100">
<path d="M0 0 C1.94036133 -0.00386719 1.94036133 -0.00386719 3.91992188 -0.0078125 C4.58773682 -0.00362305 5.25555176 0.00056641 5.94360352 0.00488281 C7.96466473 0.01554165 9.98482637 0.00498664 12.00585938 -0.0078125 C23.64026828 0.01530605 32.75866414 0.97740092 42.16796875 8.265625 C47.81483039 14.31256793 49.5499236 19.24400181 49.44140625 27.48046875 C48.88368622 33.16124558 46.08536371 36.61141632 42.04296875 40.453125 C33.65093812 46.9357232 25.0685486 47.89200381 14.71826172 47.73217773 C12.67072449 47.70316405 10.62578125 47.7116185 8.578125 47.72460938 C-3.25002269 47.70670991 -12.52395725 45.8034518 -21.83203125 38.265625 C-27.3931563 32.2767211 -28.36713687 27.60308926 -28.1953125 19.52734375 C-27.65759177 14.69942107 -26.30552826 11.66176128 -22.83203125 8.265625 C-15.75882978 3.00485785 -8.88583448 0.01716004 0 0 Z " fill="#D1A790" transform="translate(39.83203125,52.734375)"/>
<path d="M0 0 C4.39037825 2.96396844 8.29406239 5.88218716 10 11 C10.37188362 16.02042893 10.13722452 18.99733424 7 23 C1.90795492 27.7003493 -2.22509491 28.31055415 -8.94921875 28.2109375 C-18.64919303 27.54026066 -28.06908958 26.3221715 -35 19 C-37.45116441 16.01264338 -37.94822417 14.40681006 -38.4375 10.5625 C-37.81515735 5.49485272 -35.73705209 2.52650032 -31.9375 -0.8125 C-23.41019559 -6.03891238 -8.83583554 -3.50207823 0 0 Z " fill="#C38A6D" transform="translate(60,22)"/>
<path d="M0 0 C2.3125 2.4375 2.3125 2.4375 2.9375 5.9375 C2.21868025 9.9628906 1.61076299 11.09399735 -1.6875 13.4375 C-7.01319969 16.03540229 -12.88105929 16.15336255 -18.6875 15.4375 C-22.07054284 13.61065687 -23.24207035 12.52323477 -24.6875 9 C-24.6875 5.5054309 -23.9400784 4.11243685 -21.6875 1.4375 C-15.40325924 -2.3592288 -6.68965748 -3.67772639 0 0 Z " fill="#B39886" transform="translate(61.6875,1.5625)"/>
</svg>
