<?xml version="1.0" encoding="UTF-8"?>
<svg id="Layer_1" data-name="Layer 1" xmlns="http://www.w3.org/2000/svg" viewBox="0 0 87.75 87.75">
  <defs>
    <style>
      .cls-1 {
        fill: #0b20b6;
      }

      .cls-1, .cls-2 {
        stroke-width: 0px;
      }

      .cls-2 {
        fill: #cb5d9f;
      }
    </style>
  </defs>
  <path class="cls-1" d="m72.45,82.07l-.11-.06c-.34-.17-8.32-4.23-8.32-10.46v-8.38l8.44-2.11,8.44,2.11v8.38c0,6.22-7.98,10.29-8.32,10.46l-.11.06Zm-7.94-18.5v7.99c0,5.53,6.96,9.43,7.94,9.95.97-.52,7.94-4.42,7.94-9.95v-7.99l-7.94-1.98-7.94,1.98Z"/>
  <rect class="cls-2" x=".25" y=".25" width="29.08" height="3.49"/>
  <path class="cls-1" d="m87.75,87.75H0V0h87.75v87.75Zm-87.25-.5h86.75V.5H.5v86.75Z"/>
  <rect class="cls-1" x="6.36" y="47.78" width="75.03" height=".5"/>
  <g>
    <path class="cls-1" d="m10.44,39.51h-.57c-.06,0-.12-.02-.16-.05-.04-.03-.07-.07-.09-.12l-.38-1h-1.95l-.38,1s-.05.08-.09.12c-.04.04-.09.05-.16.05h-.57l1.8-4.53h.75l1.8,4.53Zm-1.39-1.7l-.62-1.66c-.05-.13-.1-.29-.15-.49-.02.1-.05.19-.08.27-.03.08-.05.16-.08.22l-.62,1.65h1.55Z"/>
    <path class="cls-1" d="m11.36,34.85v4.66h-.68v-4.66h.68Z"/>
    <path class="cls-1" d="m12.68,36.77c.13-.16.29-.28.46-.38.17-.1.37-.14.6-.14.18,0,.34.04.49.11s.27.18.38.32.19.31.24.51.09.44.09.7c0,.24-.03.46-.1.66-.06.21-.16.38-.27.53-.12.15-.26.27-.43.35s-.36.13-.58.13c-.19,0-.35-.03-.48-.09-.13-.06-.25-.14-.36-.25v1.36h-.68v-4.28h.41c.09,0,.15.04.18.13l.06.34Zm.03,1.94c.09.12.2.21.31.26.11.05.24.07.37.07.26,0,.47-.1.62-.29.15-.19.22-.48.22-.86,0-.2-.02-.37-.05-.5-.03-.14-.08-.25-.15-.34-.06-.09-.14-.15-.23-.19-.09-.04-.19-.06-.31-.06-.17,0-.32.04-.45.11-.12.07-.24.18-.35.32v1.49Z"/>
    <path class="cls-1" d="m16.11,36.68c.13-.13.28-.23.43-.31.16-.08.34-.12.55-.12.18,0,.33.03.46.09s.25.14.34.25c.09.11.16.24.21.38.05.15.07.32.07.5v2.04h-.67v-2.04c0-.22-.05-.38-.15-.5-.1-.12-.25-.18-.46-.18-.15,0-.29.03-.42.1s-.25.16-.36.28v2.34h-.68v-4.66h.68v1.83Z"/>
    <path class="cls-1" d="m18.73,36.75c.36-.34.79-.51,1.3-.51.18,0,.35.03.49.09.14.06.26.14.36.25.1.11.17.24.22.39.05.15.08.32.08.5v2.04h-.3c-.07,0-.11,0-.15-.03-.03-.02-.06-.06-.08-.12l-.07-.26c-.08.07-.16.14-.24.2s-.16.11-.25.15-.18.07-.27.09c-.1.02-.21.03-.32.03-.13,0-.25-.02-.36-.05-.11-.04-.21-.09-.29-.16-.08-.07-.15-.16-.19-.27-.05-.11-.07-.23-.07-.38,0-.12.03-.25.1-.36.07-.12.18-.22.33-.32.15-.09.35-.17.6-.23.25-.06.56-.09.92-.1v-.21c0-.23-.05-.4-.15-.52s-.24-.17-.43-.17c-.13,0-.24.02-.33.05-.09.03-.16.07-.23.1-.07.04-.12.07-.17.11-.05.03-.1.05-.16.05-.05,0-.09-.01-.12-.04-.03-.02-.06-.05-.08-.09l-.12-.22Zm1.79,1.36c-.24,0-.44.03-.61.06-.17.03-.3.07-.4.12-.1.05-.18.1-.22.17-.04.07-.07.14-.07.21s.01.14.04.19c.02.05.06.1.1.13.04.03.09.06.15.08s.12.02.19.02c.18,0,.33-.03.45-.1.13-.07.25-.16.37-.29v-.59Z"/>
    <path class="cls-1" d="m25.97,38.89v.62h-2.62v-4.53h.74v3.91h1.88Z"/>
    <path class="cls-1" d="m27.14,35.33c0,.06-.01.12-.04.17-.02.05-.06.1-.1.14s-.09.07-.15.1c-.06.02-.11.04-.18.04s-.12-.01-.17-.04c-.05-.02-.1-.06-.14-.1-.04-.04-.07-.09-.1-.14-.02-.05-.04-.11-.04-.17s.01-.12.04-.18c.02-.05.06-.1.1-.14.04-.04.09-.07.14-.1.05-.02.11-.04.17-.04s.12.01.18.04.1.06.15.1.07.09.1.14c.02.05.04.11.04.18Zm-.11.97v3.21h-.68v-3.21h.68Z"/>
    <path class="cls-1" d="m28.36,36.77c.13-.16.29-.28.46-.38.17-.1.37-.14.6-.14.18,0,.34.04.49.11s.27.18.38.32.19.31.24.51.09.44.09.7c0,.24-.03.46-.1.66-.06.21-.16.38-.27.53-.12.15-.26.27-.43.35s-.36.13-.58.13c-.19,0-.35-.03-.48-.09-.13-.06-.25-.14-.36-.25v1.36h-.68v-4.28h.41c.09,0,.15.04.18.13l.06.34Zm.03,1.94c.09.12.2.21.31.26.11.05.24.07.37.07.26,0,.47-.1.62-.29.15-.19.22-.48.22-.86,0-.2-.02-.37-.05-.5-.03-.14-.08-.25-.15-.34-.06-.09-.14-.15-.23-.19-.09-.04-.19-.06-.31-.06-.17,0-.32.04-.45.11-.12.07-.24.18-.35.32v1.49Z"/>
    <path class="cls-1" d="m32.5,36.25c.24,0,.45.04.64.12.19.08.36.19.49.33s.24.32.31.52c.07.2.11.43.11.69s-.04.48-.11.69c-.07.2-.18.38-.31.52s-.3.25-.49.33c-.19.08-.41.12-.64.12s-.45-.04-.65-.12c-.19-.08-.36-.19-.49-.33-.14-.14-.24-.32-.31-.52-.07-.2-.11-.43-.11-.69s.04-.48.11-.69c.07-.2.18-.38.31-.52.14-.14.3-.25.49-.33.19-.08.41-.12.65-.12Zm0,2.78c.29,0,.5-.1.65-.29s.21-.47.21-.83-.07-.64-.21-.84-.36-.29-.65-.29-.51.1-.65.29-.21.47-.21.84.07.64.21.83.36.29.65.29Z"/>
    <path class="cls-1" d="m35.37,35.33c0,.06-.01.12-.04.17-.02.05-.06.1-.1.14s-.09.07-.15.1c-.06.02-.11.04-.18.04s-.12-.01-.17-.04c-.05-.02-.1-.06-.14-.1-.04-.04-.07-.09-.1-.14-.02-.05-.04-.11-.04-.17s.01-.12.04-.18c.02-.05.06-.1.1-.14.04-.04.09-.07.14-.1.05-.02.11-.04.17-.04s.12.01.18.04.1.06.15.1.07.09.1.14c.02.05.04.11.04.18Zm-.11.97v3.21h-.68v-3.21h.68Z"/>
    <path class="cls-1" d="m38.22,36.93s-.04.05-.06.06-.05.02-.08.02-.07-.01-.11-.04c-.04-.03-.08-.05-.14-.08-.05-.03-.12-.06-.19-.08-.08-.02-.17-.04-.28-.04-.15,0-.28.03-.39.08-.11.05-.2.13-.28.23-.07.1-.13.22-.17.36s-.06.3-.06.47.02.34.06.48c.04.14.1.26.17.36.07.1.16.17.27.22.11.05.23.08.36.08s.24-.02.32-.05c.08-.03.15-.07.2-.1.05-.04.1-.07.14-.1.04-.03.08-.05.12-.05.05,0,.1.02.13.06l.19.25c-.08.09-.16.17-.26.24s-.19.12-.3.16c-.1.04-.21.07-.33.09s-.23.03-.34.03c-.2,0-.39-.04-.56-.11-.17-.07-.32-.18-.45-.32s-.23-.31-.31-.52c-.07-.2-.11-.44-.11-.7,0-.24.03-.46.1-.66.07-.2.17-.38.29-.52s.29-.26.48-.34.41-.12.66-.12c.23,0,.44.04.62.11s.33.18.47.32l-.18.25Z"/>
    <path class="cls-1" d="m43.93,39.51h-.57c-.06,0-.12-.02-.16-.05-.04-.03-.07-.07-.09-.12l-.38-1h-1.95l-.38,1s-.05.08-.09.12c-.04.04-.09.05-.16.05h-.57l1.8-4.53h.75l1.8,4.53Zm-1.39-1.7l-.62-1.66c-.05-.13-.1-.29-.15-.49-.02.1-.05.19-.08.27-.03.08-.05.16-.08.22l-.62,1.65h1.55Z"/>
    <path class="cls-1" d="m46.36,36.93s-.04.05-.06.06-.05.02-.08.02-.07-.01-.11-.04c-.04-.03-.08-.05-.14-.08-.05-.03-.12-.06-.19-.08-.08-.02-.17-.04-.28-.04-.15,0-.28.03-.39.08-.11.05-.2.13-.28.23-.07.1-.13.22-.17.36s-.06.3-.06.47.02.34.06.48c.04.14.1.26.17.36.07.1.16.17.27.22.11.05.23.08.36.08s.24-.02.32-.05c.08-.03.15-.07.2-.1.05-.04.1-.07.14-.1.04-.03.08-.05.12-.05.05,0,.1.02.13.06l.19.25c-.08.09-.16.17-.26.24s-.19.12-.3.16c-.1.04-.21.07-.33.09s-.23.03-.34.03c-.2,0-.39-.04-.56-.11-.17-.07-.32-.18-.45-.32s-.23-.31-.31-.52c-.07-.2-.11-.44-.11-.7,0-.24.03-.46.1-.66.07-.2.17-.38.29-.52s.29-.26.48-.34.41-.12.66-.12c.23,0,.44.04.62.11s.33.18.47.32l-.18.25Z"/>
    <path class="cls-1" d="m47.77,35.33c0,.06-.01.12-.04.17-.02.05-.06.1-.1.14s-.09.07-.15.1c-.06.02-.11.04-.18.04s-.12-.01-.17-.04c-.05-.02-.1-.06-.14-.1-.04-.04-.07-.09-.1-.14-.02-.05-.04-.11-.04-.17s.01-.12.04-.18c.02-.05.06-.1.1-.14.04-.04.09-.07.14-.1.05-.02.11-.04.17-.04s.12.01.18.04.1.06.15.1.07.09.1.14c.02.05.04.11.04.18Zm-.11.97v3.21h-.68v-3.21h.68Z"/>
    <path class="cls-1" d="m51.08,34.85v4.66h-.41c-.09,0-.15-.04-.17-.13l-.06-.35c-.13.16-.29.28-.46.38-.17.1-.37.14-.6.14-.18,0-.34-.04-.49-.11s-.27-.18-.38-.32c-.1-.14-.19-.31-.24-.51-.06-.21-.09-.44-.09-.7,0-.24.03-.46.1-.66.06-.2.16-.38.28-.53.12-.15.26-.27.44-.35s.36-.13.57-.13c.19,0,.35.03.48.09.13.06.25.14.36.25v-1.73h.68Zm-.68,2.24c-.09-.12-.2-.21-.31-.25-.11-.05-.24-.07-.37-.07-.26,0-.47.1-.62.29s-.22.48-.22.86c0,.2.02.37.05.51.03.14.08.25.14.34s.14.15.23.19c.09.04.19.06.31.06.17,0,.32-.04.45-.11.12-.08.24-.18.35-.32v-1.5Z"/>
  </g>
  <g>
    <path class="cls-1" d="m74.56,7.9c-.05.07-.1.13-.15.19-.05.06-.1.12-.14.18.15-.09.32-.15.5-.2.18-.05.38-.08.59-.08.28,0,.55.05.8.14.26.09.48.23.68.41.19.18.35.41.47.67.12.27.17.58.17.92s-.06.64-.18.93c-.12.29-.29.54-.51.76-.22.21-.48.38-.79.51-.31.12-.65.19-1.02.19s-.71-.06-1.01-.18c-.3-.12-.55-.29-.77-.51-.21-.22-.37-.48-.49-.79-.11-.31-.17-.65-.17-1.02,0-.33.07-.67.21-1.02s.36-.73.65-1.12l1.77-2.37c.05-.07.13-.13.23-.18.1-.05.22-.08.34-.08h.95l-2.13,2.64Zm.39,3.73c.22,0,.41-.04.59-.11s.33-.17.46-.3c.13-.13.23-.28.3-.45s.1-.36.1-.56c0-.22-.03-.42-.1-.59-.07-.17-.17-.32-.29-.44-.12-.12-.27-.21-.45-.28-.17-.06-.37-.1-.58-.1s-.41.04-.59.11c-.17.07-.32.17-.45.3-.12.13-.22.27-.28.44s-.1.35-.1.54c0,.21.03.41.09.58.06.18.15.33.26.45.12.12.26.22.43.29.17.07.37.11.59.11Z"/>
    <path class="cls-1" d="m78.15,7.23c.05-.34.14-.64.28-.89.14-.26.31-.47.52-.64.21-.17.45-.3.72-.39s.56-.13.88-.13.61.04.87.14c.26.09.49.22.67.38.19.16.33.36.43.58.1.23.15.47.15.74,0,.23-.03.43-.08.61-.05.17-.13.33-.23.46-.1.13-.23.25-.37.33-.15.09-.31.17-.49.22.45.13.78.34,1,.62s.33.64.33,1.07c0,.35-.06.65-.19.92-.13.27-.31.5-.53.68-.22.19-.48.33-.77.43s-.61.15-.94.15c-.37,0-.69-.04-.96-.13-.27-.09-.5-.21-.7-.38-.19-.16-.36-.36-.49-.6-.13-.23-.24-.49-.33-.78l.46-.19c.12-.05.24-.07.35-.04.11.02.19.08.24.18.05.11.11.22.18.34.07.12.15.23.26.33.1.1.23.19.39.25.15.07.35.1.57.1s.43-.04.6-.11c.17-.07.31-.17.43-.29.11-.12.2-.25.26-.4.06-.15.08-.29.08-.43,0-.18-.02-.35-.06-.5-.04-.15-.13-.28-.25-.39-.12-.11-.3-.19-.53-.25-.23-.06-.53-.09-.9-.09v-.77c.3,0,.56-.03.77-.09s.37-.14.5-.24c.12-.1.21-.22.27-.37.06-.14.08-.3.08-.47,0-.18-.03-.34-.08-.48s-.14-.26-.24-.35-.22-.17-.36-.21c-.14-.05-.29-.07-.46-.07s-.31.02-.45.07c-.14.05-.26.11-.37.19s-.2.18-.27.3c-.07.11-.13.24-.16.38-.05.14-.11.23-.19.27-.08.05-.19.06-.34.03l-.56-.1Z"/>
  </g>
  <g>
    <path class="cls-1" d="m16.88,28.84h-1.2c-.14,0-.25-.03-.34-.1-.09-.07-.15-.16-.19-.26l-1.07-2.77h-5.14l-1.07,2.77c-.03.1-.09.18-.18.26s-.2.11-.34.11h-1.2l4.58-11.46h1.57l4.58,11.46Zm-3.23-4.26l-1.8-4.66c-.05-.14-.11-.3-.17-.48-.06-.18-.11-.38-.17-.59-.11.43-.23.79-.34,1.08l-1.8,4.66h4.28Z"/>
    <path class="cls-1" d="m24.5,27.54v1.3h-6.5v-11.46h1.54v10.16h4.96Z"/>
    <path class="cls-1" d="m35.93,28.84h-1.2c-.14,0-.25-.03-.34-.1-.09-.07-.15-.16-.19-.26l-1.07-2.77h-5.14l-1.07,2.77c-.03.1-.09.18-.18.26s-.2.11-.34.11h-1.2l4.58-11.46h1.57l4.58,11.46Zm-3.23-4.26l-1.8-4.66c-.05-.14-.11-.3-.17-.48-.06-.18-.11-.38-.17-.59-.11.43-.23.79-.34,1.08l-1.8,4.66h4.28Z"/>
  </g>
</svg>