<?xml version="1.0" encoding="UTF-8"?>
<svg id="Layer_1" data-name="Layer 1" xmlns="http://www.w3.org/2000/svg" viewBox="0 0 87.75 87.75">
  <defs>
    <style>
      .cls-1 {
        fill: #0b20b6;
      }

      .cls-1, .cls-2 {
        stroke-width: 0px;
      }

      .cls-2 {
        fill: #cb5d9f;
      }
    </style>
  </defs>
  <polygon class="cls-1" points="80.89 66.66 80.39 66.66 80.39 61.52 75.25 61.52 75.25 61.02 80.89 61.02 80.89 66.66"/>
  <rect class="cls-1" x="58.53" y="70.17" width="25.9" height=".5" transform="translate(-28.86 71.17) rotate(-45)"/>
  <polygon class="cls-1" points="80.89 80.91 75.25 80.91 75.25 80.41 80.39 80.41 80.39 75.27 80.89 75.27 80.89 80.91"/>
  <rect class="cls-1" x="77.16" y="72.86" width=".5" height="9.14" transform="translate(-32.08 77.41) rotate(-45)"/>
  <rect class="cls-1" x="64.77" y="61.23" width=".5" height="7.62" transform="translate(-26.95 65.03) rotate(-45)"/>
  <rect class="cls-2" x=".25" y=".25" width="29.08" height="3.49"/>
  <path class="cls-1" d="m87.75,87.75H0V0h87.75v87.75Zm-87.25-.5h86.75V.5H.5v86.75Z"/>
  <rect class="cls-1" x="6.36" y="47.78" width="75.03" height=".5"/>
  <g>
    <path class="cls-1" d="m74.46,7.9c-.05.07-.1.13-.15.19-.05.06-.1.12-.14.18.15-.09.32-.15.5-.2.18-.05.38-.08.59-.08.28,0,.55.05.8.14.26.09.48.23.68.41.19.18.35.41.47.67.12.27.17.58.17.92s-.06.64-.18.93c-.12.29-.29.54-.51.76-.22.21-.48.38-.79.51-.31.12-.65.19-1.02.19s-.71-.06-1.01-.18c-.3-.12-.55-.29-.77-.51-.21-.22-.37-.48-.49-.79-.11-.31-.17-.65-.17-1.02,0-.33.07-.67.21-1.02s.36-.73.65-1.12l1.77-2.37c.05-.07.13-.13.23-.18.1-.05.22-.08.34-.08h.95l-2.13,2.64Zm.39,3.73c.22,0,.41-.04.59-.11s.33-.17.46-.3c.13-.13.23-.28.3-.45s.1-.36.1-.56c0-.22-.03-.42-.1-.59-.07-.17-.17-.32-.29-.44-.12-.12-.27-.21-.45-.28-.17-.06-.37-.1-.58-.1s-.41.04-.59.11c-.17.07-.32.17-.45.3-.12.13-.22.27-.28.44s-.1.35-.1.54c0,.21.03.41.09.58.06.18.15.33.26.45.12.12.26.22.43.29.17.07.37.11.59.11Z"/>
    <path class="cls-1" d="m83.08,9.78v.62c0,.06-.02.11-.06.15-.04.04-.1.07-.17.07h-.76v1.82h-.93v-1.82h-3.11c-.08,0-.14-.02-.2-.07-.06-.04-.09-.1-.11-.17l-.11-.55,3.45-4.59h1.01v4.53h.99Zm-1.93,0v-2.62c0-.21.02-.44.04-.69l-2.41,3.31h2.37Z"/>
  </g>
  <g>
    <path class="cls-1" d="m9.71,38.5s.07.02.1.05l.29.32c-.18.22-.41.39-.68.51-.27.12-.59.18-.96.18-.33,0-.63-.06-.9-.17-.27-.11-.5-.27-.68-.48-.19-.2-.33-.45-.44-.73-.1-.28-.15-.59-.15-.93s.05-.65.16-.94c.11-.28.26-.53.46-.73.2-.21.43-.36.71-.48.27-.11.58-.17.9-.17s.62.05.87.16c.25.11.47.25.65.42l-.24.34s-.04.04-.06.06c-.02.02-.05.03-.09.03s-.09-.02-.14-.06c-.05-.04-.12-.08-.2-.13s-.19-.09-.31-.13c-.12-.04-.28-.06-.47-.06-.22,0-.41.04-.59.11-.18.08-.34.19-.47.33s-.23.32-.3.53c-.07.21-.11.44-.11.71s.04.5.11.71.18.38.31.53.29.25.47.33c.18.08.37.11.58.11.13,0,.24,0,.34-.02s.19-.04.28-.07c.08-.03.16-.07.24-.11.07-.05.15-.1.22-.17.04-.04.08-.06.13-.06Z"/>
    <path class="cls-1" d="m11.79,36.25c.24,0,.45.04.64.12.19.08.36.19.49.33s.24.32.31.52c.07.2.11.43.11.69s-.04.48-.11.69c-.07.2-.18.38-.31.52s-.3.25-.49.33c-.19.08-.41.12-.64.12s-.45-.04-.65-.12c-.19-.08-.36-.19-.49-.33-.14-.14-.24-.32-.31-.52-.07-.2-.11-.43-.11-.69s.04-.48.11-.69c.07-.2.18-.38.31-.52.14-.14.3-.25.49-.33.19-.08.41-.12.65-.12Zm0,2.78c.29,0,.5-.1.65-.29s.21-.47.21-.83-.07-.64-.21-.84-.36-.29-.65-.29-.51.1-.65.29-.21.47-.21.84.07.64.21.83.36.29.65.29Z"/>
    <path class="cls-1" d="m14.33,37.96c0,.18.04.34.08.47.05.13.11.24.19.33.08.09.18.15.29.2.11.04.24.06.38.06s.25-.02.34-.05c.1-.03.18-.06.25-.1s.13-.07.18-.1c.05-.03.1-.05.14-.05.05,0,.1.02.13.06l.19.25c-.08.09-.17.17-.27.24s-.21.12-.32.16-.23.07-.35.09-.24.03-.35.03c-.22,0-.43-.04-.62-.11-.19-.07-.35-.18-.49-.33-.14-.14-.25-.32-.33-.54-.08-.21-.12-.46-.12-.74,0-.22.04-.43.11-.62s.17-.36.3-.5c.13-.14.29-.26.48-.34.19-.08.4-.12.64-.12.2,0,.38.03.55.1.17.06.31.16.43.28.12.12.22.27.28.45.07.18.1.38.1.61,0,.1-.01.17-.03.21-.02.04-.06.05-.13.05h-2.06Zm1.61-.42c0-.11-.02-.22-.05-.32-.03-.1-.08-.18-.14-.25s-.14-.13-.23-.17-.2-.06-.32-.06c-.25,0-.44.07-.58.21s-.23.34-.27.59h1.6Z"/>
    <path class="cls-1" d="m17.65,36.72c.07-.07.14-.14.22-.19.07-.06.15-.11.24-.15.08-.04.17-.07.27-.1.09-.02.2-.03.31-.03.18,0,.33.03.46.09s.25.14.34.25c.09.11.16.24.21.38.05.15.07.32.07.5v2.04h-.67v-2.04c0-.22-.05-.38-.15-.5-.1-.12-.25-.18-.46-.18-.15,0-.29.03-.42.1s-.25.16-.36.28v2.34h-.68v-3.21h.41c.09,0,.15.04.18.13l.05.29Z"/>
    <path class="cls-1" d="m22.66,36.58s0,.1-.02.14c-.02.05-.04.08-.07.12l-1.63,2.14h1.66v.53h-2.45v-.28s0-.07.02-.11c.01-.04.04-.09.07-.13l1.64-2.16h-1.63v-.53h2.41v.28Z"/>
    <path class="cls-1" d="m25.95,36.3l-1.77,4.12s-.05.09-.08.11c-.03.03-.08.04-.15.04h-.5l.59-1.28-1.31-2.99h.59c.06,0,.1.01.13.04.03.03.05.06.07.09l.76,1.82c.02.05.04.1.05.16s.03.1.05.16c.02-.05.03-.11.05-.16.02-.05.04-.1.06-.16l.73-1.82s.04-.07.07-.09.07-.04.11-.04h.54Z"/>
    <path class="cls-1" d="m26.23,39.51v-3.21h.41c.09,0,.15.04.18.13l.04.28c.06-.07.12-.13.18-.18s.13-.1.2-.14c.07-.04.15-.07.23-.1.08-.02.17-.03.27-.03.1,0,.2.01.28.04s.16.07.23.13c.07.05.12.12.17.2.05.08.09.16.12.26.05-.11.11-.21.18-.29.07-.08.16-.14.25-.2.09-.05.19-.09.29-.11.1-.02.21-.04.31-.04.17,0,.33.03.46.08s.25.13.34.24.16.23.21.38c.05.15.07.32.07.52v2.04h-.68v-2.04c0-.23-.05-.4-.15-.51s-.24-.17-.43-.17c-.09,0-.17.01-.24.04-.08.03-.14.07-.2.13s-.1.13-.13.21c-.03.08-.05.18-.05.3v2.04h-.68v-2.04c0-.24-.05-.41-.14-.52-.09-.11-.23-.17-.42-.17-.13,0-.24.03-.35.1-.11.06-.21.15-.3.26v2.37h-.68Z"/>
    <path class="cls-1" d="m31.79,37.96c0,.18.04.34.08.47.05.13.11.24.19.33.08.09.18.15.29.2.11.04.24.06.38.06s.25-.02.34-.05c.1-.03.18-.06.25-.1s.13-.07.18-.1c.05-.03.1-.05.14-.05.05,0,.1.02.13.06l.19.25c-.08.09-.17.17-.27.24s-.21.12-.32.16-.23.07-.35.09-.24.03-.35.03c-.22,0-.43-.04-.62-.11-.19-.07-.35-.18-.49-.33-.14-.14-.25-.32-.33-.54-.08-.21-.12-.46-.12-.74,0-.22.04-.43.11-.62s.17-.36.3-.5c.13-.14.29-.26.48-.34.19-.08.4-.12.64-.12.2,0,.38.03.55.1.17.06.31.16.43.28.12.12.22.27.28.45.07.18.1.38.1.61,0,.1-.01.17-.03.21-.02.04-.06.05-.13.05h-2.06Zm1.61-.42c0-.11-.02-.22-.05-.32-.03-.1-.08-.18-.14-.25s-.14-.13-.23-.17-.2-.06-.32-.06c-.25,0-.44.07-.58.21s-.23.34-.27.59h1.6Z"/>
    <path class="cls-1" d="m40.51,40.42h-.6c-.09,0-.17-.01-.24-.04s-.13-.07-.19-.13l-.72-.8c-.23.07-.47.1-.73.1-.34,0-.65-.06-.92-.17s-.52-.28-.72-.48c-.2-.21-.35-.45-.46-.73-.11-.28-.16-.59-.16-.93s.05-.64.16-.93c.11-.28.26-.53.46-.73.2-.21.44-.37.72-.48s.59-.17.92-.17.65.06.93.17c.28.12.52.28.71.48.2.21.35.45.46.73.11.28.16.59.16.93,0,.21-.02.41-.06.59-.04.19-.1.36-.18.53-.08.16-.18.31-.29.45-.12.14-.25.25-.39.35l1.15,1.25Zm-4.01-3.17c0,.26.04.5.11.71.07.21.17.38.31.53.13.14.29.25.48.33.19.08.4.11.63.11s.44-.04.63-.11c.19-.08.35-.19.48-.33.13-.14.23-.32.3-.53.07-.21.1-.44.1-.71s-.04-.49-.1-.7c-.07-.21-.17-.38-.3-.53-.13-.14-.29-.26-.48-.33-.19-.08-.4-.12-.63-.12s-.44.04-.63.12c-.19.08-.35.19-.48.33-.13.14-.23.32-.31.53-.07.21-.11.44-.11.7Z"/>
    <path class="cls-1" d="m43.62,39v.51h-2.47v-.51h.94v-2.84c0-.1,0-.2,0-.31l-.73.61s-.06.04-.1.05c-.03,0-.06,0-.09,0-.03,0-.05-.02-.08-.03-.02-.01-.04-.03-.05-.05l-.21-.3,1.37-1.17h.55v4.03h.85Z"/>
    <path class="cls-1" d="m47.36,37.24c0,.4-.04.74-.13,1.03-.08.29-.2.53-.35.72-.15.19-.32.33-.53.42-.2.09-.42.14-.65.14s-.45-.05-.65-.14c-.2-.09-.38-.23-.52-.42-.15-.19-.26-.43-.35-.72-.08-.29-.13-.63-.13-1.03s.04-.74.13-1.03c.08-.29.2-.53.35-.72s.32-.33.52-.42c.2-.09.42-.14.65-.14s.45.05.65.14c.2.09.38.24.53.42s.27.43.35.72c.08.29.13.63.13,1.03Zm-.7,0c0-.34-.03-.62-.08-.84-.05-.22-.12-.4-.21-.54s-.19-.23-.31-.29-.23-.08-.36-.08-.25.03-.36.08-.22.15-.3.29c-.09.13-.16.31-.21.54-.05.22-.08.5-.08.84s.03.62.08.84c.05.22.12.4.21.54.09.13.19.23.3.29s.23.08.36.08.24-.03.36-.08.22-.15.31-.29c.09-.13.16-.31.21-.54s.08-.5.08-.84Z"/>
  </g>
  <g>
    <path class="cls-1" d="m14.78,26.48c.08,0,.16.04.22.1l.62.66c-.47.54-1.04.97-1.71,1.27-.67.3-1.48.46-2.43.46-.82,0-1.57-.14-2.24-.43-.67-.29-1.25-.69-1.72-1.2s-.84-1.13-1.1-1.85c-.26-.72-.39-1.51-.39-2.38s.14-1.66.41-2.38.65-1.34,1.15-1.86c.49-.52,1.08-.92,1.77-1.2.69-.29,1.45-.43,2.28-.43s1.54.13,2.16.39c.62.26,1.17.62,1.65,1.06l-.51.71c-.03.05-.07.1-.12.13s-.12.05-.2.05c-.1,0-.21-.05-.35-.16s-.32-.22-.54-.35-.5-.24-.84-.35-.75-.16-1.24-.16c-.59,0-1.13.1-1.62.31s-.91.5-1.27.89c-.35.39-.63.86-.83,1.42-.2.56-.3,1.19-.3,1.9s.1,1.35.31,1.91c.21.56.49,1.03.84,1.42.35.39.77.68,1.26.88.48.2,1,.3,1.56.3.34,0,.65-.02.92-.06.27-.04.53-.1.76-.19.23-.08.45-.19.65-.32.2-.13.4-.29.6-.47.09-.08.18-.12.27-.12Z"/>
    <path class="cls-1" d="m19.94,20.61c.59,0,1.13.1,1.6.3s.88.48,1.22.84c.34.36.59.8.77,1.32s.27,1.09.27,1.72-.09,1.22-.27,1.73c-.18.51-.44.95-.77,1.31-.34.36-.74.64-1.22.84-.47.19-1.01.29-1.6.29s-1.13-.1-1.61-.29c-.48-.19-.88-.47-1.22-.84-.34-.36-.59-.8-.77-1.31-.18-.51-.27-1.09-.27-1.73s.09-1.21.27-1.72.44-.95.77-1.32c.34-.36.74-.64,1.22-.84.48-.2,1.01-.3,1.61-.3Zm0,7.23c.8,0,1.4-.27,1.79-.8.39-.54.59-1.28.59-2.24s-.2-1.72-.59-2.26c-.39-.54-.99-.81-1.79-.81-.41,0-.76.07-1.06.21s-.55.34-.75.6c-.2.26-.35.58-.45.96-.1.38-.15.81-.15,1.29,0,.96.2,1.71.6,2.24.4.54,1,.8,1.81.8Z"/>
    <path class="cls-1" d="m36.55,31.21h-1.28c-.19,0-.36-.03-.51-.08s-.29-.15-.41-.28l-2.01-2.19c-.61.2-1.27.3-1.98.3-.84,0-1.61-.14-2.3-.43-.69-.29-1.29-.69-1.78-1.2-.5-.52-.88-1.13-1.15-1.85s-.41-1.51-.41-2.36.14-1.65.41-2.36.66-1.34,1.15-1.86c.5-.52,1.09-.92,1.78-1.21s1.46-.43,2.3-.43,1.61.14,2.31.43c.7.29,1.29.69,1.79,1.21.5.52.88,1.14,1.15,1.86.27.72.41,1.51.41,2.36,0,.54-.05,1.05-.16,1.54s-.27.94-.48,1.36-.46.8-.76,1.14c-.3.34-.63.64-1.01.89l2.94,3.18Zm-10.25-8.1c0,.7.1,1.33.29,1.89.19.56.47,1.03.82,1.42.35.39.78.68,1.28.89.5.21,1.06.31,1.67.31s1.18-.1,1.68-.31c.5-.21.93-.5,1.28-.89s.62-.86.82-1.42.29-1.19.29-1.89-.1-1.34-.29-1.9-.46-1.03-.82-1.42-.78-.68-1.28-.89-1.06-.31-1.68-.31-1.17.1-1.67.31c-.5.21-.93.51-1.28.89-.35.39-.63.86-.82,1.42-.19.56-.29,1.19-.29,1.9Z"/>
    <path class="cls-1" d="m44.51,27.76v1.09h-6.14v-1.09h2.46v-7.82c0-.23,0-.47.02-.71l-2.04,1.75c-.07.06-.14.09-.21.11s-.13.01-.19,0-.11-.03-.16-.06c-.05-.03-.09-.07-.12-.1l-.45-.62,3.42-2.95h1.16v10.4h2.26Z"/>
    <path class="cls-1" d="m54.04,23.12c0,1-.11,1.87-.32,2.6-.22.73-.51,1.34-.88,1.82-.37.48-.81.84-1.32,1.07-.51.23-1.05.35-1.64.35s-1.13-.12-1.64-.35c-.5-.23-.94-.59-1.32-1.07-.37-.48-.67-1.09-.88-1.82s-.32-1.6-.32-2.6.11-1.87.32-2.61.51-1.35.88-1.83c.37-.48.81-.84,1.32-1.08.5-.23,1.05-.35,1.64-.35s1.13.12,1.64.35c.51.23.95.59,1.32,1.08.37.48.67,1.09.88,1.83.22.74.32,1.61.32,2.61Zm-1.48,0c0-.87-.07-1.61-.22-2.2-.15-.59-.34-1.07-.59-1.44-.25-.36-.53-.62-.86-.78s-.66-.24-1.02-.24-.69.08-1.02.24c-.33.16-.61.42-.86.78-.25.36-.44.84-.59,1.44-.15.59-.22,1.33-.22,2.2s.07,1.61.22,2.2c.15.59.34,1.07.59,1.43.25.36.53.62.86.78.33.16.66.24,1.02.24s.69-.08,1.02-.24.61-.42.86-.78c.25-.36.45-.84.59-1.43.15-.59.22-1.33.22-2.2Z"/>
  </g>
</svg>