<?xml version="1.0" encoding="UTF-8"?>
<svg id="Layer_1" data-name="Layer 1" xmlns="http://www.w3.org/2000/svg" viewBox="0 0 87.75 87.75">
  <defs>
    <style>
      .cls-1 {
        fill: #0b20b6;
      }

      .cls-1, .cls-2 {
        stroke-width: 0px;
      }

      .cls-2 {
        fill: #cb5d9f;
      }
    </style>
  </defs>
  <path class="cls-1" d="m70.68,73.49c-.64,0-1.28-.24-1.77-.73-.47-.47-.73-1.1-.73-1.77s.26-1.3.73-1.77h0c.97-.97,2.56-.97,3.54,0s.98,2.56,0,3.54c-.49.49-1.13.73-1.77.73Zm0-4.5c-.51,0-1.02.19-1.41.58h0c-.38.38-.59.88-.59,1.42s.21,1.04.59,1.41c.76.76,2.07.76,2.83,0s.78-2.05,0-2.83c-.39-.39-.9-.58-1.41-.58Z"/>
  <path class="cls-1" d="m64.31,67.12c-.64,0-1.28-.24-1.77-.73-.97-.98-.97-2.56,0-3.54.97-.98,2.56-.97,3.54,0,.97.97.97,2.56,0,3.54-.49.49-1.13.73-1.77.73Zm0-4.5c-.51,0-1.02.19-1.42.58-.78.78-.78,2.05,0,2.83.78.78,2.05.78,2.83,0,.78-.78.78-2.05,0-2.83-.39-.39-.9-.58-1.41-.58Z"/>
  <path class="cls-1" d="m77.04,79.86c-.67,0-1.3-.26-1.77-.73-.98-.97-.97-2.56,0-3.54h0c.47-.47,1.1-.73,1.77-.73s1.3.26,1.77.73c.98.98.98,2.56,0,3.54-.47.47-1.1.73-1.77.73Zm0-4.5c-.53,0-1.04.21-1.42.59h0c-.78.78-.78,2.05,0,2.83.76.76,2.07.76,2.83,0,.78-.78.78-2.05,0-2.83-.38-.38-.88-.59-1.41-.59Z"/>
  <path class="cls-1" d="m70.68,73.49c-.64,0-1.28-.24-1.77-.73-.47-.47-.73-1.1-.73-1.77s.26-1.3.73-1.77h0c.97-.97,2.56-.97,3.54,0s.98,2.56,0,3.54c-.49.49-1.13.73-1.77.73Zm0-4.5c-.51,0-1.02.19-1.41.58h0c-.38.38-.59.88-.59,1.42s.21,1.04.59,1.41c.76.76,2.07.76,2.83,0s.78-2.05,0-2.83c-.39-.39-.9-.58-1.41-.58Z"/>
  <path class="cls-1" d="m64.31,67.12c-.64,0-1.28-.24-1.77-.73-.97-.98-.97-2.56,0-3.54.97-.98,2.56-.97,3.54,0,.97.97.97,2.56,0,3.54-.49.49-1.13.73-1.77.73Zm0-4.5c-.51,0-1.02.19-1.42.58-.78.78-.78,2.05,0,2.83.78.78,2.05.78,2.83,0,.78-.78.78-2.05,0-2.83-.39-.39-.9-.58-1.41-.58Z"/>
  <path class="cls-1" d="m77.04,79.86c-.67,0-1.3-.26-1.77-.73-.98-.97-.97-2.56,0-3.54h0c.47-.47,1.1-.73,1.77-.73s1.3.26,1.77.73c.98.98.98,2.56,0,3.54-.47.47-1.1.73-1.77.73Zm0-4.5c-.53,0-1.04.21-1.42.59h0c-.78.78-.78,2.05,0,2.83.76.76,2.07.76,2.83,0,.78-.78.78-2.05,0-2.83-.38-.38-.88-.59-1.41-.59Z"/>
  <rect class="cls-2" x=".25" y=".25" width="29.08" height="3.49"/>
  <path class="cls-1" d="m87.75,87.75H0V0h87.75v87.75Zm-87.25-.5h86.75V.5H.5v86.75Z"/>
  <rect class="cls-1" x="6.36" y="47.78" width="75.03" height=".5"/>
  <g>
    <path class="cls-1" d="m10.07,37.28v1.79c-.45.33-.98.49-1.57.49-.37,0-.7-.06-1-.17s-.55-.27-.76-.48c-.21-.2-.37-.45-.48-.73s-.17-.59-.17-.93.05-.66.16-.94c.11-.28.27-.53.47-.73.2-.2.45-.36.74-.47.29-.11.61-.17.97-.17.18,0,.35.01.51.04s.3.07.44.12c.13.05.26.11.37.18s.22.15.31.24l-.21.34c-.03.05-.08.08-.13.1-.05.01-.11,0-.17-.04-.06-.04-.13-.07-.19-.11-.07-.04-.15-.08-.23-.11-.09-.03-.19-.06-.31-.08-.12-.02-.25-.03-.41-.03-.24,0-.45.04-.65.12-.19.08-.36.19-.49.34s-.24.32-.31.53c-.07.21-.11.44-.11.7,0,.27.04.51.12.73.08.21.19.39.33.54s.32.26.52.34c.2.08.43.12.68.12.19,0,.35-.02.5-.06.15-.04.29-.09.43-.17v-.9h-.63s-.09-.01-.11-.04-.04-.06-.04-.1v-.42h1.45Z"/>
    <path class="cls-1" d="m11.33,34.85v4.66h-.68v-4.66h.68Z"/>
    <path class="cls-1" d="m14.71,36.3v3.21h-.41c-.09,0-.15-.04-.17-.13l-.05-.3c-.07.07-.14.14-.21.2-.07.06-.15.11-.24.15-.08.04-.17.07-.27.1-.1.02-.2.04-.31.04-.18,0-.33-.03-.47-.09s-.25-.14-.34-.25c-.09-.11-.16-.24-.21-.39-.05-.15-.07-.32-.07-.5v-2.04h.68v2.04c0,.22.05.38.15.5.1.12.25.18.46.18.15,0,.29-.03.42-.1.13-.07.25-.16.36-.28v-2.34h.68Z"/>
    <path class="cls-1" d="m16.41,39.56c-.27,0-.47-.08-.61-.23-.14-.15-.22-.36-.22-.63v-1.87h-.35s-.07-.01-.1-.04c-.03-.02-.04-.06-.04-.11v-.27l.52-.08.15-.93s.03-.07.05-.09c.02-.02.06-.03.1-.03h.35v1.05h.89v.49h-.89v1.82c0,.12.03.2.08.26.06.06.13.09.23.09.05,0,.1,0,.14-.02.04-.01.07-.03.1-.04.03-.02.05-.03.07-.04.02-.01.04-.02.06-.02.04,0,.07.02.09.06l.2.33c-.1.09-.23.16-.37.21-.14.05-.29.07-.44.07Z"/>
    <path class="cls-1" d="m17.44,36.75c.36-.34.79-.51,1.3-.51.18,0,.35.03.49.09.14.06.26.14.36.25.1.11.17.24.22.39.05.15.08.32.08.5v2.04h-.3c-.07,0-.11,0-.15-.03-.03-.02-.06-.06-.08-.12l-.07-.26c-.08.07-.16.14-.24.2s-.16.11-.25.15-.18.07-.27.09c-.1.02-.21.03-.32.03-.13,0-.25-.02-.36-.05-.11-.04-.21-.09-.29-.16-.08-.07-.15-.16-.19-.27-.05-.11-.07-.23-.07-.38,0-.12.03-.25.1-.36.07-.12.18-.22.33-.32.15-.09.35-.17.6-.23.25-.06.56-.09.92-.1v-.21c0-.23-.05-.4-.15-.52s-.24-.17-.43-.17c-.13,0-.24.02-.33.05-.09.03-.16.07-.23.1-.07.04-.12.07-.17.11-.05.03-.1.05-.16.05-.05,0-.09-.01-.12-.04-.03-.02-.06-.05-.08-.09l-.12-.22Zm1.79,1.36c-.24,0-.44.03-.61.06-.17.03-.3.07-.4.12-.1.05-.18.1-.22.17-.04.07-.07.14-.07.21s.01.14.04.19c.02.05.06.1.1.13.04.03.09.06.15.08s.12.02.19.02c.18,0,.33-.03.45-.1.13-.07.25-.16.37-.29v-.59Z"/>
    <path class="cls-1" d="m21.51,39.56c-.27,0-.47-.08-.61-.23-.14-.15-.22-.36-.22-.63v-1.87h-.35s-.07-.01-.1-.04c-.03-.02-.04-.06-.04-.11v-.27l.52-.08.15-.93s.03-.07.05-.09c.02-.02.06-.03.1-.03h.35v1.05h.89v.49h-.89v1.82c0,.12.03.2.08.26.06.06.13.09.23.09.05,0,.1,0,.14-.02.04-.01.07-.03.1-.04.03-.02.05-.03.07-.04.02-.01.04-.02.06-.02.04,0,.07.02.09.06l.2.33c-.1.09-.23.16-.37.21-.14.05-.29.07-.44.07Z"/>
    <path class="cls-1" d="m23.3,36.68c.13-.13.28-.23.43-.31.16-.08.34-.12.55-.12.18,0,.33.03.46.09s.25.14.34.25c.09.11.16.24.21.38.05.15.07.32.07.5v2.04h-.67v-2.04c0-.22-.05-.38-.15-.5-.1-.12-.25-.18-.46-.18-.15,0-.29.03-.42.1s-.25.16-.36.28v2.34h-.68v-4.66h.68v1.83Z"/>
    <path class="cls-1" d="m26.82,35.33c0,.06-.01.12-.04.17-.02.05-.06.1-.1.14s-.09.07-.15.1c-.06.02-.11.04-.18.04s-.12-.01-.17-.04c-.05-.02-.1-.06-.14-.1-.04-.04-.07-.09-.1-.14-.02-.05-.04-.11-.04-.17s.01-.12.04-.18c.02-.05.06-.1.1-.14.04-.04.09-.07.14-.1.05-.02.11-.04.17-.04s.12.01.18.04.1.06.15.1.07.09.1.14c.02.05.04.11.04.18Zm-.11.97v3.21h-.68v-3.21h.68Z"/>
    <path class="cls-1" d="m28.79,36.25c.24,0,.45.04.64.12.19.08.36.19.49.33s.24.32.31.52c.07.2.11.43.11.69s-.04.48-.11.69c-.07.2-.18.38-.31.52s-.3.25-.49.33c-.19.08-.41.12-.64.12s-.45-.04-.65-.12c-.19-.08-.36-.19-.49-.33-.14-.14-.24-.32-.31-.52-.07-.2-.11-.43-.11-.69s.04-.48.11-.69c.07-.2.18-.38.31-.52.14-.14.3-.25.49-.33.19-.08.41-.12.65-.12Zm0,2.78c.29,0,.5-.1.65-.29s.21-.47.21-.83-.07-.64-.21-.84-.36-.29-.65-.29-.51.1-.65.29-.21.47-.21.84.07.64.21.83.36.29.65.29Z"/>
    <path class="cls-1" d="m31.47,36.72c.07-.07.14-.14.22-.19.07-.06.15-.11.24-.15.08-.04.17-.07.27-.1.09-.02.2-.03.31-.03.18,0,.33.03.46.09s.25.14.34.25c.09.11.16.24.21.38.05.15.07.32.07.5v2.04h-.67v-2.04c0-.22-.05-.38-.15-.5-.1-.12-.25-.18-.46-.18-.15,0-.29.03-.42.1s-.25.16-.36.28v2.34h-.68v-3.21h.41c.09,0,.15.04.18.13l.05.29Z"/>
    <path class="cls-1" d="m34.7,37.96c0,.18.04.34.08.47.05.13.11.24.19.33.08.09.18.15.29.2.11.04.24.06.38.06s.25-.02.34-.05c.1-.03.18-.06.25-.1s.13-.07.18-.1c.05-.03.1-.05.14-.05.05,0,.1.02.13.06l.19.25c-.08.09-.17.17-.27.24s-.21.12-.32.16-.23.07-.35.09-.24.03-.35.03c-.22,0-.43-.04-.62-.11-.19-.07-.35-.18-.49-.33-.14-.14-.25-.32-.33-.54-.08-.21-.12-.46-.12-.74,0-.22.04-.43.11-.62s.17-.36.3-.5c.13-.14.29-.26.48-.34.19-.08.4-.12.64-.12.2,0,.38.03.55.1.17.06.31.16.43.28.12.12.22.27.28.45.07.18.1.38.1.61,0,.1-.01.17-.03.21-.02.04-.06.05-.13.05h-2.06Zm1.61-.42c0-.11-.02-.22-.05-.32-.03-.1-.08-.18-.14-.25s-.14-.13-.23-.17-.2-.06-.32-.06c-.25,0-.44.07-.58.21s-.23.34-.27.59h1.6Z"/>
  </g>
  <g>
    <path class="cls-1" d="m74.71,7.9c-.05.07-.1.13-.15.19-.05.06-.1.12-.14.18.15-.09.32-.15.5-.2.18-.05.38-.08.59-.08.28,0,.55.05.8.14.26.09.48.23.68.41.19.18.35.41.47.67.12.27.17.58.17.92s-.06.64-.18.93c-.12.29-.29.54-.51.76-.22.21-.48.38-.79.51-.31.12-.65.19-1.02.19s-.71-.06-1.01-.18c-.3-.12-.55-.29-.77-.51-.21-.22-.37-.48-.49-.79-.11-.31-.17-.65-.17-1.02,0-.33.07-.67.21-1.02s.36-.73.65-1.12l1.77-2.37c.05-.07.13-.13.23-.18.1-.05.22-.08.34-.08h.95l-2.13,2.64Zm.39,3.73c.22,0,.41-.04.59-.11s.33-.17.46-.3c.13-.13.23-.28.3-.45s.1-.36.1-.56c0-.22-.03-.42-.1-.59-.07-.17-.17-.32-.29-.44-.12-.12-.27-.21-.45-.28-.17-.06-.37-.1-.58-.1s-.41.04-.59.11c-.17.07-.32.17-.45.3-.12.13-.22.27-.28.44s-.1.35-.1.54c0,.21.03.41.09.58.06.18.15.33.26.45.12.12.26.22.43.29.17.07.37.11.59.11Z"/>
    <path class="cls-1" d="m82.46,11.42c.12,0,.21.03.27.1s.1.16.1.26v.65h-4.86v-.36c0-.07.02-.15.04-.23s.08-.15.14-.22l2.23-2.24c.19-.19.36-.37.51-.54.15-.17.27-.35.38-.52.1-.17.18-.35.24-.53.06-.18.08-.37.08-.56s-.03-.36-.09-.5-.14-.26-.24-.36c-.1-.09-.22-.17-.36-.21-.14-.05-.3-.07-.47-.07s-.31.02-.45.07c-.14.05-.26.11-.37.19-.11.08-.2.18-.27.3-.07.11-.12.24-.16.38-.05.14-.11.23-.19.27-.08.05-.19.06-.34.03l-.56-.1c.05-.34.14-.64.28-.89.14-.26.31-.47.52-.64.21-.17.45-.3.72-.39.27-.09.56-.13.88-.13s.61.05.88.14.5.23.69.4c.19.17.35.39.46.64s.16.53.16.84c0,.27-.04.51-.12.74-.08.23-.18.44-.32.65-.13.21-.29.41-.47.6-.18.2-.36.39-.56.59l-1.74,1.78c.14-.04.29-.07.43-.09s.28-.04.41-.04h2.11Z"/>
  </g>
  <g>
    <path class="cls-1" d="m16.12,23.33v4.4c-.58.42-1.19.73-1.84.93-.65.21-1.37.31-2.15.31-.92,0-1.75-.14-2.5-.43-.74-.29-1.38-.69-1.9-1.2-.53-.51-.93-1.13-1.21-1.85-.28-.72-.42-1.51-.42-2.38s.14-1.67.41-2.39c.27-.72.67-1.34,1.17-1.85.51-.51,1.12-.91,1.85-1.2.73-.28,1.54-.42,2.43-.42.45,0,.87.03,1.26.1.39.07.75.16,1.08.29.33.13.64.28.92.46s.55.38.79.6l-.44.7c-.07.11-.16.17-.27.2s-.23,0-.36-.08c-.13-.07-.27-.17-.44-.27-.17-.11-.37-.21-.6-.31s-.52-.18-.84-.25-.71-.1-1.15-.1c-.65,0-1.23.11-1.75.32-.52.21-.97.51-1.34.9-.37.39-.65.87-.85,1.42-.2.56-.3,1.18-.3,1.88s.1,1.36.31,1.93c.21.57.5,1.05.88,1.45.38.4.84.7,1.39.91s1.15.31,1.83.31c.53,0,1.01-.06,1.42-.18.41-.12.82-.29,1.21-.5v-2.52h-1.78c-.1,0-.18-.03-.24-.09-.06-.06-.09-.13-.09-.22v-.88h3.52Z"/>
    <path class="cls-1" d="m19.16,17.06v11.78h-1.42v-11.78h1.42Z"/>
  </g>
</svg>