<?xml version="1.0" encoding="UTF-8"?>
<svg id="Layer_1" data-name="Layer 1" xmlns="http://www.w3.org/2000/svg" viewBox="0 0 87.75 87.75">
  <defs>
    <style>
      .cls-1 {
        fill: #0b20b6;
      }

      .cls-1, .cls-2 {
        stroke-width: 0px;
      }

      .cls-2 {
        fill: #c0d239;
      }
    </style>
  </defs>
  <polygon class="cls-1" points="73.4 82.23 66.94 62.84 63.88 71.99 59.4 71.99 59.4 71.49 63.52 71.49 66.94 61.26 73.4 80.65 76.45 71.49 80.94 71.49 80.94 71.99 76.81 71.99 73.4 82.23"/>
  <rect class="cls-2" x=".25" y=".25" width="29.08" height="3.49"/>
  <path class="cls-1" d="m87.75,87.75H0V0h87.75v87.75Zm-87.25-.5h86.75V.5H.5v86.75Z"/>
  <rect class="cls-1" x="6.36" y="47.78" width="75.03" height=".5"/>
  <g>
    <path class="cls-1" d="m11.18,34.98v4.53h-.65v-3.11c0-.05,0-.11,0-.17,0-.06,0-.12.01-.18l-1.46,2.69c-.06.11-.14.17-.26.17h-.1c-.12,0-.21-.06-.26-.17l-1.48-2.7c0,.06.01.12.01.18,0,.06,0,.12,0,.17v3.11h-.65v-4.53h.55c.06,0,.12,0,.15.02s.07.05.1.11l1.45,2.63c.03.06.06.12.09.19.03.06.05.13.08.2.02-.07.05-.13.08-.2.03-.07.06-.13.09-.19l1.43-2.63c.03-.06.06-.09.1-.11.04-.01.09-.02.15-.02h.55Z"/>
    <path class="cls-1" d="m11.81,36.75c.36-.34.79-.51,1.3-.51.18,0,.35.03.49.09.14.06.26.14.36.25.1.11.17.24.22.39.05.15.08.32.08.5v2.04h-.3c-.07,0-.11,0-.15-.03-.03-.02-.06-.06-.08-.12l-.07-.26c-.08.07-.16.14-.24.2s-.16.11-.25.15-.18.07-.27.09c-.1.02-.21.03-.32.03-.13,0-.25-.02-.36-.05-.11-.04-.21-.09-.29-.16-.08-.07-.15-.16-.19-.27-.05-.11-.07-.23-.07-.38,0-.12.03-.25.1-.36.07-.12.18-.22.33-.32.15-.09.35-.17.6-.23.25-.06.56-.09.92-.1v-.21c0-.23-.05-.4-.15-.52s-.24-.17-.43-.17c-.13,0-.24.02-.33.05-.09.03-.16.07-.23.1-.07.04-.12.07-.17.11-.05.03-.1.05-.16.05-.05,0-.09-.01-.12-.04-.03-.02-.06-.05-.08-.09l-.12-.22Zm1.79,1.36c-.24,0-.44.03-.61.06-.17.03-.3.07-.4.12-.1.05-.18.1-.22.17-.04.07-.07.14-.07.21s.01.14.04.19c.02.05.06.1.1.13.04.03.09.06.15.08s.12.02.19.02c.18,0,.33-.03.45-.1.13-.07.25-.16.37-.29v-.59Z"/>
    <path class="cls-1" d="m17.66,36.42v.25c0,.08-.05.14-.15.15l-.32.05c.05.12.08.26.08.41,0,.16-.03.3-.09.43-.06.13-.15.24-.26.33-.11.09-.24.16-.39.21-.15.05-.31.07-.49.07-.07,0-.13,0-.2-.01-.06,0-.13-.02-.19-.03-.06.04-.11.07-.14.11-.03.04-.04.08-.04.12,0,.07.03.12.09.15.06.03.14.06.24.07s.21.02.34.03c.13,0,.26.01.39.02.13.01.26.03.39.05.13.02.24.06.34.12s.18.13.24.22c.06.09.09.22.09.37,0,.14-.03.27-.1.41-.07.13-.17.25-.3.35-.13.1-.29.18-.48.25-.19.06-.4.09-.65.09s-.45-.02-.62-.07c-.18-.05-.33-.11-.44-.19s-.21-.17-.26-.27c-.06-.1-.09-.21-.09-.32,0-.15.05-.28.14-.39.1-.11.22-.19.39-.25-.09-.04-.16-.1-.21-.17-.05-.07-.08-.17-.08-.29,0-.09.03-.19.1-.3s.17-.19.31-.26c-.16-.09-.29-.21-.38-.35-.09-.15-.14-.32-.14-.51,0-.16.03-.3.09-.43s.15-.24.26-.33c.11-.09.24-.16.4-.21.15-.05.32-.07.5-.07.28,0,.52.06.72.17h.9Zm-.68,3.25c0-.07-.02-.13-.06-.17-.04-.04-.1-.08-.17-.1-.07-.02-.15-.04-.24-.05-.09-.01-.19-.02-.29-.03s-.21-.01-.32-.02c-.11,0-.21-.02-.31-.03-.1.05-.18.12-.25.19-.06.07-.1.16-.1.25,0,.06.02.12.05.18.03.05.08.1.15.14.07.04.16.07.26.09.11.02.23.03.38.03.3,0,.52-.05.67-.14.15-.09.22-.21.22-.36Zm-.94-1.79c.21,0,.37-.05.47-.16.1-.11.16-.25.16-.42s-.05-.32-.16-.42c-.1-.1-.26-.15-.47-.15s-.36.05-.47.15c-.11.1-.16.24-.16.42,0,.08.01.16.04.23s.07.13.12.18c.05.05.12.09.2.12.08.03.17.04.27.04Z"/>
    <path class="cls-1" d="m18.67,36.72c.07-.07.14-.14.22-.19.07-.06.15-.11.24-.15.08-.04.17-.07.27-.1.09-.02.2-.03.31-.03.18,0,.33.03.46.09s.25.14.34.25c.09.11.16.24.21.38.05.15.07.32.07.5v2.04h-.67v-2.04c0-.22-.05-.38-.15-.5-.1-.12-.25-.18-.46-.18-.15,0-.29.03-.42.1s-.25.16-.36.28v2.34h-.68v-3.21h.41c.09,0,.15.04.18.13l.05.29Z"/>
    <path class="cls-1" d="m21.9,37.96c0,.18.04.34.08.47.05.13.11.24.19.33.08.09.18.15.29.2.11.04.24.06.38.06s.25-.02.34-.05c.1-.03.18-.06.25-.1s.13-.07.18-.1c.05-.03.1-.05.14-.05.05,0,.1.02.13.06l.19.25c-.08.09-.17.17-.27.24s-.21.12-.32.16-.23.07-.35.09-.24.03-.35.03c-.22,0-.43-.04-.62-.11-.19-.07-.35-.18-.49-.33-.14-.14-.25-.32-.33-.54-.08-.21-.12-.46-.12-.74,0-.22.04-.43.11-.62s.17-.36.3-.5c.13-.14.29-.26.48-.34.19-.08.4-.12.64-.12.2,0,.38.03.55.1.17.06.31.16.43.28.12.12.22.27.28.45.07.18.1.38.1.61,0,.1-.01.17-.03.21-.02.04-.06.05-.13.05h-2.06Zm1.61-.42c0-.11-.02-.22-.05-.32-.03-.1-.08-.18-.14-.25s-.14-.13-.23-.17-.2-.06-.32-.06c-.25,0-.44.07-.58.21s-.23.34-.27.59h1.6Z"/>
    <path class="cls-1" d="m26.51,36.88s-.04.05-.06.06-.05.02-.08.02c-.04,0-.07-.01-.12-.03-.04-.02-.09-.05-.15-.07s-.12-.05-.2-.07-.17-.03-.27-.03c-.08,0-.16,0-.23.03-.07.02-.13.05-.17.08-.05.04-.08.08-.11.13-.02.05-.04.1-.04.16,0,.08.02.14.07.19.05.05.11.09.18.13.08.04.16.07.26.1.1.03.19.06.3.09.1.03.2.07.3.12.1.04.18.1.26.16.08.06.14.14.18.23.05.09.07.2.07.33,0,.15-.03.29-.08.42-.05.13-.13.24-.24.33-.1.09-.24.17-.39.22s-.34.08-.54.08c-.11,0-.22-.01-.32-.03-.1-.02-.2-.05-.3-.08-.09-.03-.18-.08-.26-.12-.08-.05-.15-.1-.22-.16l.16-.26s.04-.06.07-.07.06-.03.1-.03c.04,0,.09.01.13.04s.09.06.15.09.13.06.21.09c.08.03.18.04.31.04.1,0,.19-.01.26-.04.07-.02.13-.06.18-.1.05-.04.08-.09.11-.14.02-.05.03-.11.03-.17,0-.08-.02-.15-.07-.2-.05-.05-.11-.1-.18-.14-.08-.04-.16-.07-.26-.1s-.2-.06-.3-.09c-.1-.03-.2-.07-.3-.12s-.18-.1-.26-.17c-.08-.07-.14-.15-.18-.25-.05-.1-.07-.22-.07-.36,0-.13.03-.25.08-.36.05-.12.13-.22.23-.31s.22-.16.37-.21c.15-.05.31-.08.5-.08.22,0,.41.03.59.1.18.07.32.16.44.28l-.15.25Z"/>
    <path class="cls-1" d="m28,35.33c0,.06-.01.12-.04.17-.02.05-.06.1-.1.14s-.09.07-.15.1c-.06.02-.11.04-.18.04s-.12-.01-.17-.04c-.05-.02-.1-.06-.14-.1-.04-.04-.07-.09-.1-.14-.02-.05-.04-.11-.04-.17s.01-.12.04-.18c.02-.05.06-.1.1-.14.04-.04.09-.07.14-.1.05-.02.11-.04.17-.04s.12.01.18.04.1.06.15.1.07.09.1.14c.02.05.04.11.04.18Zm-.11.97v3.21h-.68v-3.21h.68Z"/>
    <path class="cls-1" d="m31.29,36.3v3.21h-.41c-.09,0-.15-.04-.17-.13l-.05-.3c-.07.07-.14.14-.21.2-.07.06-.15.11-.24.15-.08.04-.17.07-.27.1-.1.02-.2.04-.31.04-.18,0-.33-.03-.47-.09s-.25-.14-.34-.25c-.09-.11-.16-.24-.21-.39-.05-.15-.07-.32-.07-.5v-2.04h.68v2.04c0,.22.05.38.15.5.1.12.25.18.46.18.15,0,.29-.03.42-.1.13-.07.25-.16.36-.28v-2.34h.68Z"/>
    <path class="cls-1" d="m31.96,39.51v-3.21h.41c.09,0,.15.04.18.13l.04.28c.06-.07.12-.13.18-.18s.13-.1.2-.14c.07-.04.15-.07.23-.1.08-.02.17-.03.27-.03.1,0,.2.01.28.04s.16.07.23.13c.07.05.12.12.17.2.05.08.09.16.12.26.05-.11.11-.21.18-.29.07-.08.16-.14.25-.2.09-.05.19-.09.29-.11.1-.02.21-.04.31-.04.17,0,.33.03.46.08s.25.13.34.24.16.23.21.38c.05.15.07.32.07.52v2.04h-.68v-2.04c0-.23-.05-.4-.15-.51s-.24-.17-.43-.17c-.09,0-.17.01-.24.04-.08.03-.14.07-.2.13s-.1.13-.13.21c-.03.08-.05.18-.05.3v2.04h-.68v-2.04c0-.24-.05-.41-.14-.52-.09-.11-.23-.17-.42-.17-.13,0-.24.03-.35.1-.11.06-.21.15-.3.26v2.37h-.68Z"/>
  </g>
  <g>
    <path class="cls-1" d="m77.13,11.42c.12,0,.21.03.27.1s.1.16.1.26v.65h-4.86v-.36c0-.07.02-.15.04-.23s.08-.15.14-.22l2.23-2.24c.19-.19.36-.37.51-.54.15-.17.27-.35.38-.52.1-.17.18-.35.24-.53.06-.18.08-.37.08-.56s-.03-.36-.09-.5-.14-.26-.24-.36c-.1-.09-.22-.17-.36-.21-.14-.05-.3-.07-.47-.07s-.31.02-.45.07c-.14.05-.26.11-.37.19-.11.08-.2.18-.27.3-.07.11-.12.24-.16.38-.05.14-.11.23-.19.27-.08.05-.19.06-.34.03l-.56-.1c.05-.34.14-.64.28-.89.14-.26.31-.47.52-.64.21-.17.45-.3.72-.39.27-.09.56-.13.88-.13s.61.05.88.14.5.23.69.4c.19.17.35.39.46.64s.16.53.16.84c0,.27-.04.51-.12.74-.08.23-.18.44-.32.65-.13.21-.29.41-.47.6-.18.2-.36.39-.56.59l-1.74,1.78c.14-.04.29-.07.43-.09s.28-.04.41-.04h2.11Z"/>
    <path class="cls-1" d="m82.68,11.62v.81h-3.92v-.81h1.5v-4.5c0-.16,0-.32.02-.49l-1.15.97s-.1.07-.15.08c-.05.01-.1.01-.14,0-.04-.01-.08-.03-.12-.05-.04-.02-.06-.05-.08-.07l-.33-.47,2.16-1.86h.87v6.38h1.35Z"/>
  </g>
  <g>
    <path class="cls-1" d="m18.3,17.38v11.46h-1.36v-8.42c0-.11,0-.23.01-.36,0-.13.02-.26.03-.39l-3.94,7.17c-.12.24-.31.36-.56.36h-.22c-.25,0-.44-.12-.56-.36l-4.02-7.2c.03.28.05.54.05.78v8.42h-1.36v-11.46h1.14c.14,0,.25.01.32.04.07.03.15.1.22.22l3.96,7.06c.06.13.13.26.19.4.06.14.12.28.17.42.05-.14.11-.29.17-.43.06-.14.12-.28.19-.4l3.89-7.05c.06-.12.13-.2.21-.22.08-.03.19-.04.32-.04h1.14Z"/>
    <path class="cls-1" d="m27.07,21.06v.53c0,.18-.11.29-.34.34l-.92.12c.18.35.27.74.27,1.17,0,.39-.08.75-.23,1.08-.15.32-.36.6-.63.83-.27.23-.59.41-.96.53-.37.12-.78.18-1.22.18-.38,0-.74-.04-1.07-.14-.17.11-.3.22-.39.34-.09.12-.14.24-.14.36,0,.19.08.34.24.44.16.1.36.17.62.21.26.04.55.07.88.08.33.01.66.03,1.01.05.34.02.68.07,1.01.12s.62.15.88.29.46.32.62.55c.16.23.24.54.24.91,0,.35-.09.68-.26,1.01s-.42.61-.75.87c-.33.25-.72.46-1.2.61-.47.15-1,.23-1.6.23s-1.11-.06-1.55-.18c-.44-.12-.81-.27-1.1-.47s-.51-.43-.66-.68c-.15-.26-.22-.53-.22-.81,0-.4.12-.74.38-1.02.25-.28.59-.5,1.03-.66-.24-.11-.43-.25-.57-.43-.14-.18-.21-.42-.21-.72,0-.12.02-.24.06-.36.04-.13.11-.25.2-.38s.2-.24.32-.36c.13-.11.28-.21.45-.3-.4-.22-.71-.52-.94-.89-.22-.37-.34-.8-.34-1.29,0-.4.08-.75.23-1.08s.36-.6.64-.82c.27-.23.6-.4.97-.52.38-.12.79-.18,1.24-.18.35,0,.68.04.98.12.3.08.58.19.83.34h2.2Zm-1.45,8.22c0-.2-.06-.36-.17-.48s-.26-.22-.45-.29-.41-.12-.66-.15c-.25-.03-.52-.05-.8-.07-.28-.02-.56-.03-.85-.05-.29-.02-.56-.04-.83-.08-.3.14-.54.31-.73.52-.19.21-.28.46-.28.74,0,.18.05.35.14.51.09.16.24.29.43.41s.43.21.72.27c.29.07.63.1,1.03.1s.73-.03,1.03-.1c.3-.07.56-.17.77-.3.21-.13.37-.28.48-.46.11-.18.17-.37.17-.58Zm-2.57-4.4c.29,0,.54-.04.76-.12s.4-.19.55-.34c.15-.14.26-.32.34-.52.07-.2.11-.42.11-.66,0-.5-.15-.89-.45-1.18s-.74-.44-1.31-.44-1.02.15-1.32.44c-.3.29-.45.69-.45,1.18,0,.24.04.46.12.66.08.2.19.37.34.52.15.14.33.26.55.34s.47.12.76.12Z"/>
  </g>
</svg>