<?xml version="1.0" encoding="UTF-8"?>
<svg id="Layer_1" data-name="Layer 1" xmlns="http://www.w3.org/2000/svg" viewBox="0 0 87.75 87.75">
  <defs>
    <style>
      .cls-1 {
        fill: #0b20b6;
      }

      .cls-1, .cls-2 {
        stroke-width: 0px;
      }

      .cls-2 {
        fill: #cb5d9f;
      }
    </style>
  </defs>
  <path class="cls-1" d="m78.5,80.94h-15.08c-1.33,0-2.4-1.08-2.4-2.4v-15.08c0-1.33,1.08-2.4,2.4-2.4h15.08c1.33,0,2.41,1.08,2.41,2.4v15.08c0,1.33-1.08,2.4-2.41,2.4Zm-15.08-19.39c-1.05,0-1.9.85-1.9,1.9v15.08c0,1.05.85,1.9,1.9,1.9h15.08c1.05,0,1.91-.85,1.91-1.9v-15.08c0-1.05-.85-1.9-1.91-1.9h-15.08Z"/>
  <rect class="cls-1" x="66.65" y="70.74" width="8.62" height=".5"/>
  <rect class="cls-2" x=".25" y=".25" width="29.08" height="3.49"/>
  <path class="cls-1" d="m87.75,87.75H0V0h87.75v87.75Zm-87.25-.5h86.75V.5H.5v86.75Z"/>
  <rect class="cls-1" x="6.36" y="47.78" width="75.03" height=".5"/>
  <g>
    <path class="cls-1" d="m10.11,34.98v4.53h-.37c-.06,0-.1,0-.15-.03-.04-.02-.08-.05-.11-.1l-2.49-3.2c0,.06.01.12.01.18,0,.06,0,.12,0,.17v2.98h-.65v-4.53h.38s.06,0,.08,0c.02,0,.04,0,.06.02.02,0,.04.02.05.04.02.02.03.04.05.06l2.49,3.2c0-.07-.01-.13-.01-.19,0-.06,0-.12,0-.18v-2.96h.65Z"/>
    <path class="cls-1" d="m10.87,37.33h1.6v.57h-1.6v-.57Z"/>
    <path class="cls-1" d="m17.01,39.51h-.57c-.06,0-.12-.02-.16-.05-.04-.03-.07-.07-.09-.12l-.38-1h-1.95l-.38,1s-.05.08-.09.12c-.04.04-.09.05-.16.05h-.57l1.8-4.53h.75l1.8,4.53Zm-1.39-1.7l-.62-1.66c-.05-.13-.1-.29-.15-.49-.02.1-.05.19-.08.27-.03.08-.05.16-.08.22l-.62,1.65h1.55Z"/>
    <path class="cls-1" d="m19.44,36.93s-.04.05-.06.06-.05.02-.08.02-.07-.01-.11-.04c-.04-.03-.08-.05-.14-.08-.05-.03-.12-.06-.19-.08-.08-.02-.17-.04-.28-.04-.15,0-.28.03-.39.08-.11.05-.2.13-.28.23-.07.1-.13.22-.17.36s-.06.3-.06.47.02.34.06.48c.04.14.1.26.17.36.07.1.16.17.27.22.11.05.23.08.36.08s.24-.02.32-.05c.08-.03.15-.07.2-.1.05-.04.1-.07.14-.1.04-.03.08-.05.12-.05.05,0,.1.02.13.06l.19.25c-.08.09-.16.17-.26.24s-.19.12-.3.16c-.1.04-.21.07-.33.09s-.23.03-.34.03c-.2,0-.39-.04-.56-.11-.17-.07-.32-.18-.45-.32s-.23-.31-.31-.52c-.07-.2-.11-.44-.11-.7,0-.24.03-.46.1-.66.07-.2.17-.38.29-.52s.29-.26.48-.34.41-.12.66-.12c.23,0,.44.04.62.11s.33.18.47.32l-.18.25Z"/>
    <path class="cls-1" d="m20.47,37.96c0,.18.04.34.08.47.05.13.11.24.19.33.08.09.18.15.29.2.11.04.24.06.38.06s.25-.02.34-.05c.1-.03.18-.06.25-.1s.13-.07.18-.1c.05-.03.1-.05.14-.05.05,0,.1.02.13.06l.19.25c-.08.09-.17.17-.27.24s-.21.12-.32.16-.23.07-.35.09-.24.03-.35.03c-.22,0-.43-.04-.62-.11-.19-.07-.35-.18-.49-.33-.14-.14-.25-.32-.33-.54-.08-.21-.12-.46-.12-.74,0-.22.04-.43.11-.62s.17-.36.3-.5c.13-.14.29-.26.48-.34.19-.08.4-.12.64-.12.2,0,.38.03.55.1.17.06.31.16.43.28.12.12.22.27.28.45.07.18.1.38.1.61,0,.1-.01.17-.03.21-.02.04-.06.05-.13.05h-2.06Zm1.61-.42c0-.11-.02-.22-.05-.32-.03-.1-.08-.18-.14-.25s-.14-.13-.23-.17-.2-.06-.32-.06c-.25,0-.44.07-.58.21s-.23.34-.27.59h1.6Z"/>
    <path class="cls-1" d="m24.17,39.56c-.27,0-.47-.08-.61-.23-.14-.15-.22-.36-.22-.63v-1.87h-.35s-.07-.01-.1-.04c-.03-.02-.04-.06-.04-.11v-.27l.52-.08.15-.93s.03-.07.05-.09c.02-.02.06-.03.1-.03h.35v1.05h.89v.49h-.89v1.82c0,.12.03.2.08.26.06.06.13.09.23.09.05,0,.1,0,.14-.02.04-.01.07-.03.1-.04.03-.02.05-.03.07-.04.02-.01.04-.02.06-.02.04,0,.07.02.09.06l.2.33c-.1.09-.23.16-.37.21-.14.05-.29.07-.44.07Z"/>
    <path class="cls-1" d="m28.13,36.3l-1.77,4.12s-.05.09-.08.11c-.03.03-.08.04-.15.04h-.5l.59-1.28-1.31-2.99h.59c.06,0,.1.01.13.04.03.03.05.06.07.09l.76,1.82c.02.05.04.1.05.16s.03.1.05.16c.02-.05.03-.11.05-.16.02-.05.04-.1.06-.16l.73-1.82s.04-.07.07-.09.07-.04.11-.04h.54Z"/>
    <path class="cls-1" d="m29.1,34.85v4.66h-.68v-4.66h.68Z"/>
    <path class="cls-1" d="m34.46,38.5s.07.02.1.05l.29.32c-.18.22-.41.39-.68.51-.27.12-.59.18-.96.18-.33,0-.63-.06-.9-.17-.27-.11-.5-.27-.68-.48-.19-.2-.33-.45-.44-.73-.1-.28-.15-.59-.15-.93s.05-.65.16-.94c.11-.28.26-.53.46-.73.2-.21.43-.36.71-.48.27-.11.58-.17.9-.17s.62.05.87.16c.25.11.47.25.65.42l-.24.34s-.04.04-.06.06c-.02.02-.05.03-.09.03s-.09-.02-.14-.06c-.05-.04-.12-.08-.2-.13s-.19-.09-.31-.13c-.12-.04-.28-.06-.47-.06-.22,0-.41.04-.59.11-.18.08-.34.19-.47.33s-.23.32-.3.53c-.07.21-.11.44-.11.71s.04.5.11.71.18.38.31.53.29.25.47.33c.18.08.37.11.58.11.13,0,.24,0,.34-.02s.19-.04.28-.07c.08-.03.16-.07.24-.11.07-.05.15-.1.22-.17.04-.04.08-.06.13-.06Z"/>
    <path class="cls-1" d="m37.95,36.3l-1.77,4.12s-.05.09-.08.11c-.03.03-.08.04-.15.04h-.5l.59-1.28-1.31-2.99h.59c.06,0,.1.01.13.04.03.03.05.06.07.09l.76,1.82c.02.05.04.1.05.16s.03.1.05.16c.02-.05.03-.11.05-.16.02-.05.04-.1.06-.16l.73-1.82s.04-.07.07-.09.07-.04.11-.04h.54Z"/>
    <path class="cls-1" d="m40.09,36.88s-.04.05-.06.06-.05.02-.08.02c-.04,0-.07-.01-.12-.03-.04-.02-.09-.05-.15-.07s-.12-.05-.2-.07-.17-.03-.27-.03c-.08,0-.16,0-.23.03-.07.02-.13.05-.17.08-.05.04-.08.08-.11.13-.02.05-.04.1-.04.16,0,.08.02.14.07.19.05.05.11.09.18.13.08.04.16.07.26.1.1.03.19.06.3.09.1.03.2.07.3.12.1.04.18.1.26.16.08.06.14.14.18.23.05.09.07.2.07.33,0,.15-.03.29-.08.42-.05.13-.13.24-.24.33-.1.09-.24.17-.39.22s-.34.08-.54.08c-.11,0-.22-.01-.32-.03-.1-.02-.2-.05-.3-.08-.09-.03-.18-.08-.26-.12-.08-.05-.15-.1-.22-.16l.16-.26s.04-.06.07-.07.06-.03.1-.03c.04,0,.09.01.13.04s.09.06.15.09.13.06.21.09c.08.03.18.04.31.04.1,0,.19-.01.26-.04.07-.02.13-.06.18-.1.05-.04.08-.09.11-.14.02-.05.03-.11.03-.17,0-.08-.02-.15-.07-.2-.05-.05-.11-.1-.18-.14-.08-.04-.16-.07-.26-.1s-.2-.06-.3-.09c-.1-.03-.2-.07-.3-.12s-.18-.1-.26-.17c-.08-.07-.14-.15-.18-.25-.05-.1-.07-.22-.07-.36,0-.13.03-.25.08-.36.05-.12.13-.22.23-.31s.22-.16.37-.21c.15-.05.31-.08.5-.08.22,0,.41.03.59.1.18.07.32.16.44.28l-.15.25Z"/>
    <path class="cls-1" d="m41.79,39.56c-.27,0-.47-.08-.61-.23-.14-.15-.22-.36-.22-.63v-1.87h-.35s-.07-.01-.1-.04c-.03-.02-.04-.06-.04-.11v-.27l.52-.08.15-.93s.03-.07.05-.09c.02-.02.06-.03.1-.03h.35v1.05h.89v.49h-.89v1.82c0,.12.03.2.08.26.06.06.13.09.23.09.05,0,.1,0,.14-.02.04-.01.07-.03.1-.04.03-.02.05-.03.07-.04.02-.01.04-.02.06-.02.04,0,.07.02.09.06l.2.33c-.1.09-.23.16-.37.21-.14.05-.29.07-.44.07Z"/>
    <path class="cls-1" d="m43.37,37.96c0,.18.04.34.08.47.05.13.11.24.19.33.08.09.18.15.29.2.11.04.24.06.38.06s.25-.02.34-.05c.1-.03.18-.06.25-.1s.13-.07.18-.1c.05-.03.1-.05.14-.05.05,0,.1.02.13.06l.19.25c-.08.09-.17.17-.27.24s-.21.12-.32.16-.23.07-.35.09-.24.03-.35.03c-.22,0-.43-.04-.62-.11-.19-.07-.35-.18-.49-.33-.14-.14-.25-.32-.33-.54-.08-.21-.12-.46-.12-.74,0-.22.04-.43.11-.62s.17-.36.3-.5c.13-.14.29-.26.48-.34.19-.08.4-.12.64-.12.2,0,.38.03.55.1.17.06.31.16.43.28.12.12.22.27.28.45.07.18.1.38.1.61,0,.1-.01.17-.03.21-.02.04-.06.05-.13.05h-2.06Zm1.61-.42c0-.11-.02-.22-.05-.32-.03-.1-.08-.18-.14-.25s-.14-.13-.23-.17-.2-.06-.32-.06c-.25,0-.44.07-.58.21s-.23.34-.27.59h1.6Z"/>
    <path class="cls-1" d="m46.88,35.33c0,.06-.01.12-.04.17-.02.05-.06.1-.1.14s-.09.07-.15.1c-.06.02-.11.04-.18.04s-.12-.01-.17-.04c-.05-.02-.1-.06-.14-.1-.04-.04-.07-.09-.1-.14-.02-.05-.04-.11-.04-.17s.01-.12.04-.18c.02-.05.06-.1.1-.14.04-.04.09-.07.14-.1.05-.02.11-.04.17-.04s.12.01.18.04.1.06.15.1.07.09.1.14c.02.05.04.11.04.18Zm-.11.97v3.21h-.68v-3.21h.68Z"/>
    <path class="cls-1" d="m48.1,36.72c.07-.07.14-.14.22-.19.07-.06.15-.11.24-.15.08-.04.17-.07.27-.1.09-.02.2-.03.31-.03.18,0,.33.03.46.09s.25.14.34.25c.09.11.16.24.21.38.05.15.07.32.07.5v2.04h-.67v-2.04c0-.22-.05-.38-.15-.5-.1-.12-.25-.18-.46-.18-.15,0-.29.03-.42.1s-.25.16-.36.28v2.34h-.68v-3.21h.41c.09,0,.15.04.18.13l.05.29Z"/>
    <path class="cls-1" d="m51.33,37.96c0,.18.04.34.08.47.05.13.11.24.19.33.08.09.18.15.29.2.11.04.24.06.38.06s.25-.02.34-.05c.1-.03.18-.06.25-.1s.13-.07.18-.1c.05-.03.1-.05.14-.05.05,0,.1.02.13.06l.19.25c-.08.09-.17.17-.27.24s-.21.12-.32.16-.23.07-.35.09-.24.03-.35.03c-.22,0-.43-.04-.62-.11-.19-.07-.35-.18-.49-.33-.14-.14-.25-.32-.33-.54-.08-.21-.12-.46-.12-.74,0-.22.04-.43.11-.62s.17-.36.3-.5c.13-.14.29-.26.48-.34.19-.08.4-.12.64-.12.2,0,.38.03.55.1.17.06.31.16.43.28.12.12.22.27.28.45.07.18.1.38.1.61,0,.1-.01.17-.03.21-.02.04-.06.05-.13.05h-2.06Zm1.61-.42c0-.11-.02-.22-.05-.32-.03-.1-.08-.18-.14-.25s-.14-.13-.23-.17-.2-.06-.32-.06c-.25,0-.44.07-.58.21s-.23.34-.27.59h1.6Z"/>
  </g>
  <g>
    <path class="cls-1" d="m74.76,7.9c-.05.07-.1.13-.15.19-.05.06-.1.12-.14.18.15-.09.32-.15.5-.2.18-.05.38-.08.59-.08.28,0,.55.05.8.14.26.09.48.23.68.41.19.18.35.41.47.67.12.27.17.58.17.92s-.06.64-.18.93c-.12.29-.29.54-.51.76-.22.21-.48.38-.79.51-.31.12-.65.19-1.02.19s-.71-.06-1.01-.18c-.3-.12-.55-.29-.77-.51-.21-.22-.37-.48-.49-.79-.11-.31-.17-.65-.17-1.02,0-.33.07-.67.21-1.02s.36-.73.65-1.12l1.77-2.37c.05-.07.13-.13.23-.18.1-.05.22-.08.34-.08h.95l-2.13,2.64Zm.39,3.73c.22,0,.41-.04.59-.11s.33-.17.46-.3c.13-.13.23-.28.3-.45s.1-.36.1-.56c0-.22-.03-.42-.1-.59-.07-.17-.17-.32-.29-.44-.12-.12-.27-.21-.45-.28-.17-.06-.37-.1-.58-.1s-.41.04-.59.11c-.17.07-.32.17-.45.3-.12.13-.22.27-.28.44s-.1.35-.1.54c0,.21.03.41.09.58.06.18.15.33.26.45.12.12.26.22.43.29.17.07.37.11.59.11Z"/>
    <path class="cls-1" d="m82.68,11.62v.81h-3.92v-.81h1.5v-4.5c0-.16,0-.32.02-.49l-1.15.97s-.1.07-.15.08c-.05.01-.1.01-.14,0-.04-.01-.08-.03-.12-.05-.04-.02-.06-.05-.08-.07l-.33-.47,2.16-1.86h.87v6.38h1.35Z"/>
  </g>
  <g>
    <path class="cls-1" d="m15.66,17.38v11.46h-.78c-.12,0-.23-.02-.31-.06s-.16-.11-.24-.22l-6.63-8.64c.01.13.02.26.02.39s0,.25,0,.36v8.17h-1.36v-11.46h.8c.07,0,.13,0,.18.01.05,0,.09.02.13.04.04.02.07.05.11.08.04.03.08.08.12.13l6.63,8.63c-.01-.14-.02-.27-.03-.4,0-.13-.01-.25-.01-.37v-8.12h1.36Z"/>
    <path class="cls-1" d="m17.72,23.44h3.95v1.21h-3.95v-1.21Z"/>
    <path class="cls-1" d="m33.05,28.84h-1.2c-.14,0-.25-.03-.34-.1-.09-.07-.15-.16-.19-.26l-1.07-2.77h-5.14l-1.07,2.77c-.03.1-.09.18-.18.26s-.2.11-.34.11h-1.2l4.58-11.46h1.57l4.58,11.46Zm-3.23-4.26l-1.8-4.66c-.05-.14-.11-.3-.17-.48-.06-.18-.11-.38-.17-.59-.11.43-.23.79-.34,1.08l-1.8,4.66h4.28Z"/>
    <path class="cls-1" d="m41.92,26.48c.08,0,.16.04.22.1l.62.66c-.47.54-1.04.97-1.71,1.27-.67.3-1.48.46-2.43.46-.82,0-1.57-.14-2.24-.43-.67-.29-1.25-.69-1.72-1.2s-.84-1.13-1.1-1.85c-.26-.72-.39-1.51-.39-2.38s.14-1.66.41-2.38.65-1.34,1.15-1.86c.49-.52,1.08-.92,1.77-1.2.69-.29,1.45-.43,2.28-.43s1.54.13,2.16.39c.62.26,1.17.62,1.65,1.06l-.51.71c-.03.05-.07.1-.12.13s-.12.05-.2.05c-.1,0-.21-.05-.35-.16s-.32-.22-.54-.35-.5-.24-.84-.35-.75-.16-1.24-.16c-.59,0-1.13.1-1.62.31s-.91.5-1.27.89c-.35.39-.63.86-.83,1.42-.2.56-.3,1.19-.3,1.9s.1,1.35.31,1.91c.21.56.49,1.03.84,1.42.35.39.77.68,1.26.88.48.2,1,.3,1.56.3.34,0,.65-.02.92-.06.27-.04.53-.1.76-.19.23-.08.45-.19.65-.32.2-.13.4-.29.6-.47.09-.08.18-.12.27-.12Z"/>
  </g>
</svg>