<?xml version="1.0" encoding="UTF-8"?>
<svg id="Layer_1" data-name="Layer 1" xmlns="http://www.w3.org/2000/svg" viewBox="0 0 87.75 87.75">
  <defs>
    <style>
      .cls-1 {
        fill: #0b20b6;
      }

      .cls-1, .cls-2 {
        stroke-width: 0px;
      }

      .cls-2 {
        fill: #c0d239;
      }
    </style>
  </defs>
  <path class="cls-1" d="m69.89,82.08l-11.02-7.16v-7.81l11.02-7.16,11.02,7.16v7.81l-11.02,7.16Zm-10.52-7.44l10.52,6.84,10.52-6.84v-7.27l-10.52-6.84-10.52,6.84v7.27Z"/>
  <rect class="cls-1" x="69.64" y="74.66" width=".5" height="7"/>
  <polygon class="cls-1" points="69.89 75.08 58.97 67.44 59.26 67.04 69.89 74.47 80.51 67.04 80.8 67.44 69.89 75.08"/>
  <polygon class="cls-1" points="59.26 74.98 58.97 74.58 69.89 66.93 80.8 74.58 80.51 74.98 69.89 67.55 59.26 74.98"/>
  <rect class="cls-1" x="69.64" y="60.24" width=".5" height="7"/>
  <rect class="cls-2" x=".25" y=".25" width="29.08" height="3.49"/>
  <path class="cls-1" d="m87.75,87.75H0V0h87.75v87.75Zm-87.25-.5h86.75V.5H.5v86.75Z"/>
  <rect class="cls-1" x="6.36" y="47.78" width="75.03" height=".5"/>
  <g>
    <path class="cls-1" d="m8.91,35.75s-.05.07-.07.08c-.02.02-.06.03-.09.03-.04,0-.08-.02-.13-.05-.05-.03-.11-.07-.18-.11-.07-.04-.16-.08-.26-.11-.1-.04-.22-.05-.35-.05-.12,0-.24.02-.33.05-.09.03-.17.08-.24.13s-.11.12-.15.2c-.03.08-.05.16-.05.25,0,.12.03.21.09.29.06.08.14.14.24.2s.21.1.34.14.26.08.39.13c.13.05.26.1.39.16.13.06.24.13.34.22.1.09.18.2.24.33.06.13.09.29.09.47,0,.2-.04.39-.1.57-.07.18-.17.33-.3.46-.13.13-.29.23-.49.31-.19.08-.41.11-.66.11-.15,0-.29-.01-.42-.04s-.27-.07-.39-.12c-.12-.05-.24-.11-.35-.19s-.21-.16-.29-.25l.21-.35s.04-.05.07-.07.06-.03.1-.03c.05,0,.1.02.16.07.06.05.13.09.21.15.08.05.18.1.3.15s.26.07.42.07c.27,0,.47-.06.62-.19s.22-.31.22-.54c0-.13-.03-.23-.09-.31-.06-.08-.14-.15-.24-.2s-.21-.1-.34-.14c-.13-.04-.26-.08-.39-.12s-.26-.09-.39-.15-.24-.13-.34-.23c-.1-.09-.18-.21-.24-.35-.06-.14-.09-.31-.09-.51,0-.16.03-.32.1-.48.06-.15.16-.29.28-.41.12-.12.27-.21.45-.29.18-.07.39-.11.62-.11.26,0,.5.04.72.12s.4.2.56.35l-.18.35Z"/>
    <path class="cls-1" d="m10.16,37.96c0,.18.04.34.08.47.05.13.11.24.19.33.08.09.18.15.29.2s.24.06.38.06.25-.02.34-.05c.1-.03.18-.06.25-.1s.13-.07.18-.1.1-.05.14-.05c.05,0,.1.02.13.06l.19.25c-.08.09-.17.17-.27.24s-.21.12-.32.16-.23.07-.35.09c-.12.02-.24.03-.35.03-.22,0-.43-.04-.62-.11s-.35-.18-.49-.33-.25-.32-.33-.54-.12-.46-.12-.74c0-.22.04-.43.11-.62s.17-.36.3-.5c.13-.14.29-.26.48-.34s.4-.12.64-.12c.2,0,.38.03.55.1.17.06.31.16.43.28.12.12.22.27.29.45.07.18.1.38.1.61,0,.1-.01.17-.03.21-.02.04-.07.05-.13.05h-2.06Zm1.61-.42c0-.11-.02-.22-.05-.32-.03-.1-.08-.18-.14-.25-.06-.07-.14-.13-.23-.17-.09-.04-.2-.06-.32-.06-.25,0-.44.07-.58.21s-.23.34-.27.59h1.59Z"/>
    <path class="cls-1" d="m13.55,34.85v4.66h-.68v-4.66h.68Z"/>
    <path class="cls-1" d="m14.72,37.96c0,.18.04.34.08.47.05.13.11.24.19.33.08.09.18.15.29.2s.24.06.38.06.25-.02.34-.05c.1-.03.18-.06.25-.1s.13-.07.18-.1.1-.05.14-.05c.05,0,.1.02.13.06l.19.25c-.08.09-.17.17-.27.24s-.21.12-.32.16-.23.07-.35.09c-.12.02-.24.03-.35.03-.22,0-.43-.04-.62-.11s-.35-.18-.49-.33-.25-.32-.33-.54-.12-.46-.12-.74c0-.22.04-.43.11-.62s.17-.36.3-.5c.13-.14.29-.26.48-.34s.4-.12.64-.12c.2,0,.38.03.55.1.17.06.31.16.43.28.12.12.22.27.29.45.07.18.1.38.1.61,0,.1-.01.17-.03.21-.02.04-.07.05-.13.05h-2.06Zm1.61-.42c0-.11-.02-.22-.05-.32-.03-.1-.08-.18-.14-.25-.06-.07-.14-.13-.23-.17-.09-.04-.2-.06-.32-.06-.25,0-.44.07-.58.21s-.23.34-.27.59h1.59Z"/>
    <path class="cls-1" d="m18.04,36.72c.07-.07.14-.14.21-.19s.15-.11.24-.15c.08-.04.17-.07.27-.1.09-.02.2-.03.31-.03.18,0,.33.03.46.09.13.06.25.14.34.25.09.11.16.24.21.38.05.15.07.32.07.5v2.04h-.67v-2.04c0-.22-.05-.38-.15-.5-.1-.12-.25-.18-.46-.18-.15,0-.29.03-.42.1s-.25.16-.36.28v2.34h-.68v-3.21h.41c.09,0,.15.04.18.13l.05.29Z"/>
    <path class="cls-1" d="m21.6,35.33c0,.06-.01.12-.04.17-.02.05-.06.1-.1.14s-.09.07-.15.1c-.06.02-.11.04-.18.04s-.12-.01-.17-.04c-.05-.02-.1-.06-.14-.1s-.07-.09-.1-.14-.04-.11-.04-.17.01-.12.04-.18c.02-.05.06-.1.1-.14s.09-.07.14-.1c.05-.02.11-.04.17-.04s.12.01.18.04.1.06.15.1.08.09.1.14c.02.05.04.11.04.18Zm-.11.97v3.21h-.68v-3.21h.68Z"/>
    <path class="cls-1" d="m24.89,36.3v3.21h-.41c-.09,0-.15-.04-.17-.13l-.05-.3c-.07.07-.14.14-.21.2-.08.06-.15.11-.24.15-.08.04-.17.07-.27.1s-.2.04-.31.04c-.18,0-.33-.03-.47-.09-.13-.06-.25-.14-.34-.25-.09-.11-.16-.24-.21-.39-.05-.15-.07-.32-.07-.5v-2.04h.68v2.04c0,.22.05.38.15.5.1.12.25.18.46.18.15,0,.29-.03.42-.1s.25-.16.36-.28v-2.34h.68Z"/>
    <path class="cls-1" d="m25.56,39.51v-3.21h.41c.09,0,.15.04.18.13l.04.28c.06-.07.12-.13.18-.18.06-.06.13-.1.2-.14.07-.04.15-.07.23-.1.08-.02.17-.03.27-.03.1,0,.2.01.28.04s.16.07.23.13c.07.05.12.12.17.2.05.08.09.16.12.26.05-.11.11-.21.18-.29.07-.08.16-.14.25-.2.09-.05.19-.09.29-.11.1-.02.21-.04.31-.04.17,0,.33.03.46.08.14.05.25.13.34.24.09.1.16.23.21.38.05.15.07.32.07.52v2.04h-.68v-2.04c0-.23-.05-.4-.15-.51s-.24-.17-.43-.17c-.09,0-.17.01-.24.04s-.14.07-.2.13-.1.13-.13.21-.05.18-.05.3v2.04h-.68v-2.04c0-.24-.05-.41-.14-.52-.09-.11-.23-.17-.42-.17-.13,0-.24.03-.35.1-.11.06-.21.15-.3.26v2.37h-.68Z"/>
  </g>
  <g>
    <path class="cls-1" d="m77.13,11.42c.12,0,.21.03.27.1s.1.16.1.26v.65h-4.86v-.36c0-.07.02-.15.04-.23s.08-.15.14-.22l2.23-2.24c.19-.19.36-.37.51-.54.15-.17.27-.35.38-.52.1-.17.18-.35.24-.53.06-.18.08-.37.08-.56s-.03-.36-.09-.5-.14-.26-.24-.36c-.1-.09-.22-.17-.36-.21-.14-.05-.3-.07-.47-.07s-.31.02-.45.07c-.14.05-.26.11-.37.19-.11.08-.2.18-.27.3-.07.11-.12.24-.16.38-.05.14-.11.23-.19.27-.08.05-.19.06-.34.03l-.56-.1c.05-.34.14-.64.28-.89.14-.26.31-.47.52-.64.21-.17.45-.3.72-.39.27-.09.56-.13.88-.13s.61.05.88.14.5.23.69.4c.19.17.35.39.46.64s.16.53.16.84c0,.27-.04.51-.12.74-.08.23-.18.44-.32.65-.13.21-.29.41-.47.6-.18.2-.36.39-.56.59l-1.74,1.78c.14-.04.29-.07.43-.09s.28-.04.41-.04h2.11Z"/>
    <path class="cls-1" d="m78.15,7.23c.05-.34.14-.64.28-.89.14-.26.31-.47.52-.64.21-.17.45-.3.72-.39s.56-.13.88-.13.61.04.87.14c.26.09.49.22.67.38.19.16.33.36.43.58.1.23.15.47.15.74,0,.23-.03.43-.08.61-.05.17-.13.33-.23.46-.1.13-.23.25-.37.33-.15.09-.31.17-.49.22.45.13.78.34,1,.62s.33.64.33,1.07c0,.35-.06.65-.19.92-.13.27-.31.5-.53.68-.22.19-.48.33-.77.43s-.61.15-.94.15c-.37,0-.69-.04-.96-.13-.27-.09-.5-.21-.7-.38-.19-.16-.36-.36-.49-.6-.13-.23-.24-.49-.33-.78l.46-.19c.12-.05.24-.07.35-.04.11.02.19.08.24.18.05.11.11.22.18.34.07.12.15.23.26.33.1.1.23.19.39.25.15.07.35.1.57.1s.43-.04.6-.11c.17-.07.31-.17.43-.29.11-.12.2-.25.26-.4.06-.15.08-.29.08-.43,0-.18-.02-.35-.06-.5-.04-.15-.13-.28-.25-.39-.12-.11-.3-.19-.53-.25-.23-.06-.53-.09-.9-.09v-.77c.3,0,.56-.03.77-.09s.37-.14.5-.24c.12-.1.21-.22.27-.37.06-.14.08-.3.08-.47,0-.18-.03-.34-.08-.48s-.14-.26-.24-.35-.22-.17-.36-.21c-.14-.05-.29-.07-.46-.07s-.31.02-.45.07c-.14.05-.26.11-.37.19s-.2.18-.27.3c-.07.11-.13.24-.16.38-.05.14-.11.23-.19.27-.08.05-.19.06-.34.03l-.56-.1Z"/>
  </g>
  <g>
    <path class="cls-1" d="m12.63,19.17c-.05.08-.1.14-.16.18-.06.04-.12.06-.2.06-.09,0-.2-.04-.32-.14-.12-.09-.28-.19-.46-.3-.18-.11-.41-.21-.66-.3s-.57-.14-.94-.14c-.35,0-.65.05-.92.14-.26.09-.49.22-.66.38-.18.16-.31.35-.4.56-.09.22-.14.45-.14.7,0,.32.08.59.24.8.16.21.37.39.62.54.26.15.55.28.88.39s.66.22,1.01.34c.34.12.68.25,1.01.4.33.15.62.33.88.56.26.22.47.5.62.82.16.33.24.73.24,1.2,0,.5-.08.97-.26,1.41s-.42.82-.75,1.15-.73.58-1.21.77c-.48.19-1.02.28-1.63.28-.75,0-1.42-.13-2.03-.4-.61-.27-1.13-.63-1.56-1.09l.45-.74c.04-.06.09-.11.16-.15.06-.04.13-.06.2-.06.07,0,.15.03.24.08s.19.13.3.21c.11.09.24.18.38.28.14.1.31.19.49.28.18.09.39.16.63.21.24.06.5.08.79.08.37,0,.7-.05.98-.15.29-.1.53-.24.73-.43.2-.18.35-.4.46-.66.11-.26.16-.54.16-.86,0-.35-.08-.63-.24-.85s-.36-.41-.62-.56-.55-.28-.88-.38c-.33-.1-.67-.21-1.01-.32-.34-.11-.68-.24-1.01-.38-.33-.14-.62-.33-.88-.56-.26-.23-.46-.52-.62-.86-.16-.34-.24-.77-.24-1.28,0-.41.08-.8.24-1.18.16-.38.39-.71.69-1.01.3-.29.67-.53,1.11-.7.44-.18.95-.26,1.52-.26.64,0,1.22.1,1.75.3s.99.5,1.39.88l-.38.74Z"/>
    <path class="cls-1" d="m21.24,27.71c-.18.21-.39.4-.63.56-.25.16-.51.29-.79.39-.28.1-.57.18-.87.23-.3.05-.59.08-.89.08-.56,0-1.08-.09-1.55-.28-.47-.19-.88-.47-1.22-.83s-.61-.82-.8-1.36c-.19-.54-.29-1.16-.29-1.86,0-.57.09-1.09.26-1.58.17-.49.42-.92.75-1.28.33-.36.72-.64,1.19-.85.47-.21,1-.31,1.58-.31.48,0,.93.08,1.35.24s.77.4,1.07.7c.3.31.54.69.71,1.14.17.45.26.96.26,1.54,0,.22-.02.37-.07.45s-.14.11-.27.11h-5.42c.02.51.09.96.21,1.34.12.38.3.69.52.95.22.25.49.44.8.57.31.12.66.19,1.04.19.36,0,.67-.04.92-.12.26-.08.48-.17.67-.27.19-.1.34-.19.47-.27.12-.08.23-.12.32-.12.12,0,.21.05.27.14l.4.52Zm-1.15-3.8c0-.33-.05-.63-.14-.91-.09-.27-.23-.51-.41-.71-.18-.2-.4-.35-.65-.46s-.55-.16-.87-.16c-.68,0-1.22.2-1.62.6s-.64.95-.74,1.65h4.43Z"/>
  </g>
</svg>