<?xml version="1.0" encoding="UTF-8"?>
<svg id="Layer_1" data-name="Layer 1" xmlns="http://www.w3.org/2000/svg" viewBox="0 0 87.75 87.75">
  <defs>
    <style>
      .cls-1 {
        fill: #4bb1e2;
      }

      .cls-1, .cls-2, .cls-3 {
        stroke-width: 0px;
      }

      .cls-2 {
        fill: #0b20b6;
      }

      .cls-3 {
        fill: #fff;
      }
    </style>
  </defs>
  <rect class="cls-3" x="-286.73" y="-573.71" width="1436.17" height="1326.56"/>
  <path class="cls-2" d="m68.92,80.98c-1.31,0-2.38-1.07-2.38-2.38s1.07-2.38,2.38-2.38,2.38,1.07,2.38,2.38-1.07,2.38-2.38,2.38Zm0-4.25c-1.03,0-1.88.84-1.88,1.88s.84,1.88,1.88,1.88,1.88-.84,1.88-1.88-.84-1.88-1.88-1.88Z"/>
  <path class="cls-2" d="m78.53,71.37c-1.31,0-2.38-1.07-2.38-2.38s1.07-2.38,2.38-2.38,2.38,1.07,2.38,2.38-1.07,2.38-2.38,2.38Zm0-4.25c-1.03,0-1.88.84-1.88,1.88s.84,1.88,1.88,1.88,1.88-.84,1.88-1.88-.84-1.88-1.88-1.88Z"/>
  <path class="cls-2" d="m59.32,71.37c-1.31,0-2.38-1.07-2.38-2.38s1.07-2.38,2.38-2.38,2.38,1.07,2.38,2.38-1.07,2.38-2.38,2.38Zm0-4.25c-1.03,0-1.88.84-1.88,1.88s.84,1.88,1.88,1.88,1.88-.84,1.88-1.88-.84-1.88-1.88-1.88Z"/>
  <path class="cls-2" d="m75.72,64.58c-.61,0-1.22-.23-1.68-.69-.93-.93-.93-2.43,0-3.36h0c.93-.93,2.43-.93,3.36,0,.93.93.93,2.43,0,3.36-.46.46-1.07.69-1.68.69Zm0-4.25c-.48,0-.96.18-1.33.55h0c-.73.73-.73,1.92,0,2.65.73.73,1.92.73,2.65,0,.73-.73.73-1.92,0-2.65-.37-.37-.85-.55-1.33-.55Z"/>
  <path class="cls-2" d="m62.13,64.58c-.61,0-1.22-.23-1.68-.69-.93-.93-.93-2.43,0-3.36.93-.93,2.43-.93,3.36,0,.93.93.93,2.44,0,3.36-.46.46-1.07.69-1.68.69Zm0-4.25c-.48,0-.96.18-1.33.55-.73.73-.73,1.92,0,2.65.73.73,1.92.73,2.65,0,.73-.73.73-1.92,0-2.65-.37-.37-.85-.55-1.33-.55Z"/>
  <path class="cls-2" d="m75.72,78.17c-.61,0-1.22-.23-1.68-.69h0c-.93-.93-.93-2.43,0-3.36.93-.93,2.43-.93,3.36,0,.93.93.93,2.43,0,3.36-.46.46-1.07.69-1.68.69Zm0-4.25c-.48,0-.96.18-1.33.55-.73.73-.73,1.92,0,2.65h0c.73.73,1.92.73,2.65,0,.73-.73.73-1.92,0-2.65-.37-.37-.85-.55-1.33-.55Z"/>
  <path class="cls-2" d="m62.13,78.17c-.61,0-1.22-.23-1.68-.69-.93-.93-.93-2.44,0-3.36h0c.93-.93,2.43-.93,3.36,0,.93.93.93,2.43,0,3.36-.46.46-1.07.69-1.68.69Zm-1.33-3.7h0c-.73.73-.73,1.92,0,2.65.73.73,1.92.73,2.65,0,.73-.73.73-1.92,0-2.65-.73-.73-1.92-.73-2.65,0Z"/>
  <path class="cls-2" d="m68.92,61.77c-1.31,0-2.38-1.07-2.38-2.38s1.07-2.38,2.38-2.38,2.38,1.07,2.38,2.38-1.07,2.38-2.38,2.38Zm0-4.25c-1.03,0-1.88.84-1.88,1.88s.84,1.88,1.88,1.88,1.88-.84,1.88-1.88-.84-1.88-1.88-1.88Z"/>
  <path class="cls-2" d="m73.93,61.09c-.9-.57-1.89-.98-2.93-1.22l.11-.49c1.1.25,2.14.68,3.09,1.28l-.27.42Z"/>
  <path class="cls-2" d="m78.06,66.94c-.23-1.04-.64-2.03-1.21-2.93l.42-.27c.6.95,1.03,1.99,1.28,3.09l-.49.11Z"/>
  <path class="cls-2" d="m77.25,74.28l-.42-.27c.58-.91.99-1.9,1.22-2.94l.49.11c-.25,1.1-.68,2.14-1.29,3.1Z"/>
  <path class="cls-2" d="m71.11,78.62l-.11-.49c1.05-.24,2.05-.65,2.96-1.24l.27.42c-.96.62-2.01,1.05-3.12,1.31Z"/>
  <path class="cls-2" d="m66.74,78.61c-1.1-.25-2.14-.68-3.09-1.29l.27-.42c.91.57,1.89.98,2.94,1.22l-.11.49Z"/>
  <path class="cls-2" d="m60.6,74.28c-.63-1.01-1.06-2.06-1.31-3.16l.49-.11c.23,1.05.64,2.04,1.21,2.96l-.4.31Z"/>
  <path class="cls-2" d="m59.8,66.93l-.49-.11c.25-1.09.67-2.13,1.27-3.07l.42.27c-.57.9-.97,1.88-1.21,2.92Z"/>
  <path class="cls-2" d="m63.92,61.09l-.27-.42c.95-.6,1.99-1.04,3.09-1.28l.11.49c-1.04.23-2.03.64-2.93,1.22Z"/>
  <rect class="cls-1" x=".25" y=".25" width="29.08" height="3.49"/>
  <path class="cls-2" d="m87.75,87.75H0V0h87.75v87.75Zm-87.25-.5h86.75V.5H.5v86.75Z"/>
  <rect class="cls-2" x="6.36" y="47.78" width="75.03" height=".5"/>
  <g>
    <path class="cls-2" d="m8.73,35.75s-.05.07-.07.08c-.02.02-.06.03-.09.03-.04,0-.08-.02-.13-.05-.05-.03-.11-.07-.18-.11-.07-.04-.16-.08-.26-.11-.1-.04-.22-.05-.35-.05-.12,0-.24.02-.33.05-.09.03-.17.08-.24.13s-.11.12-.15.2c-.03.08-.05.16-.05.25,0,.12.03.21.09.29.06.08.14.14.24.2s.21.1.34.14.26.08.39.13c.13.05.26.1.39.16.13.06.24.13.34.22.1.09.18.2.24.33.06.13.09.29.09.47,0,.2-.04.39-.1.57-.07.18-.17.33-.3.46-.13.13-.29.23-.49.31-.19.08-.41.11-.66.11-.15,0-.29-.01-.42-.04s-.27-.07-.39-.12c-.12-.05-.24-.11-.35-.19s-.21-.16-.29-.25l.21-.35s.04-.05.07-.07.06-.03.1-.03c.05,0,.1.02.16.07.06.05.13.09.21.15.08.05.18.1.3.15s.26.07.42.07c.27,0,.47-.06.62-.19s.22-.31.22-.54c0-.13-.03-.23-.09-.31-.06-.08-.14-.15-.24-.2s-.21-.1-.34-.14c-.13-.04-.26-.08-.39-.12s-.26-.09-.39-.15-.24-.13-.34-.23c-.1-.09-.18-.21-.24-.35-.06-.14-.09-.31-.09-.51,0-.16.03-.32.1-.48.06-.15.16-.29.28-.41.12-.12.27-.21.45-.29.18-.07.39-.11.62-.11.26,0,.5.04.72.12s.4.2.56.35l-.18.35Z"/>
    <path class="cls-2" d="m10.89,36.25c.24,0,.45.04.64.12.19.08.36.19.49.33.14.14.24.32.31.52s.11.43.11.69-.04.48-.11.69-.18.38-.31.52c-.13.14-.3.25-.49.33-.19.08-.41.12-.64.12s-.46-.04-.65-.12c-.19-.08-.36-.19-.49-.33-.14-.14-.24-.32-.31-.52s-.11-.43-.11-.69.04-.48.11-.69.18-.38.31-.52c.14-.14.3-.25.49-.33.19-.08.41-.12.65-.12Zm0,2.78c.29,0,.5-.1.65-.29s.21-.47.21-.83-.07-.64-.21-.84-.36-.29-.65-.29-.51.1-.65.29-.21.47-.21.84.07.64.21.83.36.29.65.29Z"/>
    <path class="cls-2" d="m15.66,34.85v4.66h-.41c-.09,0-.15-.04-.17-.13l-.06-.35c-.13.16-.29.28-.46.38-.17.1-.37.14-.6.14-.18,0-.34-.04-.49-.11-.15-.07-.27-.18-.38-.32-.11-.14-.19-.31-.24-.51-.06-.21-.09-.44-.09-.7,0-.24.03-.46.1-.66.06-.2.16-.38.28-.53.12-.15.26-.27.44-.35s.36-.13.57-.13c.19,0,.35.03.48.09s.25.14.36.25v-1.73h.68Zm-.68,2.24c-.09-.12-.2-.21-.31-.25-.11-.05-.24-.07-.37-.07-.26,0-.47.1-.62.29-.15.19-.22.48-.22.86,0,.2.02.37.05.51.03.14.08.25.14.34.06.09.14.15.23.19.09.04.19.06.31.06.17,0,.32-.04.45-.11.12-.08.24-.18.35-.32v-1.5Z"/>
    <path class="cls-2" d="m17.15,35.33c0,.06-.01.12-.04.17-.02.05-.06.1-.1.14s-.09.07-.15.1c-.06.02-.11.04-.18.04s-.12-.01-.17-.04c-.05-.02-.1-.06-.14-.1s-.07-.09-.1-.14-.04-.11-.04-.17.01-.12.04-.18c.02-.05.06-.1.1-.14s.09-.07.14-.1c.05-.02.11-.04.17-.04s.12.01.18.04.1.06.15.1.08.09.1.14c.02.05.04.11.04.18Zm-.11.97v3.21h-.68v-3.21h.68Z"/>
    <path class="cls-2" d="m20.43,36.3v3.21h-.41c-.09,0-.15-.04-.17-.13l-.05-.3c-.07.07-.14.14-.21.2-.07.06-.15.11-.24.15s-.17.07-.27.1c-.09.02-.2.04-.31.04-.18,0-.33-.03-.47-.09-.13-.06-.25-.14-.34-.25-.09-.11-.16-.24-.21-.39-.05-.15-.07-.32-.07-.5v-2.04h.68v2.04c0,.22.05.38.15.5.1.12.25.18.46.18.15,0,.29-.03.42-.1.13-.07.25-.16.36-.28v-2.34h.68Z"/>
    <path class="cls-2" d="m21.1,39.51v-3.21h.41c.09,0,.15.04.18.13l.04.28c.06-.07.12-.13.18-.18.06-.06.13-.1.2-.14.07-.04.15-.07.23-.1.08-.02.17-.03.27-.03.1,0,.2.01.28.04s.16.07.23.13.12.12.17.2c.05.08.09.16.12.26.05-.11.11-.21.18-.29s.16-.14.25-.2c.09-.05.19-.09.29-.11s.21-.04.31-.04c.17,0,.33.03.46.08.13.05.25.13.34.24.09.1.16.23.21.38.05.15.07.32.07.52v2.04h-.68v-2.04c0-.23-.05-.4-.15-.51s-.24-.17-.43-.17c-.09,0-.17.01-.24.04-.08.03-.14.07-.2.13s-.1.13-.13.21c-.03.08-.05.18-.05.3v2.04h-.68v-2.04c0-.24-.05-.41-.14-.52s-.23-.17-.42-.17c-.13,0-.24.03-.35.1-.11.06-.21.15-.3.26v2.37h-.68Z"/>
    <path class="cls-2" d="m30.85,38.5s.07.02.1.05l.29.32c-.18.22-.41.39-.68.51-.27.12-.59.18-.96.18-.33,0-.63-.06-.9-.17s-.5-.27-.68-.48c-.19-.2-.33-.45-.44-.73s-.15-.59-.15-.93.05-.65.16-.94c.11-.28.26-.53.46-.73.2-.21.43-.36.71-.48.27-.11.58-.17.9-.17s.62.05.87.16c.25.11.47.25.65.42l-.24.34s-.04.04-.06.06-.05.03-.09.03-.09-.02-.14-.06c-.05-.04-.12-.08-.21-.13s-.19-.09-.31-.13-.28-.06-.47-.06c-.22,0-.42.04-.59.11-.18.08-.34.19-.47.33s-.23.32-.3.53-.11.44-.11.71.04.5.11.71c.08.21.18.38.31.53.13.14.29.25.47.33.18.08.37.11.58.11.13,0,.24,0,.34-.02s.19-.04.28-.07c.08-.03.16-.07.24-.11.07-.05.15-.1.22-.17.04-.04.08-.06.13-.06Z"/>
    <path class="cls-2" d="m32.28,36.68c.13-.13.28-.23.43-.31.16-.08.34-.12.55-.12.18,0,.33.03.46.09.13.06.25.14.34.25.09.11.16.24.21.38.05.15.07.32.07.5v2.04h-.67v-2.04c0-.22-.05-.38-.15-.5-.1-.12-.25-.18-.46-.18-.15,0-.29.03-.42.1s-.25.16-.36.28v2.34h-.68v-4.66h.68v1.83Z"/>
    <path class="cls-2" d="m35.67,34.85v4.66h-.68v-4.66h.68Z"/>
    <path class="cls-2" d="m37.73,36.25c.24,0,.45.04.64.12.19.08.36.19.49.33.14.14.24.32.31.52s.11.43.11.69-.04.48-.11.69-.18.38-.31.52c-.13.14-.3.25-.49.33-.19.08-.41.12-.64.12s-.46-.04-.65-.12c-.19-.08-.36-.19-.49-.33-.14-.14-.24-.32-.31-.52s-.11-.43-.11-.69.04-.48.11-.69.18-.38.31-.52c.14-.14.3-.25.49-.33.19-.08.41-.12.65-.12Zm0,2.78c.29,0,.5-.1.65-.29s.21-.47.21-.83-.07-.64-.21-.84-.36-.29-.65-.29-.51.1-.65.29-.21.47-.21.84.07.64.21.83.36.29.65.29Z"/>
    <path class="cls-2" d="m40.42,36.89c.1-.2.22-.36.37-.48s.31-.17.51-.17c.07,0,.13,0,.2.02s.12.04.16.07l-.05.51s-.02.06-.04.07-.04.02-.07.02c-.03,0-.08,0-.14-.02s-.12-.02-.19-.02c-.09,0-.18.01-.25.04s-.14.07-.2.12c-.06.05-.11.12-.15.19s-.08.16-.12.26v2h-.68v-3.21h.39c.07,0,.12.01.15.04.03.03.05.07.06.14l.04.42Z"/>
    <path class="cls-2" d="m42.77,35.33c0,.06-.01.12-.04.17-.02.05-.06.1-.1.14s-.09.07-.15.1c-.06.02-.11.04-.18.04s-.12-.01-.17-.04c-.05-.02-.1-.06-.14-.1s-.07-.09-.1-.14-.04-.11-.04-.17.01-.12.04-.18c.02-.05.06-.1.1-.14s.09-.07.14-.1c.05-.02.11-.04.17-.04s.12.01.18.04.1.06.15.1.08.09.1.14c.02.05.04.11.04.18Zm-.11.97v3.21h-.68v-3.21h.68Z"/>
    <path class="cls-2" d="m46.07,34.85v4.66h-.41c-.09,0-.15-.04-.17-.13l-.06-.35c-.13.16-.29.28-.46.38s-.37.14-.6.14c-.18,0-.34-.04-.49-.11-.15-.07-.27-.18-.38-.32-.1-.14-.19-.31-.24-.51-.06-.21-.09-.44-.09-.7,0-.24.03-.46.1-.66.06-.2.16-.38.28-.53.12-.15.26-.27.44-.35s.36-.13.57-.13c.19,0,.35.03.48.09.13.06.25.14.36.25v-1.73h.68Zm-.68,2.24c-.09-.12-.2-.21-.31-.25-.11-.05-.24-.07-.37-.07-.26,0-.47.1-.62.29-.15.19-.22.48-.22.86,0,.2.02.37.05.51.03.14.08.25.14.34.06.09.14.15.23.19s.19.06.3.06c.17,0,.32-.04.45-.11.12-.08.24-.18.35-.32v-1.5Z"/>
    <path class="cls-2" d="m47.23,37.96c0,.18.04.34.08.47.05.13.11.24.19.33.08.09.18.15.29.2.11.04.24.06.38.06s.25-.02.34-.05.18-.06.25-.1.13-.07.18-.1c.05-.03.1-.05.14-.05.05,0,.1.02.13.06l.19.25c-.08.09-.17.17-.27.24s-.21.12-.32.16-.23.07-.35.09c-.12.02-.24.03-.35.03-.22,0-.43-.04-.62-.11-.19-.07-.36-.18-.49-.33-.14-.14-.25-.32-.33-.54-.08-.21-.12-.46-.12-.74,0-.22.04-.43.11-.62s.17-.36.3-.5c.13-.14.29-.26.48-.34.19-.08.4-.12.64-.12.2,0,.38.03.55.1.17.06.31.16.43.28.12.12.22.27.28.45s.1.38.1.61c0,.1-.01.17-.04.21-.02.04-.06.05-.12.05h-2.06Zm1.61-.42c0-.11-.02-.22-.05-.32s-.08-.18-.14-.25c-.06-.07-.14-.13-.23-.17-.09-.04-.2-.06-.32-.06-.25,0-.44.07-.58.21s-.23.34-.27.59h1.6Z"/>
    <path class="cls-2" d="m53.83,35.75s-.05.07-.07.08c-.02.02-.06.03-.09.03-.04,0-.08-.02-.13-.05-.05-.03-.11-.07-.18-.11-.07-.04-.16-.08-.26-.11-.1-.04-.22-.05-.35-.05-.12,0-.24.02-.33.05-.09.03-.17.08-.24.13s-.11.12-.15.2c-.03.08-.05.16-.05.25,0,.12.03.21.09.29.06.08.14.14.24.2s.21.1.34.14.26.08.39.13c.13.05.26.1.39.16.13.06.24.13.34.22.1.09.18.2.24.33.06.13.09.29.09.47,0,.2-.04.39-.1.57-.07.18-.17.33-.3.46-.13.13-.29.23-.49.31-.19.08-.41.11-.66.11-.15,0-.29-.01-.42-.04s-.27-.07-.39-.12c-.12-.05-.24-.11-.35-.19s-.21-.16-.29-.25l.21-.35s.04-.05.07-.07.06-.03.1-.03c.05,0,.1.02.16.07.06.05.13.09.21.15.08.05.18.1.3.15s.26.07.42.07c.27,0,.47-.06.62-.19s.22-.31.22-.54c0-.13-.03-.23-.09-.31-.06-.08-.14-.15-.24-.2s-.21-.1-.34-.14c-.13-.04-.26-.08-.39-.12s-.26-.09-.39-.15-.24-.13-.34-.23c-.1-.09-.18-.21-.24-.35-.06-.14-.09-.31-.09-.51,0-.16.03-.32.1-.48.06-.15.16-.29.28-.41.12-.12.27-.21.45-.29.18-.07.39-.11.62-.11.26,0,.5.04.72.12s.4.2.56.35l-.18.35Z"/>
    <path class="cls-2" d="m55.98,36.25c.24,0,.45.04.64.12.19.08.36.19.49.33.14.14.24.32.31.52s.11.43.11.69-.04.48-.11.69-.18.38-.31.52c-.13.14-.3.25-.49.33-.19.08-.41.12-.64.12s-.46-.04-.65-.12c-.19-.08-.36-.19-.49-.33-.14-.14-.24-.32-.31-.52s-.11-.43-.11-.69.04-.48.11-.69.18-.38.31-.52c.14-.14.3-.25.49-.33.19-.08.41-.12.65-.12Zm0,2.78c.29,0,.5-.1.65-.29s.21-.47.21-.83-.07-.64-.21-.84-.36-.29-.65-.29-.51.1-.65.29-.21.47-.21.84.07.64.21.83.36.29.65.29Z"/>
    <path class="cls-2" d="m58.72,34.85v4.66h-.68v-4.66h.68Z"/>
    <path class="cls-2" d="m62.11,36.3v3.21h-.41c-.09,0-.15-.04-.17-.13l-.05-.3c-.07.07-.14.14-.21.2-.08.06-.15.11-.24.15-.08.04-.17.07-.27.1s-.2.04-.31.04c-.18,0-.33-.03-.47-.09-.13-.06-.25-.14-.34-.25-.09-.11-.16-.24-.21-.39-.05-.15-.07-.32-.07-.5v-2.04h.68v2.04c0,.22.05.38.15.5.1.12.25.18.46.18.15,0,.29-.03.42-.1s.25-.16.36-.28v-2.34h.68Z"/>
    <path class="cls-2" d="m65.89,39.51h-.68v-2.68h-1.56v1.82c0,.12.03.2.08.26.06.06.13.09.23.09.05,0,.1,0,.13-.02s.07-.03.1-.04.05-.03.07-.04c.02-.01.04-.02.06-.02.04,0,.07.02.09.06l.2.33c-.11.09-.23.16-.37.21-.14.05-.29.07-.44.07-.27,0-.47-.08-.61-.23-.14-.15-.22-.36-.22-.63v-1.87h-.35s-.07-.01-.1-.04-.04-.06-.04-.11v-.27l.52-.08.15-.93s.03-.07.05-.09c.03-.02.06-.03.1-.03h.35v1.05h2.24v3.17Zm.14-4.19c0,.06-.01.12-.04.17-.02.05-.06.1-.1.14-.04.04-.09.07-.15.1-.06.02-.11.04-.17.04s-.12-.01-.17-.04c-.05-.02-.1-.06-.14-.1-.04-.04-.07-.09-.1-.14-.02-.05-.04-.11-.04-.17s.01-.12.04-.18.06-.1.1-.14c.04-.04.09-.07.14-.1.05-.02.11-.04.17-.04s.12.01.17.04c.06.02.1.06.15.1.04.04.08.09.1.14.02.06.04.11.04.18Z"/>
    <path class="cls-2" d="m67.97,36.25c.24,0,.45.04.64.12.19.08.36.19.49.33.14.14.24.32.31.52s.11.43.11.69-.04.48-.11.69-.18.38-.31.52c-.13.14-.3.25-.49.33-.19.08-.41.12-.64.12s-.46-.04-.65-.12c-.19-.08-.36-.19-.49-.33-.14-.14-.24-.32-.31-.52s-.11-.43-.11-.69.04-.48.11-.69.18-.38.31-.52c.14-.14.3-.25.49-.33.19-.08.41-.12.65-.12Zm0,2.78c.29,0,.5-.1.65-.29s.21-.47.21-.83-.07-.64-.21-.84-.36-.29-.65-.29-.51.1-.65.29-.21.47-.21.84.07.64.21.83.36.29.65.29Z"/>
    <path class="cls-2" d="m70.65,36.72c.07-.07.14-.14.22-.19.07-.06.15-.11.24-.15s.17-.07.27-.1c.09-.02.2-.03.31-.03.18,0,.33.03.46.09.13.06.25.14.34.25.09.11.16.24.21.38.05.15.07.32.07.5v2.04h-.67v-2.04c0-.22-.05-.38-.15-.5-.1-.12-.25-.18-.46-.18-.15,0-.29.03-.42.1s-.25.16-.36.28v2.34h-.68v-3.21h.41c.09,0,.15.04.18.13l.05.29Z"/>
  </g>
  <g>
    <path class="cls-2" d="m76.15,8.69c.44.14.77.35,1,.65s.33.66.33,1.1c0,.32-.06.6-.18.86-.12.26-.29.47-.5.65-.22.18-.47.32-.78.42-.3.1-.63.15-1,.15s-.7-.05-1-.15c-.3-.1-.56-.24-.78-.42-.22-.18-.38-.4-.5-.65-.12-.26-.18-.54-.18-.86,0-.44.11-.81.33-1.1s.55-.51,1-.65c-.36-.14-.63-.35-.81-.62s-.27-.6-.27-.98c0-.27.05-.52.16-.75.11-.23.26-.43.45-.61.19-.17.43-.31.7-.4.27-.1.57-.15.9-.15s.63.05.9.15c.27.1.5.23.7.4.19.17.35.37.45.61.11.23.16.48.16.75,0,.38-.09.71-.27.98s-.45.48-.81.62Zm-1.13,2.98c.22,0,.41-.03.58-.09.17-.06.31-.15.43-.26s.2-.24.26-.4c.06-.15.09-.32.09-.5,0-.22-.03-.41-.1-.57-.07-.16-.16-.29-.28-.4-.12-.1-.27-.18-.43-.23-.17-.05-.35-.08-.54-.08s-.37.03-.54.08c-.17.05-.31.13-.43.23-.12.11-.22.24-.28.4-.07.16-.1.35-.1.57,0,.18.03.35.09.5.06.15.15.29.26.4s.26.2.43.26c.17.06.36.09.58.09Zm0-5.67c-.2,0-.37.03-.52.09s-.27.14-.37.24c-.1.1-.17.22-.22.35-.05.13-.07.28-.07.43s.02.3.06.44c.04.14.11.27.2.38.09.11.21.2.36.27.15.07.33.1.55.1s.4-.03.55-.1c.15-.07.27-.16.36-.27.09-.11.16-.24.2-.38.04-.14.06-.29.06-.44s-.02-.29-.07-.43c-.05-.13-.12-.25-.22-.35-.1-.1-.22-.18-.37-.24-.15-.06-.32-.09-.51-.09Z"/>
    <path class="cls-2" d="m82.68,11.62v.81h-3.92v-.81h1.5v-4.5c0-.16,0-.32.02-.49l-1.15.97s-.1.07-.15.08c-.05.01-.1.01-.14,0-.04-.01-.08-.03-.12-.05-.04-.02-.06-.05-.08-.07l-.33-.47,2.16-1.86h.87v6.38h1.35Z"/>
  </g>
  <g>
    <path class="cls-2" d="m15.66,17.38v11.46h-.78c-.12,0-.23-.02-.31-.06-.08-.04-.16-.11-.24-.21l-6.63-8.64c.01.13.02.26.02.39,0,.13,0,.25,0,.36v8.17h-1.36v-11.46h.8c.07,0,.13,0,.18.01.05,0,.09.02.13.04.04.02.07.04.11.08.04.04.08.08.12.13l6.63,8.63c-.01-.14-.02-.27-.03-.4,0-.13-.01-.25-.01-.37v-8.12h1.36Z"/>
    <path class="cls-2" d="m17.4,21.88c.45-.43.93-.75,1.45-.97.52-.21,1.09-.32,1.72-.32.45,0,.86.07,1.21.22.35.15.65.36.89.62.24.27.42.59.54.97s.18.79.18,1.25v5.18h-.63c-.14,0-.25-.02-.32-.07-.07-.04-.13-.13-.18-.27l-.16-.77c-.21.2-.42.37-.62.52s-.42.28-.64.38c-.22.1-.46.18-.72.24s-.53.08-.84.08-.61-.04-.89-.13-.52-.22-.72-.4c-.21-.18-.37-.4-.49-.67-.12-.27-.18-.59-.18-.96,0-.32.09-.63.26-.92.18-.3.46-.56.86-.79.39-.23.91-.42,1.54-.56.63-.15,1.41-.23,2.34-.25v-.63c0-.63-.14-1.11-.41-1.43-.27-.32-.67-.48-1.19-.48-.35,0-.65.04-.88.13s-.44.19-.62.3-.32.21-.45.3c-.13.09-.25.13-.37.13-.1,0-.18-.03-.25-.08s-.13-.11-.18-.19l-.26-.46Zm4.6,3.31c-.66.02-1.21.07-1.68.16-.46.08-.84.19-1.13.32-.29.13-.5.29-.63.47-.13.18-.2.38-.2.61,0,.21.03.4.1.55.07.16.16.28.28.38.12.1.26.17.42.22.16.04.34.07.52.07.25,0,.48-.03.69-.08.21-.05.4-.12.59-.22s.36-.21.53-.34.33-.29.49-.46v-1.68Z"/>
    <path class="cls-2" d="m33.37,26.48c.08,0,.16.04.22.1l.62.66c-.47.54-1.04.97-1.71,1.27-.67.3-1.48.46-2.43.46-.82,0-1.57-.14-2.24-.43-.67-.29-1.25-.69-1.72-1.2s-.84-1.13-1.1-1.85c-.26-.72-.39-1.51-.39-2.38s.14-1.66.41-2.38c.27-.72.65-1.34,1.15-1.86.49-.52,1.08-.92,1.77-1.2s1.45-.43,2.28-.43,1.54.13,2.16.39c.62.26,1.17.62,1.65,1.06l-.51.71c-.03.05-.07.1-.12.13s-.12.05-.2.05c-.1,0-.21-.05-.35-.16-.14-.1-.32-.22-.54-.35s-.5-.24-.84-.35-.75-.16-1.24-.16c-.59,0-1.13.1-1.62.31s-.91.5-1.27.89c-.35.39-.63.86-.83,1.42-.2.56-.3,1.19-.3,1.9s.1,1.35.31,1.91c.21.56.49,1.03.84,1.42.35.39.77.68,1.26.88.48.2,1,.3,1.56.3.34,0,.65-.02.92-.06.27-.04.53-.1.76-.19s.45-.19.65-.32c.2-.13.4-.29.6-.47.09-.08.18-.12.27-.12Z"/>
    <path class="cls-2" d="m36.75,17.06v11.78h-1.42v-11.78h1.42Z"/>
  </g>
</svg>