<?xml version="1.0" encoding="UTF-8"?>
<svg id="Layer_1" data-name="Layer 1" xmlns="http://www.w3.org/2000/svg" viewBox="0 0 87.75 87.75">
  <defs>
    <style>
      .cls-1 {
        fill: #0b20b6;
      }

      .cls-1, .cls-2 {
        stroke-width: 0px;
      }

      .cls-2 {
        fill: #20b19b;
      }
    </style>
  </defs>
  <path class="cls-1" d="m78.85,80.91l-16.11-11.21,16.11-11.57v22.78Zm-15.24-11.22l14.74,10.26v-20.85l-14.74,10.59Z"/>
  <rect class="cls-2" x=".25" y=".25" width="29.08" height="3.49"/>
  <path class="cls-1" d="m87.75,87.75H0V0h87.75v87.75ZM.5,87.25h86.75V.5H.5v86.75Z"/>
  <rect class="cls-1" x="6.36" y="47.78" width="75.03" height=".5"/>
  <path class="cls-1" d="m83.08,9.78v.62c0,.06-.02.11-.06.15-.04.04-.1.07-.17.07h-.76v1.82h-.93v-1.82h-3.11c-.08,0-.14-.02-.2-.07-.06-.04-.09-.1-.11-.17l-.11-.55,3.45-4.59h1.01v4.53h.99Zm-1.93,0v-2.62c0-.21.02-.44.04-.69l-2.41,3.31h2.37Z"/>
  <g>
    <path class="cls-1" d="m10.03,17.38c.7,0,1.31.07,1.82.21s.93.34,1.26.59c.33.26.57.57.72.94.15.37.23.79.23,1.25,0,.28-.04.55-.13.81-.09.26-.22.5-.4.72s-.4.43-.67.6c-.27.18-.59.32-.95.44.84.16,1.48.46,1.9.9.42.44.64,1.02.64,1.73,0,.49-.09.93-.27,1.33s-.44.74-.78,1.03c-.34.29-.77.51-1.27.67-.5.16-1.07.24-1.71.24h-4.05v-11.46h3.66Zm-2.11,1.22v3.91h2.05c.44,0,.82-.05,1.14-.14.32-.1.59-.23.8-.4.21-.17.37-.38.47-.62.1-.24.15-.51.15-.8,0-.68-.2-1.17-.61-1.48s-1.03-.47-1.89-.47h-2.11Zm2.48,9.01c.44,0,.82-.05,1.14-.15.32-.1.58-.24.79-.43.21-.18.36-.4.45-.66.1-.25.14-.53.14-.84,0-.59-.21-1.06-.63-1.4-.42-.34-1.05-.52-1.9-.52h-2.48v3.99h2.48Z"/>
    <path class="cls-1" d="m21.67,22.18c-.04.06-.09.1-.13.14-.04.03-.1.05-.18.05-.08,0-.17-.03-.26-.1-.1-.07-.21-.14-.36-.22-.14-.08-.31-.15-.52-.22-.21-.07-.46-.1-.76-.1-.4,0-.75.07-1.06.21-.3.14-.56.35-.76.61-.21.27-.36.59-.46.97-.1.38-.16.8-.16,1.27s.06.93.17,1.31c.11.38.27.7.48.96.21.26.45.46.74.59.29.14.62.2.98.2s.63-.04.86-.12c.22-.08.41-.17.56-.28.15-.1.27-.19.37-.28s.2-.12.29-.12c.12,0,.21.05.27.14l.4.52c-.18.22-.38.41-.6.56-.22.15-.47.28-.72.39s-.53.18-.81.23-.57.07-.86.07c-.51,0-.98-.09-1.41-.28-.44-.19-.81-.46-1.13-.81-.32-.35-.57-.79-.75-1.31-.18-.52-.27-1.11-.27-1.77,0-.6.08-1.16.25-1.67s.41-.95.74-1.32c.32-.37.72-.66,1.19-.87s1.01-.31,1.63-.31c.57,0,1.07.09,1.51.28.44.18.82.44,1.16.78l-.38.51Z"/>
    <path class="cls-1" d="m27.1,17.38c.7,0,1.31.07,1.82.21s.93.34,1.26.59c.33.26.57.57.72.94.15.37.23.79.23,1.25,0,.28-.04.55-.13.81-.09.26-.22.5-.4.72s-.4.43-.67.6c-.27.18-.59.32-.95.44.84.16,1.48.46,1.9.9.42.44.64,1.02.64,1.73,0,.49-.09.93-.27,1.33s-.44.74-.78,1.03c-.34.29-.77.51-1.27.67-.5.16-1.07.24-1.71.24h-4.05v-11.46h3.66Zm-2.11,1.22v3.91h2.05c.44,0,.82-.05,1.14-.14.32-.1.59-.23.8-.4.21-.17.37-.38.47-.62.1-.24.15-.51.15-.8,0-.68-.2-1.17-.61-1.48s-1.03-.47-1.89-.47h-2.11Zm2.48,9.01c.44,0,.82-.05,1.14-.15.32-.1.58-.24.79-.43.21-.18.36-.4.45-.66.1-.25.14-.53.14-.84,0-.59-.21-1.06-.63-1.4-.42-.34-1.05-.52-1.9-.52h-2.48v3.99h2.48Z"/>
    <path class="cls-1" d="m34.74,21.71c.6-.13,1.15-.19,1.65-.19.6,0,1.13.09,1.58.26.46.18.84.42,1.15.73s.54.67.7,1.1c.16.42.24.88.24,1.38,0,.61-.11,1.16-.32,1.65-.21.49-.5.91-.87,1.26-.37.35-.81.62-1.31.8-.5.19-1.04.28-1.62.28-.34,0-.66-.03-.97-.1-.31-.07-.6-.16-.87-.27-.27-.11-.52-.24-.75-.38s-.43-.3-.61-.46l.44-.61c.1-.14.22-.21.38-.21.11,0,.23.04.36.12s.3.17.49.28c.19.1.42.19.68.28.26.08.57.12.92.12.4,0,.76-.06,1.08-.19.32-.13.59-.31.82-.55s.41-.52.53-.85c.12-.33.18-.7.18-1.11,0-.36-.05-.68-.16-.97s-.26-.53-.47-.74c-.21-.2-.47-.36-.79-.47-.31-.11-.68-.17-1.1-.17-.29,0-.59.02-.9.07-.31.05-.63.12-.96.23l-.9-.26.92-5.36h5.43v.62c0,.2-.06.37-.19.5-.13.13-.34.2-.64.2h-3.6l-.53,3.01Z"/>
  </g>
  <g>
    <path class="cls-1" d="m10.48,34.98l-1.84,4.53h-.66l-1.84-4.53h.59c.06,0,.12.02.16.05s.07.07.09.12l1.17,2.96c.06.17.12.36.17.57.02-.11.05-.21.07-.3.03-.1.05-.19.09-.27l1.16-2.96s.05-.08.09-.12c.04-.04.09-.05.16-.05h.59Z"/>
    <path class="cls-1" d="m11.54,35.33c0,.06-.01.12-.04.17-.02.05-.06.1-.1.14s-.09.07-.15.1c-.06.02-.11.04-.18.04s-.12-.01-.17-.04c-.05-.02-.1-.06-.14-.1-.04-.04-.07-.09-.1-.14-.02-.05-.04-.11-.04-.17s.01-.12.04-.18c.02-.05.06-.1.1-.14.04-.04.09-.07.14-.1.05-.02.11-.04.17-.04s.12.01.18.04.1.06.15.1.07.09.1.14c.02.05.04.11.04.18Zm-.11.97v3.21h-.68v-3.21h.68Z"/>
    <path class="cls-1" d="m13.15,39.56c-.27,0-.47-.08-.61-.23-.14-.15-.22-.36-.22-.63v-1.87h-.35s-.07-.01-.1-.04c-.03-.02-.04-.06-.04-.11v-.27l.52-.08.15-.93s.03-.07.05-.09c.02-.02.06-.03.1-.03h.35v1.05h.89v.49h-.89v1.82c0,.12.03.2.08.26.06.06.13.09.23.09.05,0,.1,0,.14-.02.04-.01.07-.03.1-.04.03-.02.05-.03.07-.04.02-.01.04-.02.06-.02.04,0,.07.02.09.06l.2.33c-.1.09-.23.16-.37.21-.14.05-.29.07-.44.07Z"/>
    <path class="cls-1" d="m14.19,36.75c.36-.34.79-.51,1.3-.51.18,0,.35.03.49.09.14.06.26.14.36.25.1.11.17.24.22.39.05.15.08.32.08.5v2.04h-.3c-.07,0-.11,0-.15-.03-.03-.02-.06-.06-.08-.12l-.07-.26c-.08.07-.16.14-.24.2s-.16.11-.25.15-.18.07-.27.09c-.1.02-.21.03-.32.03-.13,0-.25-.02-.36-.05-.11-.04-.21-.09-.29-.16-.08-.07-.15-.16-.19-.27-.05-.11-.07-.23-.07-.38,0-.12.03-.25.1-.36.07-.12.18-.22.33-.32.15-.09.35-.17.6-.23.25-.06.56-.09.92-.1v-.21c0-.23-.05-.4-.15-.52s-.24-.17-.43-.17c-.13,0-.24.02-.33.05-.09.03-.16.07-.23.1-.07.04-.12.07-.17.11-.05.03-.1.05-.16.05-.05,0-.09-.01-.12-.04-.03-.02-.06-.05-.08-.09l-.12-.22Zm1.79,1.36c-.24,0-.44.03-.61.06-.17.03-.3.07-.4.12-.1.05-.18.1-.22.17-.04.07-.07.14-.07.21s.01.14.04.19c.02.05.06.1.1.13.04.03.09.06.15.08s.12.02.19.02c.18,0,.33-.03.45-.1.13-.07.25-.16.37-.29v-.59Z"/>
    <path class="cls-1" d="m17.27,39.51v-3.21h.41c.09,0,.15.04.18.13l.04.28c.06-.07.12-.13.18-.18s.13-.1.2-.14c.07-.04.15-.07.23-.1.08-.02.17-.03.27-.03.1,0,.2.01.28.04s.16.07.23.13c.07.05.12.12.17.2.05.08.09.16.12.26.05-.11.11-.21.18-.29.07-.08.16-.14.25-.2.09-.05.19-.09.29-.11.1-.02.21-.04.31-.04.17,0,.33.03.46.08s.25.13.34.24.16.23.21.38c.05.15.07.32.07.52v2.04h-.68v-2.04c0-.23-.05-.4-.15-.51s-.24-.17-.43-.17c-.09,0-.17.01-.24.04-.08.03-.14.07-.2.13s-.1.13-.13.21c-.03.08-.05.18-.05.3v2.04h-.68v-2.04c0-.24-.05-.41-.14-.52-.09-.11-.23-.17-.42-.17-.13,0-.24.03-.35.1-.11.06-.21.15-.3.26v2.37h-.68Z"/>
    <path class="cls-1" d="m23.16,35.33c0,.06-.01.12-.04.17-.02.05-.06.1-.1.14s-.09.07-.15.1c-.06.02-.11.04-.18.04s-.12-.01-.17-.04c-.05-.02-.1-.06-.14-.1-.04-.04-.07-.09-.1-.14-.02-.05-.04-.11-.04-.17s.01-.12.04-.18c.02-.05.06-.1.1-.14.04-.04.09-.07.14-.1.05-.02.11-.04.17-.04s.12.01.18.04.1.06.15.1.07.09.1.14c.02.05.04.11.04.18Zm-.11.97v3.21h-.68v-3.21h.68Z"/>
    <path class="cls-1" d="m24.37,36.72c.07-.07.14-.14.22-.19.07-.06.15-.11.24-.15.08-.04.17-.07.27-.1.09-.02.2-.03.31-.03.18,0,.33.03.46.09s.25.14.34.25c.09.11.16.24.21.38.05.15.07.32.07.5v2.04h-.67v-2.04c0-.22-.05-.38-.15-.5-.1-.12-.25-.18-.46-.18-.15,0-.29.03-.42.1s-.25.16-.36.28v2.34h-.68v-3.21h.41c.09,0,.15.04.18.13l.05.29Z"/>
    <path class="cls-1" d="m30.15,34.98c.29,0,.54.03.74.08.21.06.37.14.51.24.13.1.23.23.29.38.06.15.09.31.09.5,0,.11-.02.21-.05.31-.03.1-.08.19-.15.28-.07.09-.15.17-.26.23-.1.07-.22.13-.37.17.64.14.96.48.96,1.02,0,.19-.04.37-.11.53s-.18.3-.31.42c-.14.12-.31.21-.51.27-.2.07-.43.1-.69.1h-1.66v-4.53h1.51Zm-.77.58v1.42h.74c.31,0,.55-.06.7-.18.16-.12.23-.3.23-.53,0-.25-.07-.43-.22-.54-.15-.11-.37-.17-.68-.17h-.77Zm.91,3.37c.17,0,.31-.02.42-.06.11-.04.21-.09.28-.16.07-.07.12-.15.16-.24.03-.09.05-.19.05-.29,0-.21-.07-.38-.22-.5-.15-.12-.38-.18-.69-.18h-.91v1.44h.91Z"/>
    <path class="cls-1" d="m33.27,36.65c.11-.02.21-.04.31-.05.1-.01.2-.02.29-.02.24,0,.45.04.63.11.18.07.33.17.46.29.12.12.21.27.28.44s.09.35.09.54c0,.24-.04.46-.13.66-.08.2-.2.37-.35.5s-.32.25-.53.32c-.2.08-.42.11-.66.11-.14,0-.27-.01-.4-.04-.12-.03-.24-.06-.35-.11-.11-.05-.21-.1-.3-.16-.09-.06-.18-.13-.25-.19l.21-.29c.04-.06.1-.09.18-.09.05,0,.1.02.15.05.05.03.12.07.19.11.07.04.16.08.26.11.1.03.22.05.35.05.15,0,.28-.02.4-.07.12-.05.22-.12.3-.2.08-.09.14-.19.18-.31.04-.12.06-.25.06-.4,0-.13-.02-.25-.06-.36-.04-.1-.1-.19-.17-.27s-.17-.13-.29-.17c-.12-.04-.25-.06-.4-.06-.11,0-.23,0-.34.03-.12.02-.23.05-.35.09l-.42-.12.37-2.17h2.19v.29c0,.1-.03.17-.09.24-.06.06-.16.09-.31.09h-1.33l-.18,1.05Z"/>
  </g>
</svg>