<?xml version="1.0" encoding="UTF-8"?>
<svg id="Layer_1" data-name="Layer 1" xmlns="http://www.w3.org/2000/svg" viewBox="0 0 87.75 87.75">
  <defs>
    <style>
      .cls-1 {
        fill: #0b20b6;
      }

      .cls-1, .cls-2 {
        stroke-width: 0px;
      }

      .cls-2 {
        fill: #20b19b;
      }
    </style>
  </defs>
  <rect class="cls-1" x="64.26" y="59.7" width=".5" height="16.77"/>
  <rect class="cls-1" x="78.94" y="59.7" width=".5" height="16.77"/>
  <rect class="cls-1" x="71.6" y="64.73" width=".5" height="16.77"/>
  <rect class="cls-2" x=".25" y=".25" width="29.08" height="3.49"/>
  <path class="cls-1" d="m87.75,87.75H0V0h87.75v87.75ZM.5,87.25h86.75V.5H.5v86.75Z"/>
  <rect class="cls-1" x="6.36" y="47.78" width="75.03" height=".5"/>
  <path class="cls-1" d="m80.04,7.9c-.05.07-.1.13-.15.19-.05.06-.1.12-.14.18.15-.09.32-.15.5-.2.18-.05.38-.08.59-.08.28,0,.55.05.8.14.26.09.48.23.68.41.19.18.35.41.47.67.12.27.17.58.17.92s-.06.64-.18.93c-.12.29-.29.54-.51.76-.22.21-.48.38-.79.51-.31.12-.65.19-1.02.19s-.71-.06-1.01-.18c-.3-.12-.55-.29-.77-.51-.21-.22-.37-.48-.49-.79-.11-.31-.17-.65-.17-1.02,0-.33.07-.67.21-1.02s.36-.73.65-1.12l1.77-2.37c.05-.07.13-.13.23-.18.1-.05.22-.08.34-.08h.95l-2.13,2.64Zm.39,3.73c.22,0,.41-.04.59-.11s.33-.17.46-.3c.13-.13.23-.28.3-.45s.1-.36.1-.56c0-.22-.03-.42-.1-.59-.07-.17-.17-.32-.29-.44-.12-.12-.27-.21-.45-.28-.17-.06-.37-.1-.58-.1s-.41.04-.59.11c-.17.07-.32.17-.45.3-.12.13-.22.27-.28.44s-.1.35-.1.54c0,.21.03.41.09.58.06.18.15.33.26.45.12.12.26.22.43.29.17.07.37.11.59.11Z"/>
  <g>
    <path class="cls-1" d="m10.03,17.38c.7,0,1.31.07,1.82.21s.93.34,1.26.59c.33.26.57.57.72.94.15.37.23.79.23,1.25,0,.28-.04.55-.13.81-.09.26-.22.5-.4.72s-.4.43-.67.6c-.27.18-.59.32-.95.44.84.16,1.48.46,1.9.9.42.44.64,1.02.64,1.73,0,.49-.09.93-.27,1.33s-.44.74-.78,1.03c-.34.29-.77.51-1.27.67-.5.16-1.07.24-1.71.24h-4.05v-11.46h3.66Zm-2.11,1.22v3.91h2.05c.44,0,.82-.05,1.14-.14.32-.1.59-.23.8-.4.21-.17.37-.38.47-.62.1-.24.15-.51.15-.8,0-.68-.2-1.17-.61-1.48s-1.03-.47-1.89-.47h-2.11Zm2.48,9.01c.44,0,.82-.05,1.14-.15.32-.1.58-.24.79-.43.21-.18.36-.4.45-.66.1-.25.14-.53.14-.84,0-.59-.21-1.06-.63-1.4-.42-.34-1.05-.52-1.9-.52h-2.48v3.99h2.48Z"/>
    <path class="cls-1" d="m21.67,22.18c-.04.06-.09.1-.13.14-.04.03-.1.05-.18.05-.08,0-.17-.03-.26-.1-.1-.07-.21-.14-.36-.22-.14-.08-.31-.15-.52-.22-.21-.07-.46-.1-.76-.1-.4,0-.75.07-1.06.21-.3.14-.56.35-.76.61-.21.27-.36.59-.46.97-.1.38-.16.8-.16,1.27s.06.93.17,1.31c.11.38.27.7.48.96.21.26.45.46.74.59.29.14.62.2.98.2s.63-.04.86-.12c.22-.08.41-.17.56-.28.15-.1.27-.19.37-.28s.2-.12.29-.12c.12,0,.21.05.27.14l.4.52c-.18.22-.38.41-.6.56-.22.15-.47.28-.72.39s-.53.18-.81.23-.57.07-.86.07c-.51,0-.98-.09-1.41-.28-.44-.19-.81-.46-1.13-.81-.32-.35-.57-.79-.75-1.31-.18-.52-.27-1.11-.27-1.77,0-.6.08-1.16.25-1.67s.41-.95.74-1.32c.32-.37.72-.66,1.19-.87s1.01-.31,1.63-.31c.57,0,1.07.09,1.51.28.44.18.82.44,1.16.78l-.38.51Z"/>
    <path class="cls-1" d="m27.1,17.38c.7,0,1.31.07,1.82.21s.93.34,1.26.59c.33.26.57.57.72.94.15.37.23.79.23,1.25,0,.28-.04.55-.13.81-.09.26-.22.5-.4.72s-.4.43-.67.6c-.27.18-.59.32-.95.44.84.16,1.48.46,1.9.9.42.44.64,1.02.64,1.73,0,.49-.09.93-.27,1.33s-.44.74-.78,1.03c-.34.29-.77.51-1.27.67-.5.16-1.07.24-1.71.24h-4.05v-11.46h3.66Zm-2.11,1.22v3.91h2.05c.44,0,.82-.05,1.14-.14.32-.1.59-.23.8-.4.21-.17.37-.38.47-.62.1-.24.15-.51.15-.8,0-.68-.2-1.17-.61-1.48s-1.03-.47-1.89-.47h-2.11Zm2.48,9.01c.44,0,.82-.05,1.14-.15.32-.1.58-.24.79-.43.21-.18.36-.4.45-.66.1-.25.14-.53.14-.84,0-.59-.21-1.06-.63-1.4-.42-.34-1.05-.52-1.9-.52h-2.48v3.99h2.48Z"/>
    <path class="cls-1" d="m39.99,27.76v1.09h-6.14v-1.09h2.46v-7.82c0-.23,0-.47.02-.71l-2.04,1.75c-.07.06-.14.09-.21.11s-.13.01-.19,0-.11-.03-.16-.06c-.05-.03-.09-.07-.12-.1l-.45-.62,3.42-2.95h1.16v10.4h2.26Z"/>
    <path class="cls-1" d="m48.62,27.49c.15,0,.28.05.37.14s.14.21.14.35v.86h-7.65v-.49c0-.1.02-.21.06-.31.04-.11.11-.21.2-.3l3.67-3.69c.3-.31.58-.61.83-.89.25-.29.46-.57.64-.86.18-.29.31-.58.41-.88.1-.3.14-.61.14-.95s-.05-.63-.16-.88c-.11-.25-.25-.46-.44-.63-.18-.17-.4-.29-.65-.37-.25-.08-.52-.12-.81-.12s-.56.04-.81.13c-.25.09-.46.2-.65.36-.19.15-.35.33-.48.54-.13.21-.22.44-.27.69-.06.19-.15.31-.26.37-.11.06-.26.08-.46.05l-.74-.13c.07-.52.22-.99.44-1.39.22-.4.49-.74.82-1.01.33-.27.7-.48,1.12-.62.42-.14.88-.21,1.37-.21s.94.07,1.36.22.79.35,1.1.63c.31.27.55.61.73,1,.18.4.26.84.26,1.34,0,.43-.06.82-.19,1.19s-.3.71-.52,1.04-.47.65-.76.97c-.29.31-.59.63-.91.95l-3.02,3.09c.21-.06.43-.1.65-.14s.43-.05.63-.05h3.84Z"/>
  </g>
  <g>
    <path class="cls-1" d="m10.48,34.98l-1.84,4.53h-.66l-1.84-4.53h.59c.06,0,.12.02.16.05s.07.07.09.12l1.17,2.96c.06.17.12.36.17.57.02-.11.05-.21.07-.3.03-.1.05-.19.09-.27l1.16-2.96s.05-.08.09-.12c.04-.04.09-.05.16-.05h.59Z"/>
    <path class="cls-1" d="m11.54,35.33c0,.06-.01.12-.04.17-.02.05-.06.1-.1.14s-.09.07-.15.1c-.06.02-.11.04-.18.04s-.12-.01-.17-.04c-.05-.02-.1-.06-.14-.1-.04-.04-.07-.09-.1-.14-.02-.05-.04-.11-.04-.17s.01-.12.04-.18c.02-.05.06-.1.1-.14.04-.04.09-.07.14-.1.05-.02.11-.04.17-.04s.12.01.18.04.1.06.15.1.07.09.1.14c.02.05.04.11.04.18Zm-.11.97v3.21h-.68v-3.21h.68Z"/>
    <path class="cls-1" d="m13.15,39.56c-.27,0-.47-.08-.61-.23-.14-.15-.22-.36-.22-.63v-1.87h-.35s-.07-.01-.1-.04c-.03-.02-.04-.06-.04-.11v-.27l.52-.08.15-.93s.03-.07.05-.09c.02-.02.06-.03.1-.03h.35v1.05h.89v.49h-.89v1.82c0,.12.03.2.08.26.06.06.13.09.23.09.05,0,.1,0,.14-.02.04-.01.07-.03.1-.04.03-.02.05-.03.07-.04.02-.01.04-.02.06-.02.04,0,.07.02.09.06l.2.33c-.1.09-.23.16-.37.21-.14.05-.29.07-.44.07Z"/>
    <path class="cls-1" d="m14.19,36.75c.36-.34.79-.51,1.3-.51.18,0,.35.03.49.09.14.06.26.14.36.25.1.11.17.24.22.39.05.15.08.32.08.5v2.04h-.3c-.07,0-.11,0-.15-.03-.03-.02-.06-.06-.08-.12l-.07-.26c-.08.07-.16.14-.24.2s-.16.11-.25.15-.18.07-.27.09c-.1.02-.21.03-.32.03-.13,0-.25-.02-.36-.05-.11-.04-.21-.09-.29-.16-.08-.07-.15-.16-.19-.27-.05-.11-.07-.23-.07-.38,0-.12.03-.25.1-.36.07-.12.18-.22.33-.32.15-.09.35-.17.6-.23.25-.06.56-.09.92-.1v-.21c0-.23-.05-.4-.15-.52s-.24-.17-.43-.17c-.13,0-.24.02-.33.05-.09.03-.16.07-.23.1-.07.04-.12.07-.17.11-.05.03-.1.05-.16.05-.05,0-.09-.01-.12-.04-.03-.02-.06-.05-.08-.09l-.12-.22Zm1.79,1.36c-.24,0-.44.03-.61.06-.17.03-.3.07-.4.12-.1.05-.18.1-.22.17-.04.07-.07.14-.07.21s.01.14.04.19c.02.05.06.1.1.13.04.03.09.06.15.08s.12.02.19.02c.18,0,.33-.03.45-.1.13-.07.25-.16.37-.29v-.59Z"/>
    <path class="cls-1" d="m17.27,39.51v-3.21h.41c.09,0,.15.04.18.13l.04.28c.06-.07.12-.13.18-.18s.13-.1.2-.14c.07-.04.15-.07.23-.1.08-.02.17-.03.27-.03.1,0,.2.01.28.04s.16.07.23.13c.07.05.12.12.17.2.05.08.09.16.12.26.05-.11.11-.21.18-.29.07-.08.16-.14.25-.2.09-.05.19-.09.29-.11.1-.02.21-.04.31-.04.17,0,.33.03.46.08s.25.13.34.24.16.23.21.38c.05.15.07.32.07.52v2.04h-.68v-2.04c0-.23-.05-.4-.15-.51s-.24-.17-.43-.17c-.09,0-.17.01-.24.04-.08.03-.14.07-.2.13s-.1.13-.13.21c-.03.08-.05.18-.05.3v2.04h-.68v-2.04c0-.24-.05-.41-.14-.52-.09-.11-.23-.17-.42-.17-.13,0-.24.03-.35.1-.11.06-.21.15-.3.26v2.37h-.68Z"/>
    <path class="cls-1" d="m23.16,35.33c0,.06-.01.12-.04.17-.02.05-.06.1-.1.14s-.09.07-.15.1c-.06.02-.11.04-.18.04s-.12-.01-.17-.04c-.05-.02-.1-.06-.14-.1-.04-.04-.07-.09-.1-.14-.02-.05-.04-.11-.04-.17s.01-.12.04-.18c.02-.05.06-.1.1-.14.04-.04.09-.07.14-.1.05-.02.11-.04.17-.04s.12.01.18.04.1.06.15.1.07.09.1.14c.02.05.04.11.04.18Zm-.11.97v3.21h-.68v-3.21h.68Z"/>
    <path class="cls-1" d="m24.37,36.72c.07-.07.14-.14.22-.19.07-.06.15-.11.24-.15.08-.04.17-.07.27-.1.09-.02.2-.03.31-.03.18,0,.33.03.46.09s.25.14.34.25c.09.11.16.24.21.38.05.15.07.32.07.5v2.04h-.67v-2.04c0-.22-.05-.38-.15-.5-.1-.12-.25-.18-.46-.18-.15,0-.29.03-.42.1s-.25.16-.36.28v2.34h-.68v-3.21h.41c.09,0,.15.04.18.13l.05.29Z"/>
    <path class="cls-1" d="m30.15,34.98c.29,0,.54.03.74.08.21.06.37.14.51.24.13.1.23.23.29.38.06.15.09.31.09.5,0,.11-.02.21-.05.31-.03.1-.08.19-.15.28-.07.09-.15.17-.26.23-.1.07-.22.13-.37.17.64.14.96.48.96,1.02,0,.19-.04.37-.11.53s-.18.3-.31.42c-.14.12-.31.21-.51.27-.2.07-.43.1-.69.1h-1.66v-4.53h1.51Zm-.77.58v1.42h.74c.31,0,.55-.06.7-.18.16-.12.23-.3.23-.53,0-.25-.07-.43-.22-.54-.15-.11-.37-.17-.68-.17h-.77Zm.91,3.37c.17,0,.31-.02.42-.06.11-.04.21-.09.28-.16.07-.07.12-.15.16-.24.03-.09.05-.19.05-.29,0-.21-.07-.38-.22-.5-.15-.12-.38-.18-.69-.18h-.91v1.44h.91Z"/>
    <path class="cls-1" d="m35.29,39v.51h-2.47v-.51h.94v-2.84c0-.1,0-.2,0-.31l-.73.61s-.06.04-.1.05c-.03,0-.06,0-.09,0-.03,0-.05-.02-.08-.03-.02-.01-.04-.03-.05-.05l-.21-.3,1.37-1.17h.55v4.03h.85Z"/>
    <path class="cls-1" d="m38.65,38.87c.07,0,.13.02.17.06s.06.1.06.17v.41h-3.06v-.23s0-.09.03-.14c.02-.05.05-.1.09-.14l1.41-1.41c.12-.12.23-.23.32-.34s.17-.22.24-.33c.07-.11.12-.22.15-.33s.05-.23.05-.35-.02-.22-.06-.32c-.04-.09-.09-.17-.15-.23-.06-.06-.14-.1-.23-.13-.09-.03-.19-.05-.29-.05s-.2.01-.28.04-.16.07-.23.12-.12.12-.17.19-.08.15-.1.24c-.03.09-.07.14-.12.17s-.12.04-.22.02l-.36-.06c.03-.21.09-.4.18-.56.09-.16.2-.3.33-.4.13-.11.28-.19.45-.25s.36-.08.56-.08.39.03.56.09c.17.06.31.15.44.25.12.11.22.24.29.4.07.16.1.33.1.53,0,.17-.02.32-.07.47-.05.14-.12.28-.2.41-.08.13-.18.26-.29.38-.11.12-.23.25-.35.37l-1.1,1.12c.09-.03.18-.04.27-.06.09-.01.18-.02.26-.02h1.33Z"/>
  </g>
</svg>