<?xml version="1.0" encoding="UTF-8"?>
<svg id="Layer_1" data-name="Layer 1" xmlns="http://www.w3.org/2000/svg" viewBox="0 0 87.75 87.75">
  <defs>
    <style>
      .cls-1 {
        fill: #0b20b6;
      }

      .cls-1, .cls-2 {
        stroke-width: 0px;
      }

      .cls-2 {
        fill: #20b19b;
      }
    </style>
  </defs>
  <path class="cls-1" d="m64.53,80.91l-5.6-9.71,5.46-9.46h10.92l5.6,9.71h-10.92l-5.46,9.46Zm-5.03-9.71l5.03,8.71,5.17-8.96h10.34l-5.03-8.71h-10.34l-5.17,8.96Z"/>
  <rect class="cls-2" x=".25" y=".25" width="29.08" height="3.49"/>
  <path class="cls-1" d="m87.75,87.75H0V0h87.75v87.75ZM.5,87.25h86.75V.5H.5v86.75Z"/>
  <rect class="cls-1" x="6.36" y="47.78" width="75.03" height=".5"/>
  <path class="cls-1" d="m78.14,7.23c.05-.34.14-.64.28-.89.14-.26.31-.47.52-.64.21-.17.45-.3.72-.39s.56-.13.88-.13.61.04.87.14c.26.09.49.22.67.38.19.16.33.36.43.58.1.23.15.47.15.74,0,.23-.03.43-.08.61-.05.17-.13.33-.23.46-.1.13-.23.25-.37.33-.15.09-.31.17-.49.22.45.13.78.34,1,.62s.33.64.33,1.07c0,.35-.06.65-.19.92-.13.27-.31.5-.53.68-.22.19-.48.33-.77.43s-.61.15-.94.15c-.37,0-.69-.04-.96-.13-.27-.09-.5-.21-.7-.38-.19-.16-.36-.36-.49-.6-.13-.23-.24-.49-.33-.78l.46-.19c.12-.05.24-.07.35-.04.11.02.19.08.24.18.05.11.11.22.18.34.07.12.15.23.26.33.1.1.23.19.39.25.15.07.35.1.57.1s.43-.04.6-.11c.17-.07.31-.17.43-.29.11-.12.2-.25.26-.4.06-.15.08-.29.08-.43,0-.18-.02-.35-.06-.5-.04-.15-.13-.28-.25-.39-.12-.11-.3-.19-.53-.25-.23-.06-.53-.09-.9-.09v-.77c.3,0,.56-.03.77-.09s.37-.14.5-.24c.12-.1.21-.22.27-.37.06-.14.08-.3.08-.47,0-.18-.03-.34-.08-.48s-.14-.26-.24-.35-.22-.17-.36-.21c-.14-.05-.29-.07-.46-.07s-.31.02-.45.07c-.14.05-.26.11-.37.19s-.2.18-.27.3c-.07.11-.13.24-.16.38-.05.14-.11.23-.19.27-.08.05-.19.06-.34.03l-.56-.1Z"/>
  <g>
    <path class="cls-1" d="m10.03,17.38c.7,0,1.31.07,1.82.21s.93.34,1.26.59c.33.26.57.57.72.94.15.37.23.79.23,1.25,0,.28-.04.55-.13.81-.09.26-.22.5-.4.72s-.4.43-.67.6c-.27.18-.59.32-.95.44.84.16,1.48.46,1.9.9.42.44.64,1.02.64,1.73,0,.49-.09.93-.27,1.33s-.44.74-.78,1.03c-.34.29-.77.51-1.27.67-.5.16-1.07.24-1.71.24h-4.05v-11.46h3.66Zm-2.11,1.22v3.91h2.05c.44,0,.82-.05,1.14-.14.32-.1.59-.23.8-.4.21-.17.37-.38.47-.62.1-.24.15-.51.15-.8,0-.68-.2-1.17-.61-1.48s-1.03-.47-1.89-.47h-2.11Zm2.48,9.01c.44,0,.82-.05,1.14-.15.32-.1.58-.24.79-.43.21-.18.36-.4.45-.66.1-.25.14-.53.14-.84,0-.59-.21-1.06-.63-1.4-.42-.34-1.05-.52-1.9-.52h-2.48v3.99h2.48Z"/>
    <path class="cls-1" d="m21.67,22.18c-.04.06-.09.1-.13.14-.04.03-.1.05-.18.05-.08,0-.17-.03-.26-.1-.1-.07-.21-.14-.36-.22-.14-.08-.31-.15-.52-.22-.21-.07-.46-.1-.76-.1-.4,0-.75.07-1.06.21-.3.14-.56.35-.76.61-.21.27-.36.59-.46.97-.1.38-.16.8-.16,1.27s.06.93.17,1.31c.11.38.27.7.48.96.21.26.45.46.74.59.29.14.62.2.98.2s.63-.04.86-.12c.22-.08.41-.17.56-.28.15-.1.27-.19.37-.28s.2-.12.29-.12c.12,0,.21.05.27.14l.4.52c-.18.22-.38.41-.6.56-.22.15-.47.28-.72.39s-.53.18-.81.23-.57.07-.86.07c-.51,0-.98-.09-1.41-.28-.44-.19-.81-.46-1.13-.81-.32-.35-.57-.79-.75-1.31-.18-.52-.27-1.11-.27-1.77,0-.6.08-1.16.25-1.67s.41-.95.74-1.32c.32-.37.72-.66,1.19-.87s1.01-.31,1.63-.31c.57,0,1.07.09,1.51.28.44.18.82.44,1.16.78l-.38.51Z"/>
    <path class="cls-1" d="m27.1,17.38c.7,0,1.31.07,1.82.21s.93.34,1.26.59c.33.26.57.57.72.94.15.37.23.79.23,1.25,0,.28-.04.55-.13.81-.09.26-.22.5-.4.72s-.4.43-.67.6c-.27.18-.59.32-.95.44.84.16,1.48.46,1.9.9.42.44.64,1.02.64,1.73,0,.49-.09.93-.27,1.33s-.44.74-.78,1.03c-.34.29-.77.51-1.27.67-.5.16-1.07.24-1.71.24h-4.05v-11.46h3.66Zm-2.11,1.22v3.91h2.05c.44,0,.82-.05,1.14-.14.32-.1.59-.23.8-.4.21-.17.37-.38.47-.62.1-.24.15-.51.15-.8,0-.68-.2-1.17-.61-1.48s-1.03-.47-1.89-.47h-2.11Zm2.48,9.01c.44,0,.82-.05,1.14-.15.32-.1.58-.24.79-.43.21-.18.36-.4.45-.66.1-.25.14-.53.14-.84,0-.59-.21-1.06-.63-1.4-.42-.34-1.05-.52-1.9-.52h-2.48v3.99h2.48Z"/>
    <path class="cls-1" d="m32.88,20.48c.07-.52.22-.99.43-1.39.21-.4.48-.74.81-1.01.33-.27.7-.48,1.13-.62.42-.14.88-.21,1.37-.21s.93.07,1.34.21.76.34,1.06.59.53.57.69.93c.17.36.25.77.25,1.21,0,.36-.05.69-.14.97-.09.29-.23.53-.4.75s-.38.4-.63.54c-.25.15-.52.27-.82.37.75.19,1.31.52,1.68.99.38.47.56,1.05.56,1.75,0,.53-.1,1-.3,1.42s-.47.78-.82,1.08-.75.52-1.21.68c-.46.16-.96.24-1.48.24-.61,0-1.13-.08-1.56-.23-.43-.15-.8-.36-1.1-.63-.3-.27-.54-.58-.74-.95-.19-.37-.35-.76-.49-1.19l.62-.26c.16-.07.32-.09.47-.06.15.03.26.12.33.26.07.15.16.33.26.54s.25.41.43.6.41.35.69.49c.28.13.64.2,1.07.2.4,0,.75-.07,1.05-.2.3-.13.55-.3.75-.51s.35-.44.45-.7c.1-.26.15-.51.15-.76,0-.31-.04-.59-.12-.85-.08-.26-.23-.48-.45-.66-.22-.19-.52-.33-.9-.44-.38-.11-.87-.16-1.47-.16v-1.03c.49,0,.91-.06,1.25-.16.34-.1.62-.24.84-.42.22-.18.37-.39.47-.63.1-.25.15-.52.15-.82,0-.33-.05-.62-.16-.86-.1-.25-.25-.45-.43-.61-.18-.16-.4-.28-.64-.36s-.52-.12-.8-.12-.56.04-.8.13c-.25.09-.47.2-.66.36-.19.15-.35.33-.48.54-.13.21-.22.44-.27.69-.07.19-.16.31-.26.37-.1.06-.25.08-.45.05l-.74-.13Z"/>
  </g>
  <g>
    <path class="cls-1" d="m10.48,34.98l-1.84,4.53h-.66l-1.84-4.53h.59c.06,0,.12.02.16.05s.07.07.09.12l1.17,2.96c.06.17.12.36.17.57.02-.11.05-.21.07-.3.03-.1.05-.19.09-.27l1.16-2.96s.05-.08.09-.12c.04-.04.09-.05.16-.05h.59Z"/>
    <path class="cls-1" d="m11.54,35.33c0,.06-.01.12-.04.17-.02.05-.06.1-.1.14s-.09.07-.15.1c-.06.02-.11.04-.18.04s-.12-.01-.17-.04c-.05-.02-.1-.06-.14-.1-.04-.04-.07-.09-.1-.14-.02-.05-.04-.11-.04-.17s.01-.12.04-.18c.02-.05.06-.1.1-.14.04-.04.09-.07.14-.1.05-.02.11-.04.17-.04s.12.01.18.04.1.06.15.1.07.09.1.14c.02.05.04.11.04.18Zm-.11.97v3.21h-.68v-3.21h.68Z"/>
    <path class="cls-1" d="m13.15,39.56c-.27,0-.47-.08-.61-.23-.14-.15-.22-.36-.22-.63v-1.87h-.35s-.07-.01-.1-.04c-.03-.02-.04-.06-.04-.11v-.27l.52-.08.15-.93s.03-.07.05-.09c.02-.02.06-.03.1-.03h.35v1.05h.89v.49h-.89v1.82c0,.12.03.2.08.26.06.06.13.09.23.09.05,0,.1,0,.14-.02.04-.01.07-.03.1-.04.03-.02.05-.03.07-.04.02-.01.04-.02.06-.02.04,0,.07.02.09.06l.2.33c-.1.09-.23.16-.37.21-.14.05-.29.07-.44.07Z"/>
    <path class="cls-1" d="m14.19,36.75c.36-.34.79-.51,1.3-.51.18,0,.35.03.49.09.14.06.26.14.36.25.1.11.17.24.22.39.05.15.08.32.08.5v2.04h-.3c-.07,0-.11,0-.15-.03-.03-.02-.06-.06-.08-.12l-.07-.26c-.08.07-.16.14-.24.2s-.16.11-.25.15-.18.07-.27.09c-.1.02-.21.03-.32.03-.13,0-.25-.02-.36-.05-.11-.04-.21-.09-.29-.16-.08-.07-.15-.16-.19-.27-.05-.11-.07-.23-.07-.38,0-.12.03-.25.1-.36.07-.12.18-.22.33-.32.15-.09.35-.17.6-.23.25-.06.56-.09.92-.1v-.21c0-.23-.05-.4-.15-.52s-.24-.17-.43-.17c-.13,0-.24.02-.33.05-.09.03-.16.07-.23.1-.07.04-.12.07-.17.11-.05.03-.1.05-.16.05-.05,0-.09-.01-.12-.04-.03-.02-.06-.05-.08-.09l-.12-.22Zm1.79,1.36c-.24,0-.44.03-.61.06-.17.03-.3.07-.4.12-.1.05-.18.1-.22.17-.04.07-.07.14-.07.21s.01.14.04.19c.02.05.06.1.1.13.04.03.09.06.15.08s.12.02.19.02c.18,0,.33-.03.45-.1.13-.07.25-.16.37-.29v-.59Z"/>
    <path class="cls-1" d="m17.27,39.51v-3.21h.41c.09,0,.15.04.18.13l.04.28c.06-.07.12-.13.18-.18s.13-.1.2-.14c.07-.04.15-.07.23-.1.08-.02.17-.03.27-.03.1,0,.2.01.28.04s.16.07.23.13c.07.05.12.12.17.2.05.08.09.16.12.26.05-.11.11-.21.18-.29.07-.08.16-.14.25-.2.09-.05.19-.09.29-.11.1-.02.21-.04.31-.04.17,0,.33.03.46.08s.25.13.34.24.16.23.21.38c.05.15.07.32.07.52v2.04h-.68v-2.04c0-.23-.05-.4-.15-.51s-.24-.17-.43-.17c-.09,0-.17.01-.24.04-.08.03-.14.07-.2.13s-.1.13-.13.21c-.03.08-.05.18-.05.3v2.04h-.68v-2.04c0-.24-.05-.41-.14-.52-.09-.11-.23-.17-.42-.17-.13,0-.24.03-.35.1-.11.06-.21.15-.3.26v2.37h-.68Z"/>
    <path class="cls-1" d="m23.16,35.33c0,.06-.01.12-.04.17-.02.05-.06.1-.1.14s-.09.07-.15.1c-.06.02-.11.04-.18.04s-.12-.01-.17-.04c-.05-.02-.1-.06-.14-.1-.04-.04-.07-.09-.1-.14-.02-.05-.04-.11-.04-.17s.01-.12.04-.18c.02-.05.06-.1.1-.14.04-.04.09-.07.14-.1.05-.02.11-.04.17-.04s.12.01.18.04.1.06.15.1.07.09.1.14c.02.05.04.11.04.18Zm-.11.97v3.21h-.68v-3.21h.68Z"/>
    <path class="cls-1" d="m24.37,36.72c.07-.07.14-.14.22-.19.07-.06.15-.11.24-.15.08-.04.17-.07.27-.1.09-.02.2-.03.31-.03.18,0,.33.03.46.09s.25.14.34.25c.09.11.16.24.21.38.05.15.07.32.07.5v2.04h-.67v-2.04c0-.22-.05-.38-.15-.5-.1-.12-.25-.18-.46-.18-.15,0-.29.03-.42.1s-.25.16-.36.28v2.34h-.68v-3.21h.41c.09,0,.15.04.18.13l.05.29Z"/>
    <path class="cls-1" d="m30.15,34.98c.29,0,.54.03.74.08.21.06.37.14.51.24.13.1.23.23.29.38.06.15.09.31.09.5,0,.11-.02.21-.05.31-.03.1-.08.19-.15.28-.07.09-.15.17-.26.23-.1.07-.22.13-.37.17.64.14.96.48.96,1.02,0,.19-.04.37-.11.53s-.18.3-.31.42c-.14.12-.31.21-.51.27-.2.07-.43.1-.69.1h-1.66v-4.53h1.51Zm-.77.58v1.42h.74c.31,0,.55-.06.7-.18.16-.12.23-.3.23-.53,0-.25-.07-.43-.22-.54-.15-.11-.37-.17-.68-.17h-.77Zm.91,3.37c.17,0,.31-.02.42-.06.11-.04.21-.09.28-.16.07-.07.12-.15.16-.24.03-.09.05-.19.05-.29,0-.21-.07-.38-.22-.5-.15-.12-.38-.18-.69-.18h-.91v1.44h.91Z"/>
    <path class="cls-1" d="m32.43,36.22c.03-.21.09-.4.18-.56.09-.16.2-.3.33-.4.13-.11.28-.19.45-.25s.36-.08.56-.08.38.03.55.09.31.14.42.24c.12.1.21.23.27.37s.1.3.1.47c0,.14-.02.27-.05.38s-.08.21-.15.29-.14.15-.23.21-.2.1-.31.14c.28.08.49.21.63.39.14.18.21.4.21.67,0,.22-.04.41-.12.58-.08.17-.19.31-.33.43s-.3.21-.49.27c-.19.06-.38.09-.59.09-.23,0-.43-.03-.6-.08s-.32-.13-.44-.24c-.12-.1-.22-.23-.31-.38-.08-.15-.15-.31-.21-.49l.29-.12c.08-.03.15-.04.22-.03s.12.05.15.12c.03.07.07.14.11.22.04.08.1.15.16.21.07.06.15.12.25.16.1.04.22.06.36.06s.27-.02.38-.07c.11-.05.2-.11.27-.18.07-.08.13-.16.16-.25.04-.09.05-.18.05-.27,0-.11-.01-.22-.04-.31-.03-.09-.08-.18-.16-.24-.08-.07-.19-.12-.33-.16s-.33-.06-.56-.06v-.49c.19,0,.35-.02.48-.06.13-.04.24-.09.31-.15.08-.06.14-.14.17-.23s.05-.19.05-.3c0-.12-.02-.22-.05-.31-.04-.09-.09-.16-.15-.22s-.14-.1-.23-.13c-.09-.03-.19-.04-.29-.04s-.2.01-.28.04-.16.07-.23.12c-.07.05-.13.12-.17.19-.05.07-.08.15-.1.24-.03.09-.07.14-.12.17s-.12.04-.22.02l-.36-.06Z"/>
  </g>
</svg>