<?xml version="1.0" encoding="UTF-8"?>
<svg id="Layer_1" data-name="Layer 1" xmlns="http://www.w3.org/2000/svg" viewBox="0 0 87.75 87.75">
  <defs>
    <style>
      .cls-1 {
        fill: #f5804e;
      }

      .cls-1, .cls-2 {
        stroke-width: 0px;
      }

      .cls-2 {
        fill: #0b20b6;
      }
    </style>
  </defs>
  <path class="cls-2" d="m70.96,80.91c-5.48,0-9.94-4.46-9.94-9.94s4.46-9.94,9.94-9.94,9.95,4.46,9.95,9.94-4.46,9.94-9.95,9.94Zm0-19.39c-5.21,0-9.44,4.24-9.44,9.44s4.24,9.44,9.44,9.44,9.45-4.24,9.45-9.44-4.24-9.44-9.45-9.44Z"/>
  <path class="cls-2" d="m70.96,75.59c-2.48,0-4.5-2.02-4.5-4.5v-8.65h.5v8.65c0,2.21,1.8,4,4,4s4-1.8,4-4v-8.59h.5v8.59c0,2.48-2.02,4.5-4.5,4.5Z"/>
  <rect class="cls-1" x=".25" y=".25" width="29.08" height="3.49"/>
  <path class="cls-2" d="m87.75,87.75H0V0h87.75v87.75Zm-87.25-.5h86.75V.5H.5v86.75Z"/>
  <rect class="cls-2" x="6.36" y="47.78" width="75.03" height=".5"/>
  <g>
    <path class="cls-2" d="m10.48,34.98l-1.84,4.53h-.66l-1.84-4.53h.59c.06,0,.12.02.16.05s.07.07.09.12l1.17,2.96c.06.17.12.36.17.57.02-.11.05-.21.07-.3.03-.1.05-.19.09-.27l1.16-2.96s.05-.08.09-.12c.04-.04.09-.05.16-.05h.59Z"/>
    <path class="cls-2" d="m11.54,35.33c0,.06-.01.12-.04.17-.02.05-.06.1-.1.14s-.09.07-.15.1c-.06.02-.11.04-.18.04s-.12-.01-.17-.04c-.05-.02-.1-.06-.14-.1-.04-.04-.07-.09-.1-.14-.02-.05-.04-.11-.04-.17s.01-.12.04-.18c.02-.05.06-.1.1-.14.04-.04.09-.07.14-.1.05-.02.11-.04.17-.04s.12.01.18.04.1.06.15.1.07.09.1.14c.02.05.04.11.04.18Zm-.11.97v3.21h-.68v-3.21h.68Z"/>
    <path class="cls-2" d="m13.15,39.56c-.27,0-.47-.08-.61-.23-.14-.15-.22-.36-.22-.63v-1.87h-.35s-.07-.01-.1-.04c-.03-.02-.04-.06-.04-.11v-.27l.52-.08.15-.93s.03-.07.05-.09c.02-.02.06-.03.1-.03h.35v1.05h.89v.49h-.89v1.82c0,.12.03.2.08.26.06.06.13.09.23.09.05,0,.1,0,.14-.02.04-.01.07-.03.1-.04.03-.02.05-.03.07-.04.02-.01.04-.02.06-.02.04,0,.07.02.09.06l.2.33c-.1.09-.23.16-.37.21-.14.05-.29.07-.44.07Z"/>
    <path class="cls-2" d="m14.19,36.75c.36-.34.79-.51,1.3-.51.18,0,.35.03.49.09.14.06.26.14.36.25.1.11.17.24.22.39.05.15.08.32.08.5v2.04h-.3c-.07,0-.11,0-.15-.03-.03-.02-.06-.06-.08-.12l-.07-.26c-.08.07-.16.14-.24.2s-.16.11-.25.15-.18.07-.27.09c-.1.02-.21.03-.32.03-.13,0-.25-.02-.36-.05-.11-.04-.21-.09-.29-.16-.08-.07-.15-.16-.19-.27-.05-.11-.07-.23-.07-.38,0-.12.03-.25.1-.36.07-.12.18-.22.33-.32.15-.09.35-.17.6-.23.25-.06.56-.09.92-.1v-.21c0-.23-.05-.4-.15-.52s-.24-.17-.43-.17c-.13,0-.24.02-.33.05-.09.03-.16.07-.23.1-.07.04-.12.07-.17.11-.05.03-.1.05-.16.05-.05,0-.09-.01-.12-.04-.03-.02-.06-.05-.08-.09l-.12-.22Zm1.79,1.36c-.24,0-.44.03-.61.06-.17.03-.3.07-.4.12-.1.05-.18.1-.22.17-.04.07-.07.14-.07.21s.01.14.04.19c.02.05.06.1.1.13.04.03.09.06.15.08s.12.02.19.02c.18,0,.33-.03.45-.1.13-.07.25-.16.37-.29v-.59Z"/>
    <path class="cls-2" d="m17.27,39.51v-3.21h.41c.09,0,.15.04.18.13l.04.28c.06-.07.12-.13.18-.18s.13-.1.2-.14c.07-.04.15-.07.23-.1.08-.02.17-.03.27-.03.1,0,.2.01.28.04s.16.07.23.13c.07.05.12.12.17.2.05.08.09.16.12.26.05-.11.11-.21.18-.29.07-.08.16-.14.25-.2.09-.05.19-.09.29-.11.1-.02.21-.04.31-.04.17,0,.33.03.46.08s.25.13.34.24.16.23.21.38c.05.15.07.32.07.52v2.04h-.68v-2.04c0-.23-.05-.4-.15-.51s-.24-.17-.43-.17c-.09,0-.17.01-.24.04-.08.03-.14.07-.2.13s-.1.13-.13.21c-.03.08-.05.18-.05.3v2.04h-.68v-2.04c0-.24-.05-.41-.14-.52-.09-.11-.23-.17-.42-.17-.13,0-.24.03-.35.1-.11.06-.21.15-.3.26v2.37h-.68Z"/>
    <path class="cls-2" d="m23.16,35.33c0,.06-.01.12-.04.17-.02.05-.06.1-.1.14s-.09.07-.15.1c-.06.02-.11.04-.18.04s-.12-.01-.17-.04c-.05-.02-.1-.06-.14-.1-.04-.04-.07-.09-.1-.14-.02-.05-.04-.11-.04-.17s.01-.12.04-.18c.02-.05.06-.1.1-.14.04-.04.09-.07.14-.1.05-.02.11-.04.17-.04s.12.01.18.04.1.06.15.1.07.09.1.14c.02.05.04.11.04.18Zm-.11.97v3.21h-.68v-3.21h.68Z"/>
    <path class="cls-2" d="m24.37,36.72c.07-.07.14-.14.22-.19.07-.06.15-.11.24-.15.08-.04.17-.07.27-.1.09-.02.2-.03.31-.03.18,0,.33.03.46.09s.25.14.34.25c.09.11.16.24.21.38.05.15.07.32.07.5v2.04h-.67v-2.04c0-.22-.05-.38-.15-.5-.1-.12-.25-.18-.46-.18-.15,0-.29.03-.42.1s-.25.16-.36.28v2.34h-.68v-3.21h.41c.09,0,.15.04.18.13l.05.29Z"/>
    <path class="cls-2" d="m31.79,38.5s.07.02.1.05l.29.32c-.18.22-.41.39-.68.51-.27.12-.59.18-.96.18-.33,0-.63-.06-.9-.17-.27-.11-.5-.27-.68-.48-.19-.2-.33-.45-.44-.73-.1-.28-.15-.59-.15-.93s.05-.65.16-.94c.11-.28.26-.53.46-.73.2-.21.43-.36.71-.48.27-.11.58-.17.9-.17s.62.05.87.16c.25.11.47.25.65.42l-.24.34s-.04.04-.06.06c-.02.02-.05.03-.09.03s-.09-.02-.14-.06c-.05-.04-.12-.08-.2-.13s-.19-.09-.31-.13c-.12-.04-.28-.06-.47-.06-.22,0-.41.04-.59.11-.18.08-.34.19-.47.33s-.23.32-.3.53c-.07.21-.11.44-.11.71s.04.5.11.71.18.38.31.53.29.25.47.33c.18.08.37.11.58.11.13,0,.24,0,.34-.02s.19-.04.28-.07c.08-.03.16-.07.24-.11.07-.05.15-.1.22-.17.04-.04.08-.06.13-.06Z"/>
  </g>
  <g>
    <path class="cls-2" d="m77.34,11.62v.81h-3.92v-.81h1.5v-4.5c0-.16,0-.32.02-.49l-1.15.97s-.1.07-.15.08c-.05.01-.1.01-.14,0-.04-.01-.08-.03-.12-.05-.04-.02-.06-.05-.08-.07l-.33-.47,2.16-1.86h.87v6.38h1.35Z"/>
    <path class="cls-2" d="m82.68,11.62v.81h-3.92v-.81h1.5v-4.5c0-.16,0-.32.02-.49l-1.15.97s-.1.07-.15.08c-.05.01-.1.01-.14,0-.04-.01-.08-.03-.12-.05-.04-.02-.06-.05-.08-.07l-.33-.47,2.16-1.86h.87v6.38h1.35Z"/>
  </g>
  <g>
    <path class="cls-2" d="m16.88,17.38l-4.67,11.46h-1.39l-4.67-11.46h1.24c.14,0,.25.03.34.1s.15.16.19.26l3.23,8.09c.07.18.14.38.2.59s.13.44.18.67c.05-.23.11-.46.17-.67.06-.21.12-.41.19-.59l3.22-8.09c.03-.09.09-.17.19-.25.09-.08.21-.12.34-.12h1.24Z"/>
    <path class="cls-2" d="m19.47,18.2c0,.14-.03.27-.08.39-.06.12-.13.23-.22.32s-.2.17-.33.22c-.12.05-.26.08-.4.08s-.27-.03-.39-.08c-.12-.05-.23-.13-.32-.22-.09-.09-.16-.2-.22-.32-.05-.12-.08-.25-.08-.39s.03-.27.08-.4.13-.23.22-.33c.09-.09.2-.17.32-.22s.25-.08.39-.08.27.03.4.08c.13.05.23.13.33.22s.17.2.22.33.08.26.08.4Zm-.3,2.54v8.1h-1.42v-8.1h1.42Z"/>
    <path class="cls-2" d="m23.59,28.97c-.64,0-1.13-.18-1.48-.54-.34-.36-.52-.87-.52-1.54v-4.96h-.98c-.09,0-.16-.02-.22-.08-.06-.05-.09-.13-.09-.24v-.57l1.33-.17.33-2.5c.02-.08.05-.15.11-.2.06-.05.13-.08.22-.08h.72v2.79h2.34v1.03h-2.34v4.86c0,.34.08.59.25.76s.38.25.64.25c.15,0,.28-.02.39-.06.11-.04.2-.08.28-.13s.15-.09.2-.13c.06-.04.11-.06.15-.06.07,0,.14.05.2.14l.42.68c-.25.23-.54.41-.89.54-.35.13-.7.2-1.07.2Z"/>
    <path class="cls-2" d="m34.82,26.48c.08,0,.16.04.22.1l.62.66c-.47.54-1.04.97-1.71,1.27-.67.3-1.48.46-2.43.46-.82,0-1.57-.14-2.24-.43-.67-.29-1.25-.69-1.72-1.2s-.84-1.13-1.1-1.85c-.26-.72-.39-1.51-.39-2.38s.14-1.66.41-2.38.65-1.34,1.15-1.86c.49-.52,1.08-.92,1.77-1.2.69-.29,1.45-.43,2.28-.43s1.54.13,2.16.39c.62.26,1.17.62,1.65,1.06l-.51.71c-.03.05-.07.1-.12.13s-.12.05-.2.05c-.1,0-.21-.05-.35-.16s-.32-.22-.54-.35-.5-.24-.84-.35-.75-.16-1.24-.16c-.59,0-1.13.1-1.62.31s-.91.5-1.27.89c-.35.39-.63.86-.83,1.42-.2.56-.3,1.19-.3,1.9s.1,1.35.31,1.91c.21.56.49,1.03.84,1.42.35.39.77.68,1.26.88.48.2,1,.3,1.56.3.34,0,.65-.02.92-.06.27-.04.53-.1.76-.19.23-.08.45-.19.65-.32.2-.13.4-.29.6-.47.09-.08.18-.12.27-.12Z"/>
  </g>
</svg>