<?xml version="1.0" encoding="UTF-8"?>
<svg id="Layer_1" data-name="Layer 1" xmlns="http://www.w3.org/2000/svg" viewBox="0 0 87.75 87.75">
  <defs>
    <style>
      .cls-1 {
        fill: #0b20b6;
      }

      .cls-1, .cls-2 {
        stroke-width: 0px;
      }

      .cls-2 {
        fill: #c0d239;
      }
    </style>
  </defs>
  <path class="cls-1" d="m70.67,82.03c-.35,0-.69-.08-1.01-.24l-8.01-4c-.77-.39-1.24-1.17-1.24-2.03v-9.52c0-.86.48-1.63,1.25-2.02l8-4c.63-.31,1.38-.31,2,0h0s8,4,8,4c.77.38,1.25,1.15,1.25,2.02v9.54c0,.86-.48,1.63-1.25,2.02l-8,4c-.32.16-.66.24-1.01.24Zm0-21.54c-.27,0-.54.06-.78.18l-8,4c-.6.3-.97.9-.97,1.57v9.52c0,.67.36,1.28.96,1.58l8,4c.49.25,1.08.25,1.57,0l8-4c.6-.3.97-.9.97-1.57v-9.54c0-.67-.37-1.27-.97-1.57l-8-4c-.24-.12-.51-.18-.78-.18Z"/>
  <polygon class="cls-1" points="70.68 70.28 60.88 65.38 61.1 64.94 70.68 69.72 80.25 64.94 80.48 65.38 70.68 70.28"/>
  <rect class="cls-1" x="70.43" y="70" width=".5" height="11.77"/>
  <rect class="cls-2" x=".25" y=".25" width="29.08" height="3.49"/>
  <path class="cls-1" d="m87.75,87.75H0V0h87.75v87.75Zm-87.25-.5h86.75V.5H.5v86.75Z"/>
  <rect class="cls-1" x="6.36" y="47.78" width="75.03" height=".5"/>
  <g>
    <path class="cls-1" d="m9.68,35.25s0,.08-.02.12-.03.08-.06.11l-2.43,3.43h2.46v.59h-3.42v-.29s0-.08.02-.11c.01-.03.03-.07.05-.1l2.44-3.44h-2.38v-.59h3.34v.27Z"/>
    <path class="cls-1" d="m10.93,35.33c0,.06-.01.12-.04.17-.02.05-.06.1-.1.14s-.09.07-.15.1c-.06.02-.11.04-.18.04s-.12-.01-.17-.04c-.05-.02-.1-.06-.14-.1s-.07-.09-.1-.14-.04-.11-.04-.17.01-.12.04-.18c.02-.05.06-.1.1-.14s.09-.07.14-.1c.05-.02.11-.04.17-.04s.12.01.18.04.1.06.15.1.08.09.1.14c.02.05.04.11.04.18Zm-.11.97v3.21h-.68v-3.21h.68Z"/>
    <path class="cls-1" d="m12.15,36.72c.07-.07.14-.14.21-.19s.15-.11.24-.15c.08-.04.17-.07.27-.1.09-.02.2-.03.31-.03.18,0,.33.03.46.09.13.06.25.14.34.25.09.11.16.24.21.38.05.15.07.32.07.5v2.04h-.67v-2.04c0-.22-.05-.38-.15-.5-.1-.12-.25-.18-.46-.18-.15,0-.29.03-.42.1s-.25.16-.36.28v2.34h-.68v-3.21h.41c.09,0,.15.04.18.13l.05.29Z"/>
    <path class="cls-1" d="m17.16,36.93s-.04.05-.06.06c-.02.01-.05.02-.08.02s-.07-.01-.11-.04c-.04-.03-.08-.05-.14-.08s-.12-.06-.19-.08c-.08-.02-.17-.04-.28-.04-.15,0-.28.03-.39.08-.11.05-.2.13-.28.23-.07.1-.13.22-.17.36-.04.14-.06.3-.06.47s.02.34.06.48c.04.14.1.26.17.36.07.1.17.17.27.22.11.05.23.08.36.08s.24-.02.32-.05c.08-.03.15-.07.21-.1.05-.04.1-.07.14-.1.04-.03.08-.05.12-.05.05,0,.1.02.13.06l.19.25c-.08.09-.16.17-.26.24-.09.07-.19.12-.3.16-.11.04-.21.07-.33.09s-.23.03-.34.03c-.2,0-.38-.04-.56-.11-.17-.07-.32-.18-.45-.32s-.23-.31-.3-.52c-.07-.2-.11-.44-.11-.7,0-.24.03-.46.1-.66.07-.2.17-.38.29-.52s.29-.26.48-.34c.19-.08.41-.12.66-.12.23,0,.44.04.62.11.18.08.33.18.47.32l-.18.25Z"/>
  </g>
  <g>
    <path class="cls-1" d="m77.03,11.42c.12,0,.21.03.27.1s.1.16.1.26v.65h-4.86v-.36c0-.07.02-.15.04-.23s.08-.15.14-.22l2.23-2.24c.19-.19.36-.37.51-.54.15-.17.27-.35.38-.52.1-.17.18-.35.24-.53.06-.18.08-.37.08-.56s-.03-.36-.09-.5-.14-.26-.24-.36c-.1-.09-.22-.17-.36-.21-.14-.05-.3-.07-.47-.07s-.31.02-.45.07c-.14.05-.26.11-.37.19-.11.08-.2.18-.27.3-.07.11-.12.24-.16.38-.05.14-.11.23-.19.27-.08.05-.19.06-.34.03l-.56-.1c.05-.34.14-.64.28-.89.14-.26.31-.47.52-.64.21-.17.45-.3.72-.39.27-.09.56-.13.88-.13s.61.05.88.14.5.23.69.4c.19.17.35.39.46.64s.16.53.16.84c0,.27-.04.51-.12.74-.08.23-.18.44-.32.65-.13.21-.29.41-.47.6-.18.2-.36.39-.56.59l-1.74,1.78c.14-.04.29-.07.43-.09s.28-.04.41-.04h2.11Z"/>
    <path class="cls-1" d="m82.46,11.42c.12,0,.21.03.27.1s.1.16.1.26v.65h-4.86v-.36c0-.07.02-.15.04-.23s.08-.15.14-.22l2.23-2.24c.19-.19.36-.37.51-.54.15-.17.27-.35.38-.52.1-.17.18-.35.24-.53.06-.18.08-.37.08-.56s-.03-.36-.09-.5-.14-.26-.24-.36c-.1-.09-.22-.17-.36-.21-.14-.05-.3-.07-.47-.07s-.31.02-.45.07c-.14.05-.26.11-.37.19-.11.08-.2.18-.27.3-.07.11-.12.24-.16.38-.05.14-.11.23-.19.27-.08.05-.19.06-.34.03l-.56-.1c.05-.34.14-.64.28-.89.14-.26.31-.47.52-.64.21-.17.45-.3.72-.39.27-.09.56-.13.88-.13s.61.05.88.14.5.23.69.4c.19.17.35.39.46.64s.16.53.16.84c0,.27-.04.51-.12.74-.08.23-.18.44-.32.65-.13.21-.29.41-.47.6-.18.2-.36.39-.56.59l-1.74,1.78c.14-.04.29-.07.43-.09s.28-.04.41-.04h2.11Z"/>
  </g>
  <g>
    <path class="cls-1" d="m14.75,17.96c0,.18-.05.35-.16.51l-6.49,9.11h6.55v1.26H6.06v-.61c0-.09.01-.17.04-.24s.07-.15.11-.22l6.5-9.14h-6.35v-1.26h8.38v.58Z"/>
    <path class="cls-1" d="m17.11,21.92c.18-.2.36-.38.56-.54.2-.16.41-.3.63-.41.22-.11.46-.2.7-.26.25-.06.52-.09.8-.09.44,0,.83.07,1.17.22.34.15.62.35.85.62.23.27.4.59.52.97.12.38.18.8.18,1.26v5.16h-1.43v-5.16c0-.61-.14-1.09-.42-1.43-.28-.34-.71-.51-1.28-.51-.42,0-.81.1-1.18.3s-.7.48-1.01.82v5.97h-1.43v-8.1h.86c.2,0,.33.1.38.3l.11.88Z"/>
  </g>
</svg>